<?xml version="1.0" encoding="UTF-8"?>
<svg width="67px" height="58px" viewBox="0 0 67 58" version="1.1" xmlns="http://www.w3.org/2000/svg" xmlns:xlink="http://www.w3.org/1999/xlink">
    <title>Combined Shape备份</title>
    <g id="新增" stroke="none" stroke-width="1" fill="none" fill-rule="evenodd">
        <g id="新增-H5" transform="translate(-51.000000, -2468.000000)" fill="#FFFFFF" fill-rule="nonzero">
            <g id="编组-4" transform="translate(20.000000, 2331.000000)">
                <path d="M89.625,137 L96.325,149.181 L98,149.181818 L98,161.363636 L94.954,161.363 L94.9545455,194.863636 L34.0454545,194.863636 L34.045,161.363 L31,161.363636 L31,149.181818 L32.675,149.181 L39.375,137 L89.625,137 Z M49.272,161.363 L37.0909091,161.363636 L37.0909091,191.818182 L91.9090909,191.818182 L91.9090909,161.363636 L79.727,161.363 L79.7272727,170.5 L49.2727273,170.5 L49.272,161.363 Z M76.6818182,161.363636 L52.3181818,161.363636 L52.3181818,167.454545 L76.6818182,167.454545 L76.6818182,161.363636 Z M94.9545455,152.227273 L34.0454545,152.227273 L34.0454545,158.318182 L94.9545455,158.318182 L94.9545455,152.227273 Z M87.8243104,140.045455 L41.1756896,140.045455 L36.1506896,149.181818 L92.8493104,149.181818 L87.8243104,140.045455 Z" id="Combined-Shape备份"></path>
            </g>
        </g>
    </g>
</svg>