<?xml version="1.0" encoding="UTF-8"?>
<svg width="43px" height="43px" viewBox="0 0 43 43" version="1.1" xmlns="http://www.w3.org/2000/svg" xmlns:xlink="http://www.w3.org/1999/xlink">
    <!-- Generator: Sketch 64 (93537) - https://sketch.com -->
    <title>放大</title>
    <desc>Created with Sketch.</desc>
    <g id="商品详情" stroke="none" stroke-width="1" fill="none" fill-rule="evenodd">
        <g id="画板" transform="translate(-232.000000, -71.000000)" fill="#231815" fill-rule="nonzero">
            <g id="放大" transform="translate(232.000000, 71.000000)">
                <path d="M35.6666667,0 L7.13333335,0 C3.13866665,0 0,3.13866665 0,7.13333335 L0,35.6666667 C0,39.6613333 3.13866665,42.8 7.13333335,42.8 L35.6666667,42.8 C39.6613333,42.8 42.8,39.6613333 42.8,35.6666667 L42.8,7.13333335 C42.8,3.13866665 39.6613333,0 35.6666667,0 Z M39.9466667,35.6666667 C39.9466667,37.9493333 37.9493333,39.9466667 35.6666667,39.9466667 L7.13333335,39.9466667 C4.85066669,39.9466667 2.85333335,37.9493333 2.85333335,35.6666667 L2.85333335,7.13333335 C2.85333335,4.85066665 4.85066665,2.85333335 7.13333335,2.85333335 L35.6666667,2.85333335 C37.9493333,2.85333335 39.9466667,4.85066669 39.9466667,7.13333335 L39.9466667,35.6666667 Z" id="形状"></path>
                <path d="M16.6618182,23.7527273 L8.43636365,31.9781818 L8.43636365,26.8727273 C8.43636365,26.0218182 7.86909093,25.4545455 7.01818184,25.4545455 C6.16727275,25.4545455 5.6,26.0218182 5.6,26.8727273 L5.6,35.3818182 C5.6,36.2327272 6.16727271,36.8 7.01818184,36.8 L15.5272727,36.8 C16.3781818,36.8 16.9454545,36.2327273 16.9454545,35.3818182 C16.9454545,34.530909 16.3781818,33.9636364 15.5272727,33.9636364 L10.4218182,33.9636364 L18.6472727,25.7381818 C19.2145454,25.1709091 19.2145454,24.32 18.6472727,23.7527273 C18.08,23.1854546 17.2290909,23.1854546 16.6618182,23.7527273 Z M35.3818182,5.6 L26.8727273,5.6 C26.0218182,5.6 25.4545455,6.16727271 25.4545455,7.01818184 C25.4545455,7.86909098 26.0218182,8.43636365 26.8727273,8.43636365 L31.9781818,8.43636365 L23.7527273,16.6618182 C23.1854546,17.2290909 23.1854546,18.08 23.7527273,18.6472727 C24.32,19.2145454 25.1709091,19.2145454 25.7381818,18.6472727 L33.9636364,10.4218182 L33.9636364,15.5272727 C33.9636364,16.3781818 34.5309091,16.9454545 35.3818182,16.9454545 C36.2327272,16.9454545 36.8,16.3781818 36.8,15.5272727 L36.8,7.01818184 C36.8,6.16727275 36.2327273,5.6 35.3818182,5.6 Z" id="形状"></path>
            </g>
        </g>
    </g>
</svg>