<?xml version="1.0" standalone="no"?><!DOCTYPE svg PUBLIC "-//W3C//DTD SVG 1.1//EN" "http://www.w3.org/Graphics/SVG/1.1/DTD/svg11.dtd"><svg t="1633053937866" class="icon" viewBox="0 0 1024 1024" version="1.1" xmlns="http://www.w3.org/2000/svg" p-id="2407" width="21" height="21" xmlns:xlink="http://www.w3.org/1999/xlink"><defs><style type="text/css"></style></defs><path d="M512 1024c-281.6 0-512-230.4-512-512s230.4-512 512-512 512 230.4 512 512S793.6 1024 512 1024zM512 64C262.4 64 64 262.4 64 512s198.4 448 448 448 448-198.4 448-448S761.6 64 512 64z" p-id="2408" fill="#CACACA"></path><path d="M614.4 313.6c25.6 25.6 38.4 51.2 38.4 89.6 0 32-6.4 57.6-25.6 76.8C627.2 492.8 608 505.6 576 531.2 563.2 544 556.8 556.8 550.4 563.2c0 6.4-6.4 12.8-6.4 25.6 0 19.2-19.2 32-32 32l0 0c-19.2 0-38.4-19.2-32-38.4 0-12.8 6.4-25.6 6.4-32 6.4-19.2 32-44.8 70.4-76.8l12.8-12.8c12.8-12.8 19.2-32 19.2-44.8 0-19.2-6.4-38.4-19.2-51.2C556.8 345.6 537.6 339.2 512 339.2c-32 0-51.2 6.4-64 25.6C441.6 371.2 435.2 384 435.2 403.2c0 19.2-19.2 32-32 32l0 0c-19.2 0-38.4-19.2-32-44.8C377.6 358.4 390.4 339.2 403.2 320c25.6-25.6 64-38.4 108.8-38.4C556.8 281.6 595.2 288 614.4 313.6zM537.6 665.6c6.4 6.4 12.8 19.2 12.8 32 0 12.8-6.4 25.6-12.8 32-12.8 6.4-19.2 12.8-32 12.8-12.8 0-25.6-6.4-32-12.8-6.4-6.4-12.8-19.2-12.8-32 0-12.8 6.4-25.6 12.8-32 6.4-6.4 19.2-12.8 32-12.8C518.4 652.8 531.2 659.2 537.6 665.6z" p-id="2409" fill="#CACACA"></path></svg>