<?xml version="1.0" encoding="UTF-8"?>
<svg width="99px" height="52px" viewBox="0 0 99 52" version="1.1" xmlns="http://www.w3.org/2000/svg" xmlns:xlink="http://www.w3.org/1999/xlink">
    <title>Combined Shape备份 2</title>
    <g id="新增" stroke="none" stroke-width="1" fill="none" fill-rule="evenodd">
        <g id="新增-H5" transform="translate(-51.000000, -2629.000000)" fill="#FFFFFF" fill-rule="nonzero">
            <g id="编组-4" transform="translate(20.000000, 2331.000000)">
                <path d="M107.645161,298 L107.645,307.58 L123.612903,307.580645 L130,320.354839 L130,339.516129 L123.45324,339.516344 C123.557941,340.032211 123.612903,340.566139 123.612903,341.112903 C123.612903,345.522273 120.038402,349.096774 115.629032,349.096774 C111.219662,349.096774 107.645161,345.522273 107.645161,341.112903 C107.645161,340.566139 107.700123,340.032211 107.804824,339.516344 L75.5500147,339.516344 C75.6547153,340.032211 75.7096774,340.566139 75.7096774,341.112903 C75.7096774,345.522273 72.1351766,349.096774 67.7258065,349.096774 C63.3164363,349.096774 59.7419355,345.522273 59.7419355,341.112903 C59.7419355,340.566139 59.7968976,340.032211 59.9015982,339.516344 L50.1612903,339.516129 L50.1612903,298 L107.645161,298 Z M104.451613,301.193548 L53.3548387,301.193548 L53.3548387,336.322581 L61.3386504,336.321881 C62.7952702,334.383082 65.1140888,333.129032 67.7258065,333.129032 C70.3375241,333.129032 72.6563427,334.383082 74.1129625,336.321881 L104.451613,336.322581 L104.451613,301.193548 Z M126.806452,323.548387 L107.645161,323.548387 L107.645161,336.322581 L109.241876,336.321881 C110.698496,334.383082 113.017315,333.129032 115.629032,333.129032 C118.24075,333.129032 120.559569,334.383082 122.016188,336.321881 L126.806452,336.322581 L126.806452,323.548387 Z M46.9677419,317.16129 L46.9677419,320.354839 L40.5806452,320.354839 L40.5806452,317.16129 L46.9677419,317.16129 Z M107.645161,310.774194 L107.645161,320.354839 L114.032258,320.354839 L114.032258,310.774194 L107.645161,310.774194 Z M46.9677419,310.774194 L46.9677419,313.967742 L37.3870968,313.967742 L37.3870968,310.774194 L46.9677419,310.774194 Z M46.9677419,304.387097 L46.9677419,307.580645 L31,307.580645 L31,304.387097 L46.9677419,304.387097 Z M117.225806,320.354839 L126.429,320.354 L121.639182,310.774194 L117.225806,310.774194 L117.225806,320.354839 Z" id="Combined-Shape备份-2"></path>
            </g>
        </g>
    </g>
</svg>