<?xml version="1.0" encoding="UTF-8"?>
<svg width="40px" height="40px" viewBox="0 0 40 40" version="1.1" xmlns="http://www.w3.org/2000/svg" xmlns:xlink="http://www.w3.org/1999/xlink">
    <!-- Generator: Sketch 64 (93537) - https://sketch.com -->
    <title>推特</title>
    <desc>Created with Sketch.</desc>
    <g id="商品详情" stroke="none" stroke-width="1" fill="none" fill-rule="evenodd">
        <g id="画板" transform="translate(-153.000000, -74.000000)">
            <g id="推特" transform="translate(153.000000, 74.000000)">
                <rect id="矩形" fill="#00ACED" x="0" y="0" width="40" height="40" rx="8"></rect>
                <path d="M33.9961002,12.3722392 C33.2881973,13.3935878 32.4313791,14.2637913 31.425749,14.9824173 C31.4365702,15.1278372 31.441968,15.3465649 31.441968,15.6386005 C31.441968,16.9933588 31.2409866,18.3447837 30.8390238,19.6928753 C30.4370351,21.0411196 29.8266012,22.3352417 29.0078512,23.5753181 C28.1889721,24.8153944 27.213688,25.9122137 26.0822572,26.8655471 C24.9507231,27.819084 23.5864411,28.5797964 21.9893595,29.1478117 C20.3922521,29.715827 18.6848399,30 16.8670713,30 C14.0018079,30 11.3793905,29.2444784 9,27.7337659 C9.36944731,27.7750382 9.78161157,27.7956997 10.2364669,27.7956997 C12.6158574,27.7956997 14.7361054,27.0769466 16.5971074,25.6395165 C15.4872417,25.6181425 14.4931043,25.2821883 13.6147211,24.631374 C12.7363636,23.9807379 12.1333678,23.1498982 11.8057851,22.1392621 C12.1549329,22.1911705 12.4777376,22.217201 12.7741477,22.217201 C13.2290031,22.217201 13.67828,22.1597964 14.1222882,22.0450891 C12.9380165,21.8051399 11.9573089,21.2244275 11.1804494,20.3029517 C10.4035899,19.3816285 10.0151601,18.3113995 10.0151601,17.0926972 L10.0151601,17.0306107 C10.7338843,17.4266412 11.5060176,17.6400254 12.3316374,17.6707379 C11.6332903,17.2120611 11.0782283,16.6133079 10.6667872,15.8745293 C10.2553202,15.1358524 10.0488636,14.3337659 10.0476498,13.4683461 C10.0476498,12.550916 10.2803461,11.7021883 10.7460486,10.922112 C12.0251033,12.4742239 13.5821798,13.7163104 15.417562,14.6484733 C17.2527893,15.5805344 19.2167872,16.0986005 21.3092459,16.2026209 C21.2253357,15.8065649 21.1833678,15.4211959 21.1833678,15.046514 C21.1833678,13.6503817 21.6827738,12.460229 22.6816374,11.4761323 C23.680501,10.4920356 24.8885072,10 26.3056043,10 C27.7862862,10 29.0341426,10.5314504 30.0492769,11.5941476 C31.2025052,11.3754453 32.2866219,10.9693893 33.3016012,10.3760051 C32.9104855,11.5734606 32.1600465,12.5009669 31.050155,13.1582952 C32.0341426,13.0542748 33.0174329,12.7936641 34,12.3762341 L33.9961002,12.3722392 Z" id="路径" fill="#FFFFFF" fill-rule="nonzero"></path>
            </g>
        </g>
    </g>
</svg>