<?xml version="1.0" encoding="UTF-8"?>
<svg width="24px" height="24px" viewBox="0 0 24 24" version="1.1" xmlns="http://www.w3.org/2000/svg" xmlns:xlink="http://www.w3.org/1999/xlink">
    <!-- Generator: Sketch 64 (93537) - https://sketch.com -->
    <title>line</title>
    <desc>Created with Sketch.</desc>
    <g id="注册登录" stroke="none" stroke-width="1" fill="none" fill-rule="evenodd">
        <g id="画板" transform="translate(-186.000000, -237.000000)">
            <g id="line" transform="translate(186.000000, 237.000000)">
                <rect id="矩形" fill="#00C300" x="0" y="0" width="24" height="24" rx="4"></rect>
                <g transform="translate(3.000000, 4.000000)" fill="#FFFFFF" fill-rule="nonzero" id="形状">
                    <path d="M9.00024736,0 C4.02937421,0 0,3.05052589 0,6.81327136 C0,10.3084654 3.47818605,13.1871469 7.95704651,13.5793116 C8.10679676,13.6038068 8.23926289,13.6870018 8.32283087,13.8090416 C8.52163002,14.1238424 8.38033192,14.7945426 8.22598097,15.5465974 C8.07159197,16.2985607 8.91106554,15.9083365 9.09679281,15.8211969 C9.24465539,15.7521992 13.0498288,13.6891697 15.315203,11.6661402 C16.9717928,10.4301313 18,8.71256629 18,6.81349104 C18.0005708,3.05052589 13.9708732,0 9.00024736,0 Z M6.01268499,8.58562809 C6.01030655,8.84058458 5.79301268,9.04552734 5.52723679,9.04349225 L3.87635518,9.04349225 C3.58496829,9.04349225 3.19661734,8.94687289 3.19661734,8.4940217 L3.19661734,5.10773384 C3.1977463,4.98518731 3.24953331,4.86811419 3.34054123,4.78237004 C3.43166228,4.69644758 3.554483,4.6488026 3.68206554,4.64986689 L3.77925793,4.64986689 C3.90684546,4.64880577 4.02967089,4.69644992 4.12080127,4.78237004 C4.21179512,4.86812186 4.26357381,4.98519164 4.26470613,5.10773384 L4.26470613,8.03624602 L5.52698943,8.03624602 C5.79284144,8.03404922 6.01028753,8.23899199 6.01268499,8.4940217 L6.01268499,8.58562809 L6.01268499,8.58562809 Z M7.36363636,8.48783406 C7.36363636,8.74420015 7.14636152,8.95194383 6.87843552,8.95194383 C6.6104334,8.95194383 6.39323467,8.74420015 6.39323467,8.48783406 L6.39323467,5.20552788 C6.39323467,4.94919839 6.6104334,4.7414181 6.87843552,4.7414181 C7.14636152,4.7414181 7.36363636,4.94919839 7.36363636,5.20552788 L7.36363636,8.48783406 L7.36363636,8.48783406 Z M11.6054334,8.48744962 C11.5782431,8.7310926 11.3758858,8.92247015 11.1222304,8.9444198 C10.8938555,8.98195765 10.6656744,8.87698582 10.5526617,8.68239696 L8.99569979,6.58182059 L8.99569979,8.48691872 C8.98942072,8.73923905 8.77503805,8.94061202 8.51263002,8.94061202 C8.25033615,8.94061202 8.03585835,8.73923905 8.02959831,8.48691872 L8.02959831,5.19809538 C8.03067608,5.07591485 8.08217618,4.95915456 8.1727611,4.87351877 C8.26332079,4.78787483 8.38553657,4.74035588 8.51251586,4.74140067 C8.74665342,4.74277974 8.95939735,4.87273728 9.06027907,5.07602675 C9.21010148,5.28880475 10.640055,7.20669922 10.640055,7.20669922 L10.640055,5.19809538 C10.6465433,4.94577505 10.8610402,4.74447531 11.1234292,4.74447531 C11.3858182,4.74447531 11.600296,4.94577505 11.6067844,5.19811369 L11.6067844,8.48690042 L11.6054524,8.48744962 L11.6054334,8.48744962 Z M14.5249345,6.38888698 C14.6952114,6.38888698 14.8525307,6.4761547 14.9376786,6.61777482 C15.0228325,6.75938286 15.0228325,6.93397907 14.9376786,7.07558711 C14.8524156,7.21728731 14.6951142,7.30451902 14.5249345,7.30447495 L13.2640973,7.30447495 L13.2640973,8.03652062 L14.5248584,8.03652062 C14.6976623,8.03259347 14.8591407,8.11895954 14.9468879,8.26224141 C15.0345748,8.40539049 15.0345748,8.58305565 14.9468879,8.72620473 C14.8591087,8.86944148 14.6976377,8.95576153 14.5248584,8.95181568 L12.6338499,8.95181568 C12.5190112,8.95313784 12.408345,8.91044301 12.3262706,8.83315209 C12.2442368,8.7560383 12.1975695,8.65062298 12.1966173,8.54028256 L12.1966173,5.15337228 C12.1975119,5.04297075 12.2441523,4.93747536 12.3261945,4.86028307 C12.4082904,4.78296969 12.5189791,4.74025037 12.6338499,4.74154625 L14.5249345,4.74154625 C14.6977088,4.73761999 14.8591702,4.82393491 14.9469641,4.9671572 C15.0345768,5.11033225 15.0345768,5.28796378 14.9469641,5.43113883 C14.859171,5.5743732 14.6977204,5.66071738 14.5249345,5.65684132 L13.2640973,5.65684132 L13.2640973,6.38917989 L14.5248584,6.38917989 L14.5249345,6.38888698 L14.5249345,6.38888698 Z"></path>
                </g>
            </g>
        </g>
    </g>
</svg>