<?xml version="1.0" encoding="UTF-8"?>
<svg width="40px" height="40px" viewBox="0 0 40 40" version="1.1" xmlns="http://www.w3.org/2000/svg" xmlns:xlink="http://www.w3.org/1999/xlink">
    <title>编组 2</title>
    <defs>
        <rect id="path-1" x="0" y="0" width="40" height="40" rx="20"></rect>
    </defs>
    <g id="首页确认" stroke="none" stroke-width="1" fill="none" fill-rule="evenodd">
        <g id="04H5-入札履歴" transform="translate(-22.000000, -570.000000)">
            <g id="编组-2" transform="translate(22.000000, 570.000000)">
                <mask id="mask-2" fill="white">
                    <use xlink:href="#path-1"></use>
                </mask>
                <use id="path-1" fill="#0E7868" xlink:href="#path-1"></use>
                <g id="店铺" mask="url(#mask-2)">
                    <g transform="translate(9.514648, 9.514648)" id="形状">
                        <path d="M20.409375,6.62437501 L20.409375,6.57843751 C20.409375,6.53250001 20.38875,6.48656251 20.3671875,6.44062501 L18.9703125,1.60968749 C18.64875,0.620624995 17.7890625,0 16.693125,0 L3.97499999,0 C2.90062499,0 2.08406248,0.598124995 1.783125,1.56375 L0.23625,6.51000001 C0.23625,6.53250001 0.214687507,6.57843751 0.214687485,6.62437501 C0.0656249852,7.08375001 0,7.56750001 0,8.05031251 C0,9.72937501 0.450937507,11.086875 1.846875,11.86875 C2.4065625,12.19125 3.09375,12.375 3.84562499,12.375 C5.11312496,12.375 6.29531251,11.776875 7.08937501,10.7653125 C7.88437501,11.7778125 9.04593751,12.375 10.3125,12.375 C11.559375,12.375 12.740625,11.776875 13.5140625,10.7653125 C14.308125,11.7778125 15.4903125,12.375 16.7578125,12.375 C17.53125,12.375 18.2184375,12.19125 18.79875,11.86875 C20.175,11.0409375 20.625,9.70687501 20.625,8.02781251 C20.625,7.54500001 20.5603125,7.06218746 20.409375,6.62437501 Z M19.6875,13.965 C19.6875,13.50375 19.33875,13.1353125 18.90375,13.1353125 C18.8165625,13.1353125 18.7509375,13.15875 18.6853125,13.1821875 C18.0919517,13.425857 17.4543665,13.5433489 16.813125,13.5271875 C15.571875,13.4578125 14.6353125,13.2046875 13.7203125,12.375 C12.8318232,13.1851321 11.6787469,13.6440298 10.4765625,13.6659375 C9.25593751,13.6659375 8.10187501,13.3190625 7.20937501,12.5128125 C6.29437496,13.3190625 5.14031251,13.734375 3.920625,13.734375 C3.17999999,13.734375 2.745,13.573125 2.07,13.32 C2.04843751,13.32 2.02593751,13.2965625 2.00437499,13.2965625 C1.96124999,13.2740625 1.91718749,13.2740625 1.895625,13.250625 C1.895625,13.250625 1.78687501,13.228125 1.72125,13.228125 C1.28625001,13.228125 0.937499985,13.5965625 0.937499985,14.056875 L0.937499985,18.5053125 C0.937499985,19.68 1.83,20.625 2.94093749,20.625 L17.6840625,20.625 C18.795,20.625 19.6875,19.6575 19.6875,18.5053125 L19.6875,13.965 Z" fill="#F5F5F5" fill-rule="nonzero"></path>
                    </g>
                </g>
            </g>
        </g>
    </g>
</svg>