<?xml version="1.0" encoding="UTF-8"?>
<svg width="80px" height="80px" viewBox="0 0 80 80" version="1.1" xmlns="http://www.w3.org/2000/svg" xmlns:xlink="http://www.w3.org/1999/xlink">
    <!-- Generator: Sketch 64 (93537) - https://sketch.com -->
    <title>店铺默认头像</title>
    <desc>Created with Sketch.</desc>
    <defs>
        <rect id="path-1" x="0" y="0" width="80" height="80" rx="40"></rect>
    </defs>
    <g id="我的" stroke="none" stroke-width="1" fill="none" fill-rule="evenodd">
        <g id="画板" transform="translate(-80.000000, -358.000000)">
            <g id="店铺默认头像" transform="translate(80.000000, 358.000000)">
                <mask id="mask-2" fill="white">
                    <use xlink:href="#path-1"></use>
                </mask>
                <use id="蒙版" fill="#F5F5F5" xlink:href="#path-1"></use>
                <g id="店铺" mask="url(#mask-2)" fill="#D7D7D7" fill-rule="nonzero">
                    <g transform="translate(19.000000, 19.000000)" id="形状">
                        <path d="M40.8480469,13.2780469 L40.8480469,13.1861719 C40.8480469,13.0942969 40.8067969,13.0024219 40.7636719,12.9105469 L37.9699219,3.24867186 C37.3267969,1.27054688 35.6074219,0.0292968896 33.4155469,0.0292968896 L7.97929686,0.0292968896 C5.83054686,0.0292968896 4.19742185,1.22554688 3.59554689,3.15679689 L0.50179689,13.0492969 C0.50179689,13.0942969 0.458671904,13.1861719 0.45867186,13.2780469 C0.16054686,14.1967969 0.0292968896,15.1642969 0.0292968896,16.1299219 C0.0292968896,19.4880469 0.931171904,22.2030468 3.72304688,23.7667969 C4.84242188,24.4117969 6.21679689,24.7792969 7.72054686,24.7792969 C10.2555468,24.7792969 12.6199219,23.5830469 14.2080469,21.5599219 C15.7980469,23.5849219 18.1211719,24.7792969 20.6542969,24.7792969 C23.1480469,24.7792969 25.5105469,23.5830469 27.0574219,21.5599219 C28.6455469,23.5849219 31.0099219,24.7792969 33.5449219,24.7792969 C35.0917969,24.7792969 36.4661719,24.4117969 37.6267969,23.7667969 C40.3792969,22.1111719 41.2792969,19.4430469 41.2792969,16.0849219 C41.2792969,15.1192969 41.1499219,14.1536718 40.8480469,13.2780469 Z M39.4042969,27.9592969 C39.4042969,27.0367969 38.7067969,26.2999219 37.8367969,26.2999219 C37.6624219,26.2999219 37.5311718,26.3467969 37.3999219,26.3936719 C36.2132003,26.8810108 34.9380299,27.1159946 33.6555469,27.0836719 C31.1730469,26.9449219 29.2999219,26.4386719 27.4699219,24.7792969 C25.6929433,26.3995611 23.3867906,27.3173565 20.9824219,27.3611719 C18.5411719,27.3611719 16.2330469,26.6674219 14.4480469,25.0549219 C12.6180468,26.6674219 10.3099219,27.4980469 7.87054689,27.4980469 C6.38929687,27.4980469 5.51929689,27.1755468 4.16929689,26.6692969 C4.1261719,26.6692969 4.0811719,26.6224219 4.03804687,26.6224219 C3.95179686,26.5774219 3.86367187,26.5774219 3.82054689,26.5305469 C3.82054689,26.5305469 3.6030469,26.4855469 3.47179689,26.4855469 C2.6017969,26.4855469 1.90429686,27.2224219 1.90429686,28.1430469 L1.90429686,37.0399219 C1.90429686,39.3892969 3.68929688,41.2792969 5.91117187,41.2792969 L35.3974219,41.2792969 C37.6192969,41.2792969 39.4042969,39.3442969 39.4042969,37.0399219 L39.4042969,27.9592969 Z"></path>
                    </g>
                </g>
            </g>
        </g>
    </g>
</svg>