<?xml version="1.0" encoding="UTF-8"?>
<svg width="35px" height="34px" viewBox="0 0 35 34" version="1.1" xmlns="http://www.w3.org/2000/svg" xmlns:xlink="http://www.w3.org/1999/xlink">
    <title>shop.333a348</title>
    <defs>
        <rect id="path-1" x="0" y="0" width="34" height="34" rx="17"></rect>
    </defs>
    <g id="首页确认" stroke="none" stroke-width="1" fill="none" fill-rule="evenodd">
        <g id="01home-green备份" transform="translate(-608.000000, -2270.000000)">
            <g id="shop.333a348" transform="translate(608.751397, 2270.000000)">
                <g id="蒙版" fill="#F5F5F5" fill-rule="nonzero">
                    <rect id="path-1" x="0" y="0" width="34" height="34" rx="17"></rect>
                </g>
                <g id="编组">
                    <mask id="mask-2" fill="white">
                        <use xlink:href="#path-1"></use>
                    </mask>
                    <use id="path-1" fill="#0E7868" xlink:href="#path-1"></use>
                    <g id="店铺" mask="url(#mask-2)">
                        <g transform="translate(8.087451, 8.087451)" id="形状">
                            <path d="M17.3479688,5.63071875 L17.3479688,5.59167188 C17.3479688,5.552625 17.3304375,5.51357813 17.3121094,5.47453125 L16.1247656,1.36823436 C15.8514375,0.527531246 15.1207031,0 14.1891563,0 L3.37874999,0 C2.46553124,0 1.77145311,0.508406246 1.51565625,1.3291875 L0.2008125,5.5335 C0.2008125,5.552625 0.182484381,5.59167188 0.182484362,5.63071875 C0.0557812374,6.0211875 0,6.432375 0,6.84276563 C0,8.26996875 0.383296881,9.42384371 1.56984375,10.0884375 C2.04557812,10.3625625 2.6296875,10.51875 3.26878124,10.51875 C4.34615621,10.51875 5.35101563,10.0103438 6.02596875,9.15051563 C6.70171875,10.0111406 7.68904688,10.51875 8.765625,10.51875 C9.82546875,10.51875 10.8295313,10.0103438 11.4869531,9.15051563 C12.1619063,10.0111406 13.1667656,10.51875 14.2441406,10.51875 C14.9015625,10.51875 15.4856719,10.3625625 15.9789375,10.0884375 C17.14875,9.38479688 17.53125,8.25084375 17.53125,6.82364063 C17.53125,6.41325 17.4762656,6.00285934 17.3479688,5.63071875 Z M16.734375,11.87025 C16.734375,11.4781875 16.4379375,11.1650156 16.0681875,11.1650156 C15.9940781,11.1650156 15.9382968,11.1849375 15.8825156,11.2048594 C15.3781589,11.4119784 14.8362115,11.5118465 14.2911563,11.4981094 C13.2360938,11.4391406 12.4400156,11.2239844 11.6622656,10.51875 C10.9070497,11.2073623 9.92693483,11.5974253 8.90507813,11.6160469 C7.86754688,11.6160469 6.88659375,11.3212031 6.12796875,10.6358906 C5.35021871,11.3212031 4.36926563,11.6742188 3.33253125,11.6742188 C2.70299999,11.6742188 2.33325,11.5371562 1.7595,11.322 C1.74117188,11.322 1.72204688,11.3020781 1.70371874,11.3020781 C1.66706249,11.2829531 1.62960937,11.2829531 1.61128125,11.2630313 C1.61128125,11.2630313 1.51884375,11.2439063 1.4630625,11.2439063 C1.0933125,11.2439063 0.796874987,11.5570781 0.796874987,11.9483438 L0.796874987,15.7295156 C0.796874987,16.728 1.5555,17.53125 2.49979687,17.53125 L15.0314531,17.53125 C15.97575,17.53125 16.734375,16.708875 16.734375,15.7295156 L16.734375,11.87025 Z" fill="#F5F5F5" fill-rule="nonzero"></path>
                        </g>
                    </g>
                </g>
            </g>
        </g>
    </g>
</svg>