<?xml version="1.0" encoding="UTF-8"?>
<svg width="24px" height="24px" viewBox="0 0 24 24" version="1.1" xmlns="http://www.w3.org/2000/svg" xmlns:xlink="http://www.w3.org/1999/xlink">
    <!-- Generator: Sketch 64 (93537) - https://sketch.com -->
    <title>搜索</title>
    <desc>Created with Sketch.</desc>
    <g id="首页确认" stroke="none" stroke-width="1" fill="none" fill-rule="evenodd">
        <g id="画板" transform="translate(-935.000000, -955.000000)" fill="#0E7868" fill-rule="nonzero">
            <g id="搜索" transform="translate(935.000000, 955.000000)">
                <path d="M9.500764,19.0056109 C11.7447864,19.0056109 13.8670104,18.2335678 15.5694539,16.8164479 L21.6977221,22.9435176 C21.868759,23.114521 22.0941815,23.2 22.3196268,23.2 C22.5450721,23.2 22.7704947,23.1144983 22.9415316,22.9435176 C23.2861561,22.5989604 23.2861561,22.0419355 22.9415316,21.6999741 L16.8158597,15.5703086 C19.9149527,11.8396553 19.7180212,6.27735239 16.2224459,2.78243797 C14.4267179,0.989656878 12.0401951,0 9.500764,0 C6.96135566,0 4.57483289,0.989656878 2.77908206,2.78243797 C-0.926360688,6.48720163 -0.926360688,12.5158362 2.77908206,16.2205771 C4.57742919,18.0185498 6.96395195,19.0055881 9.500764,19.0055881 L9.500764,19.0056109 Z M4.02548787,4.02857726 C5.48952731,2.56741991 7.43297112,1.76169991 9.500764,1.76169991 C11.5685797,1.76169991 13.514597,2.56741991 14.9760629,4.02860003 C17.9948529,7.04677685 17.9948529,11.961407 14.9760629,14.9796066 C13.5120007,16.440764 11.5685797,17.2465068 9.500764,17.2465068 C7.43294835,17.2465068 5.48952731,16.4407867 4.02548787,14.9796066 C1.00669793,11.9588112 1.00669793,7.04679962 4.02548787,4.02860003 L4.02548787,4.02857726 Z" id="形状"></path>
            </g>
        </g>
    </g>
</svg>