<?xml version="1.0" encoding="UTF-8"?>
<svg width="111px" height="111px" viewBox="0 0 111 111" version="1.1" xmlns="http://www.w3.org/2000/svg" xmlns:xlink="http://www.w3.org/1999/xlink">
    <!-- Generator: Sketch 64 (93537) - https://sketch.com -->
    <title>成功</title>
    <desc>Created with Sketch.</desc>
    <g id="注册登录" stroke="none" stroke-width="1" fill="none" fill-rule="evenodd">
        <g id="画板" transform="translate(-210.000000, -97.000000)" fill="#00B464" fill-rule="nonzero">
            <g id="成功" transform="translate(210.000000, 97.000000)">
                <path d="M55.5,0.032 C86.132,0.032 110.968,24.868 110.968,55.5 C110.968,86.132 86.132,110.968 55.5,110.968 C24.868,110.968 0.032,86.132 0.032,55.5 C0.032,24.868 24.868,0.032 55.5,0.032 Z M84.076,40.512 C82.3190947,38.7572797 79.4729053,38.7572797 77.716,40.512 L51.196,67.032 L35.288,51.12 C33.5306299,49.36263 30.6813701,49.3626301 28.9240001,51.1200001 C27.1666301,52.8773701 27.16663,55.7266299 28.924,57.484 L48.016,76.576 L48.38,76.904 C50.148,78.328 52.74,78.216 54.38,76.576 L84.076,46.88 C85.836,45.12 85.836,42.272 84.076,40.516 L84.076,40.512 Z" id="形状"></path>
            </g>
        </g>
    </g>
</svg>