<?xml version="1.0" encoding="UTF-8"?>
<svg width="17px" height="16px" viewBox="0 0 17 16" version="1.1" xmlns="http://www.w3.org/2000/svg" xmlns:xlink="http://www.w3.org/1999/xlink">
    <!-- Generator: Sketch 64 (93537) - https://sketch.com -->
    <title>未点赞</title>
    <desc>Created with Sketch.</desc>
    <g id="首页确认" stroke="none" stroke-width="1" fill="none" fill-rule="evenodd">
        <g id="画板" transform="translate(-840.000000, -1151.000000)" fill-rule="nonzero" stroke="#969190" stroke-width="2">
            <g id="未点赞" transform="translate(840.000000, 1151.000000)">
                <path d="M11.8525272,1 C10.8754253,1 9.89976853,1.35032537 9.11879763,1.96533291 C8.8940969,2.14228272 8.68691781,2.34003716 8.5003225,2.55460016 C8.31356365,2.34017682 8.10630076,2.14237534 7.8815196,1.96540411 C7.10026918,1.35032211 6.12408347,1 5.14639556,1 C3.98521628,1 2.94803658,1.45715952 2.20236644,2.21180624 C1.45237471,2.97082656 1,4.02706442 1,5.20834921 C1,8.09380373 3.33942155,10.2416078 6.40691779,13.0191446 C7.12261517,13.6665007 7.81488567,14.3285893 8.5319372,14.9865305 C9.18997686,14.3236974 9.88261816,13.6618288 10.5921181,13.0195924 C13.6594711,10.2412114 16,8.09336785 16,5.20834921 C16,4.027092 15.5475155,2.97089379 14.7973894,2.21189636 C14.0514983,1.45718393 13.0140125,1 11.8525272,1 Z" id="路径"></path>
            </g>
        </g>
    </g>
</svg>