<?xml version="1.0" standalone="no"?><!DOCTYPE svg PUBLIC "-//W3C//DTD SVG 1.1//EN" "http://www.w3.org/Graphics/SVG/1.1/DTD/svg11.dtd"><svg t="1632114785170" class="icon" viewBox="0 0 1024 1024" version="1.1" xmlns="http://www.w3.org/2000/svg" p-id="2609" width="14" height="14" data-spm-anchor-id="a313x.7781069.0.i8" xmlns:xlink="http://www.w3.org/1999/xlink"><defs><style type="text/css"></style></defs><path d="M511.9 819c-21.7 0-43.4-8.3-59.9-24.8-33.1-33.1-33.1-86.7 0-119.8l363.5-344.7c33.1-33.1 86.7-33.1 119.8 0s33.1 86.7 0 119.8L571.7 794.2c-16.5 16.6-38.2 24.8-59.8 24.8z" fill="#000000" p-id="2610"></path><path d="M512.1 819c21.7 0 43.4-8.3 59.9-24.8 33.1-33.1 33.1-86.7 0-119.8L208.5 329.8c-33.1-33.1-86.7-33.1-119.8 0s-33.1 86.7 0 119.8l363.5 344.7c16.6 16.5 38.3 24.7 59.9 24.7z" fill="#000000" p-id="2611"></path></svg>