<?xml version="1.0" encoding="UTF-8"?>
<svg width="17px" height="16px" viewBox="0 0 17 16" version="1.1" xmlns="http://www.w3.org/2000/svg" xmlns:xlink="http://www.w3.org/1999/xlink">
    <!-- Generator: Sketch 64 (93537) - https://sketch.com -->
    <title>已点赞</title>
    <desc>Created with Sketch.</desc>
    <g id="首页确认" stroke="none" stroke-width="1" fill="none" fill-rule="evenodd" fill-opacity="0.968878046">
        <g id="画板" transform="translate(-878.000000, -1151.000000)" fill="#FF5B98" fill-rule="nonzero">
            <path d="M886.500113,1167 C886.217635,1167 885.952544,1166.88908 885.754379,1166.68751 C885.1173,1166.0453 884.438187,1165.39581 883.735714,1164.76042 C880.377102,1161.71928 878,1159.32502 878,1156.20835 C878,1153.28802 880.260357,1151 883.146396,1151 C884.344311,1151 885.54217,1151.4255 886.500113,1152.17969 C887.45783,1151.4255 888.655197,1151 889.852527,1151 C892.739095,1151 895,1153.288 895,1156.20835 C895,1159.32447 892.621859,1161.71873 889.263208,1164.76097 C888.56701,1165.39116 887.88735,1166.04062 887.244072,1166.68857 C887.045887,1166.88961 886.781288,1167 886.500113,1167 L886.500113,1167 Z" id="已点赞"></path>
        </g>
    </g>
</svg>