<?xml version="1.0" encoding="UTF-8"?>
<svg width="115px" height="34px" viewBox="0 0 115 34" version="1.1" xmlns="http://www.w3.org/2000/svg" xmlns:xlink="http://www.w3.org/1999/xlink">
    <title>编组</title>
    <g id="控件" stroke="none" stroke-width="1" fill="none" fill-rule="evenodd">
        <g id="h5-top" transform="translate(-11.000000, -8.000000)" fill-rule="nonzero">
            <g id="编组" transform="translate(11.392270, 8.000000)">
                <g id="编组-20">
                    <path d="M7.64376902,32.6798779 C5.40260448,31.8352545 3.59103288,30.4197822 2.30953528,28.4130734 C0.499419928,25.5748475 -0.0990976991,22.4075097 0.0130333405,19.0799847 C0.148464336,18.121774 0.227101689,17.1577383 0.595532247,16.2388463 C1.30058568,14.4061254 2.49668096,12.8029345 4.05266326,11.6050675 C5.37930452,10.547832 6.95642031,10.017758 8.53207985,9.49205269 C9.0417664,9.32167176 9.52087175,9.0333348 10.0829832,9.04048075 C10.3553014,9.11634089 10.6465509,9.12216588 10.8882879,9.30419679 C11.2406998,9.56923379 11.4343807,9.86922073 11.1795374,10.3046387 C10.9013942,10.7051067 10.4514138,10.8958751 10.0888082,11.1914932 C9.54084234,11.6144396 9.09658126,12.1568167 8.78983562,12.7773465 C8.67333584,13.0263648 8.54227359,13.3176143 8.81896057,13.5200326 C9.09564755,13.722451 9.37670327,13.6088637 9.62863405,13.4297453 C9.79173374,13.3147018 9.9198835,13.1603396 10.0742457,13.0292773 C10.2940184,12.8118389 10.5529242,12.6379175 10.8373193,12.5166783 C11.1445875,12.4074597 11.4547681,12.3987222 11.6994177,12.6521093 C11.9440672,12.9054963 11.9003798,13.1909207 11.7809675,13.469064 C11.4736993,14.1797126 10.9174129,14.7199804 10.470345,15.330148 C10.1790955,15.724791 9.87910858,16.1165215 9.72329012,16.5868894 C9.52524049,17.185407 9.78299626,17.4824814 10.3946201,17.3295755 C11.2028373,17.1286134 11.9877546,16.8344514 12.8221843,16.7339703 C13.6056453,16.6407705 14.3789126,16.6189268 15.1361612,16.8912451 C15.9531159,17.1824945 16.3448464,17.7460622 16.3929026,18.6096168 C16.4613462,19.8008271 15.9560284,20.7939877 15.3633358,21.7667609 C14.7447406,22.7510902 14.0184514,23.6634696 13.1978961,24.4870308 C12.161048,25.5559163 11.0761438,26.5767456 10.0494895,27.6543686 C9.07526009,28.6737417 8.29034281,29.8227208 7.96851216,31.2338244 C7.9121889,31.50003 7.88388059,31.7713992 7.88404982,32.0434979 C7.86657485,32.2794099 7.87385609,32.5226032 7.64376902,32.6798779 Z" id="路径" fill="#DC271D"></path>
                    <path d="M7.64376902,32.6798779 C7.45300063,30.4168697 8.66314211,28.7844165 10.0902644,27.2495319 C11.360112,25.8777469 12.7828656,24.653043 13.9959196,23.2244644 C14.9308303,22.1249977 15.7550663,20.9541749 16.0987407,19.5197714 C16.47154,17.9615868 15.8176849,17.055801 14.2143567,16.9116325 C13.1469274,16.8169764 12.1188169,17.0237636 11.1081813,17.3557879 C10.7856483,17.4760343 10.4526938,17.5662196 10.1135644,17.6251937 C9.5995091,17.6936373 9.32719086,17.3994753 9.37379077,16.8810513 C9.41893444,16.3888397 9.69562142,15.995653 9.96939591,15.6155724 C10.4062701,15.0112298 10.8970254,14.4505746 11.3164246,13.8360383 C11.5334055,13.5200326 11.9615422,13.1239334 11.5290367,12.7438528 C11.0965313,12.3637723 10.7324695,12.7671528 10.4033576,13.0554898 C10.1543827,13.2932077 9.89233625,13.5168466 9.61844032,13.7253635 C9.27767846,13.9598193 8.89031668,13.9962255 8.5612048,13.7064323 C8.26995535,13.4428515 8.38791137,13.0948084 8.51751738,12.7962777 C8.93254785,11.8482608 9.651934,11.1681933 10.5009262,10.6119068 C10.6800446,10.4939508 10.8562505,10.3687135 11.0339127,10.2463888 C12.0125108,9.44836527 13.1658587,9.34351547 14.3585252,9.42652156 C15.5963866,9.51074877 16.7772611,9.9785176 17.7370188,10.7648128 C18.5832859,11.454354 19.2540254,12.3346996 19.6942152,13.333633 C20.5606823,15.2267544 20.8024193,17.2159882 20.5854385,19.2722093 C20.2184642,22.2851849 18.7360045,24.8394426 17.2520885,27.3951566 C16.6987145,28.3489986 16.1482531,29.3042968 15.8074912,30.3673573 C15.3065421,31.9313668 16.2705778,32.6973529 17.496738,32.9055963 C17.9587712,32.9978817 18.4295073,33.0393886 18.9005604,33.0293773 C19.1175412,33.0177273 19.3374346,33.0293773 19.4917968,33.2274269 C15.5788604,34.264275 11.7037864,34.2468 7.87968108,32.8094839 C7.79813959,32.7717926 7.71931278,32.7284865 7.64376902,32.6798779 L7.64376902,32.6798779 Z" id="路径" fill="#FFFFFF"></path>
                    <path d="M19.4917968,33.2245144 C18.856873,33.2084957 18.2219492,33.2536393 17.5884816,33.163352 C15.7186601,32.8954025 15.0269427,31.7435109 15.6778852,29.9814517 C16.0584956,29.0176551 16.5279753,28.0913712 17.0802513,27.2145819 C18.5670798,24.7302241 19.9257585,22.1948976 20.4004951,19.2882281 C20.6669883,19.1091096 20.8577567,19.2882281 21.0208564,19.4498715 C22.3955538,20.795444 23.754718,22.1546081 25.0983488,23.5273639 C25.3517358,23.7865759 25.3794045,24.1098628 25.3619295,24.4375184 C25.3460257,24.5762115 25.2959923,24.7088001 25.2163048,24.8234239 C24.7794306,25.4685415 24.2551816,26.0466716 23.8459761,26.7019829 C23.0697963,27.9456181 23.6552077,28.9431474 25.123105,28.9882911 C25.8847749,28.9889281 26.6392091,28.8405148 27.3438821,28.5514169 C27.7428938,28.4057922 28.2001554,28.3795797 28.5234423,28.0460991 C28.7826544,27.9194056 29.0243914,27.7548497 29.2967096,27.6514561 C29.4860218,27.5801 29.6724214,27.5058314 29.8500836,27.6718436 C28.0676369,29.6159337 25.918216,31.0022811 23.4629831,31.9532105 C22.166923,32.4687221 20.8621255,32.9463712 19.4917968,33.2245144 Z" id="路径" fill="#DC271D"></path>
                    <path d="M34.1270818,8.72024164 C33.3232333,9.57360254 32.4917161,10.4022072 31.8480549,11.3939116 C31.2437122,12.3259099 30.7369382,13.2943143 30.6204384,14.4229059 C30.4748137,15.9024532 31.1708999,16.8373639 32.6417096,17.1082259 C32.5543348,17.5116064 32.2237666,17.444619 31.9558171,17.4358815 C30.9073191,17.4053003 29.8966835,16.6101893 29.5821341,15.5937287 C29.2675847,14.5772681 29.2603035,13.7675947 29.5369904,12.5865781 C29.506387,12.6925207 29.427579,12.7778061 29.3243783,12.8166652 C29.0695351,12.8705463 28.9224541,12.6987092 28.7710044,12.5472595 C28.3516052,12.1278602 27.9249247,11.7128298 27.514263,11.2861493 C27.0104014,10.7619003 26.9972952,10.648313 27.3220383,9.97552678 C27.3773757,9.86193949 27.3992195,9.73670223 27.4545568,9.62165869 C27.9627871,9.03915979 28.4957736,8.48141708 29.3782595,8.18288639 C28.8991541,8.37802353 28.5307236,8.46394212 28.1389931,8.36637355 C28.002776,8.3243484 27.8606484,8.30467677 27.7181376,8.30812366 C27.2637885,8.29938618 26.8443892,8.22366132 26.5327523,7.81736833 C26.3256972,7.56699078 26.0594022,7.37227509 25.7580288,7.25088814 C25.5497854,7.15477582 25.3211546,7.07468222 25.2672735,6.80090774 C25.3328046,6.49946455 25.5920166,6.42665219 25.8293849,6.36403356 C26.4219421,6.19666713 27.0004032,5.9829092 27.5594066,5.72474101 C27.6589845,5.67971545 27.7643693,5.64883526 27.8724998,5.63299743 C28.0923931,5.5980475 28.3224802,5.57911628 28.4797549,5.76551593 C28.6370296,5.95191558 28.5278111,6.17909015 28.4185925,6.36694605 C28.2729678,6.61742058 28.1273431,6.86935136 27.9686121,7.17370704 C28.5714985,6.62761431 29.2588472,6.31160866 29.9199835,5.95045933 C30.0962166,5.81787888 30.3110759,5.74677067 30.5316073,5.74804096 C31.0602251,5.80920335 31.4534118,6.09462781 31.8160174,6.4761646 C32.5659848,7.23341318 33.3246896,8.00376798 34.1270818,8.72024164 Z" id="路径" fill="#F18E28"></path>
                    <path d="M13.3114834,4.01656296 C14.5172561,3.31028304 15.7215726,2.60109062 17.0249139,2.08121034 C17.2322312,2.44157322 17.4951686,2.76692752 17.8040062,3.04524604 C19.5515029,4.79274276 21.3179309,6.54023948 23.0566901,8.30666741 C23.3479396,8.6081106 23.8212199,8.74354159 23.9450009,9.21682195 C23.8241324,9.58525251 23.4819143,9.65369613 23.1790149,9.75272095 C22.6980654,9.91139337 22.2297674,10.1061119 21.778105,10.3352199 C21.0784376,10.6359784 20.3450016,10.8511196 19.5937341,10.9759687 C18.2292304,11.2220744 17.3205321,10.3162886 17.5185817,8.96052244 C17.7035251,7.70086855 17.5331442,6.46742711 17.2011198,5.24854815 C17.0991825,4.86992386 16.9593828,4.87283636 16.7118208,5.15243583 C16.3506714,5.56018507 15.9720471,5.95482808 15.4405169,6.1528777 C14.8769492,6.28102746 14.4619187,6.03929042 14.0993132,5.63299743 C13.8459261,5.35048546 13.5517642,5.10437967 13.3042021,4.81458647 C13.0770276,4.55100571 12.9867402,4.27723122 13.3114834,4.01656296 Z" id="路径" fill="#EE752F"></path>
                    <path d="M29.2530222,12.7627841 C29.4845655,12.526872 29.5034968,12.1802851 29.7394088,11.8584545 C29.8515398,12.2749412 29.6986339,12.6186156 29.640384,12.9477275 C29.4867002,13.8224363 29.5446222,14.7212253 29.8093087,15.5689725 C30.1209456,16.6043643 31.4490431,17.5523813 32.6417096,17.1067696 C33.4738398,17.0499268 34.2814121,16.800676 35.0008302,16.378646 C35.3475921,16.1841324 35.7123881,16.0236807 36.0901031,15.8995407 C36.7861893,15.6709098 37.1415137,15.9985655 37.0119077,16.7208641 C36.8357017,17.6994623 36.3697026,18.5601044 35.8818598,19.4047278 C34.7416182,21.3793991 33.5402142,23.3147517 32.0854232,25.0840922 C31.8131049,24.7928427 32.0475607,24.5467369 32.1800792,24.3064561 C32.7625781,23.2477644 33.3814832,22.2021788 33.6363265,20.9920374 C33.7097025,20.6363215 33.6736567,20.2667246 33.5329329,19.9318893 C33.3610958,19.4950152 33.109165,19.3901654 32.6708346,19.5576338 C31.9732921,19.8226708 31.613599,20.4109947 31.3179808,21.0400935 C30.9832869,21.7630711 30.5789683,22.4517296 30.1107519,23.0963147 C29.882121,23.4050391 29.5486404,23.6060012 29.3185533,23.9118131 C29.1059412,24.0224879 28.8816792,24.1768501 28.721492,23.8491945 C28.7514825,23.4742016 28.850209,23.1079264 29.0127414,22.768659 C29.3595008,21.938007 29.5090376,21.0382941 29.4496156,20.1401327 C29.5369904,19.5576338 29.1831224,19.0974597 29.0345851,18.5848606 C28.5598485,16.9553199 28.3923801,15.3214105 28.8030418,13.6569199 C28.8845917,13.3205268 28.8976979,12.9550087 29.2530222,12.7627841 Z" id="路径" fill="#F4A254"></path>
                    <path d="M23.898401,9.16876579 C23.5328701,9.00748388 23.2039046,8.77364093 22.9314528,8.48141708 C21.0509522,6.58926647 19.165112,4.70245543 17.2739322,2.82098396 C17.0715138,2.61856559 16.8050206,2.43507843 17.0249139,2.09286032 C17.3781027,1.82780343 17.7813483,1.63707917 18.2102992,1.53220512 C18.7875608,1.33073003 19.3776969,1.16823582 19.9767271,1.04581854 C20.8067881,0.892912574 21.3878307,1.24095567 21.8101424,1.90209193 C22.1874954,2.48235053 22.3846057,3.16134218 22.3766226,3.85346327 C22.3551199,4.3779863 22.4271125,4.90215145 22.5892347,5.40145411 C22.8965029,6.27520247 23.4163832,6.63052681 24.3367314,6.661108 C24.6614746,6.67130173 25.0255364,6.46597087 25.3124171,6.78634527 C25.9225847,7.10526342 26.5749835,7.34845671 26.978364,7.98483677 C27.0934075,8.16832392 27.4399944,8.15084895 27.6861002,8.13046149 C27.8439889,8.10308139 28.0064896,8.1260047 28.150643,8.19599262 C28.150643,8.4726796 27.9234685,8.48724207 27.7341563,8.528017 C26.6579896,8.78140402 25.5614354,8.94304747 24.5027436,9.27215935 C24.3003253,9.32167176 24.0731507,9.36535918 23.898401,9.16876579 Z" id="路径" fill="#F0842B"></path>
                    <path d="M10.0509458,9.16876579 C8.7490607,9.71777101 7.37581952,10.0745516 6.0812157,10.648313 C5.39823574,10.9512124 4.79243687,11.3764367 4.16188181,11.7667109 C3.50802678,11.0808185 2.8862092,10.3628886 2.15371682,9.75563344 C2.06179333,9.68934272 2.02999807,9.56705324 2.07799197,9.46438399 C2.51208818,8.31541141 3.08682701,7.22463048 3.7890825,6.21695258 C4.06285699,5.98104053 4.2448879,5.65920988 4.51720614,5.42475407 C5.05456138,4.96749243 5.66327274,5.13350462 5.87588484,5.79609712 C5.92930649,5.94960828 5.96926145,6.10747906 5.99529711,6.26792124 C6.02128065,6.73639877 6.37292252,7.12210975 6.83700804,7.19118201 C7.3073759,7.24797565 7.74425008,7.0892447 8.19131799,6.99458862 C8.89322918,7.65135614 9.63300279,8.27026123 10.2023955,9.058091 C10.1834643,9.1410971 10.1528831,9.20808447 10.0509458,9.16876579 Z" id="路径" fill="#E94D38"></path>
                    <path d="M28.8088668,23.8768632 C28.9836165,23.9613255 29.0884663,23.8055071 29.2268098,23.7589072 C29.775815,23.4312515 29.9068772,23.4385328 30.3583139,23.863757 C30.7046603,24.1787868 31.0337647,24.5122663 31.3441933,24.8627426 C31.5582616,25.1132171 31.7519425,25.3855354 31.524768,25.736491 C31.0878938,26.4893708 30.4558825,27.0762384 29.8529961,27.6878623 C29.3840845,27.7621309 29.0491476,28.1392989 28.591886,28.2412363 C28.1870492,28.4378296 27.8521124,28.3038549 27.5725129,28.003868 C26.813808,27.2073007 26.0318033,26.4340334 25.2425172,25.6738723 C24.9512678,25.4015541 24.8901054,25.0913734 25.0968925,24.7476991 L25.2119361,24.4287809 C25.5148355,23.4836764 26.0157845,22.6172093 26.3143152,21.6619111 C26.3522767,21.519646 26.4492606,21.4004035 26.5808085,21.3342555 C26.7730331,21.2847431 26.8909892,21.4056116 26.9914702,21.5323051 C27.4137819,22.0536416 27.9132747,22.5007095 28.3821864,22.9754461 C28.6354873,23.2095407 28.7883883,23.5325635 28.8088668,23.8768632 Z" id="路径" fill="#EB5E34"></path>
                    <path d="M34.1270818,8.72024164 C33.8460261,8.75956031 33.650889,8.61830433 33.4630331,8.42899218 C32.8543217,7.8071746 32.2252229,7.20428823 31.6223365,6.57664566 C31.3150684,6.25627126 30.9961502,5.97958428 30.5490823,5.8907532 C30.5185011,5.63299743 30.706357,5.5427101 30.8913004,5.46989774 C33.1790649,4.56848068 35.5352729,3.97287554 38.0108933,3.92627563 C38.3751142,3.90775267 38.7377789,3.98561006 39.0623038,4.15199396 C39.3841345,4.32528738 39.5778153,4.56702443 39.3040409,4.93836748 C38.8875541,5.39854162 38.3603926,5.71017853 37.8346874,6.0232717 C36.5212079,6.81041637 35.2804385,7.71297137 34.1270818,8.72024164 L34.1270818,8.72024164 Z" id="路径" fill="#F5A524"></path>
                    <path d="M39.2982159,4.93254249 C39.3710282,4.51605578 39.1249224,4.35004359 38.7739669,4.264125 C37.891481,4.02821294 37.0046264,4.15199396 36.1381593,4.29324994 C34.300564,4.57497145 32.4998468,5.0594606 30.7689756,5.73784723 C30.6905854,5.77822256 30.6168488,5.82705478 30.5490823,5.88347196 L30.0000771,6.09462781 C29.0316726,6.3407336 28.5001424,5.64610366 27.9045373,5.10729217 C27.7589125,4.97768616 27.6657127,4.78254903 27.8244437,4.58013066 C29.4226855,4.05289557 31.0630432,3.6631462 32.7276282,3.41513284 C34.3295002,3.15446458 35.9517597,2.91855252 37.5914941,2.95350246 C38.1166163,2.95580961 38.6392849,3.025303 39.1467662,3.16028957 C40.1268206,3.44134529 40.2637078,3.97287554 39.5516029,4.72284289 C39.4730341,4.79957314 39.3882859,4.86970956 39.2982159,4.93254249 Z" id="路径" fill="#F6BF60"></path>
                    <path d="M10.1557956,9.05080977 C9.39272199,8.46831086 8.61508595,7.90037442 8.19277424,6.99458862 C9.93007723,6.05385289 11.5523367,4.91798002 13.3114834,4.01656296 C13.1850481,4.22633081 13.2371831,4.49768361 13.4323519,4.64566178 C13.8124324,5.0068111 14.1896005,5.37378542 14.5434686,5.75969094 C14.7881181,6.02764044 15.0895613,5.99851549 15.393917,6.00288424 C15.4900293,6.32034614 15.2482923,6.46742711 15.0560676,6.61159559 C13.8031607,7.49817524 12.4753807,8.27389111 11.0877938,8.92994124 C10.7965444,9.06974098 10.4878199,9.20225948 10.1557956,9.05080977 Z" id="路径" fill="#EC6432"></path>
                    <path d="M27.8244437,4.58595564 C28.2215175,5.32608523 28.930728,5.84809839 29.7554275,6.00725298 C29.8396555,6.03077375 29.9215485,6.06197106 30.0000771,6.1004528 C29.1889473,6.56499568 28.3632551,7.0062386 27.6060066,7.76931217 C27.6628002,7.13730086 27.9482247,6.76158906 28.168118,6.35529607 C28.2569491,6.19365263 28.5176174,6.03783417 28.3690801,5.84852203 C28.2438429,5.68833483 27.9831746,5.76260344 27.8069687,5.84852203 C27.0104014,6.25190252 26.1351968,6.43102093 25.3138734,6.77032655 C25.099805,6.80090774 24.8871929,6.8460514 24.6731246,6.86207012 C23.1251337,6.98439489 22.2047854,6.10627779 22.1596418,4.4519809 C22.1436231,3.85491952 22.1363418,3.26368313 21.9382922,2.68700921 C21.501418,1.42444283 20.729607,0.975918669 19.4262657,1.2540619 L18.2102992,1.5161864 C19.1375593,1.02879821 20.151213,0.727521914 21.1941498,0.629331819 C22.1276043,0.556519456 22.6751533,0.983199905 22.8251468,1.91228566 C22.9285403,2.55303446 22.9299966,3.21125822 23.0290214,3.85200702 C23.1746461,4.80876148 23.6988951,5.23252943 24.6571058,5.2470919 C25.5410479,5.25874188 26.3652839,4.97477366 27.2011698,4.7446866 C27.4079569,4.69226169 27.6162003,4.63983679 27.8244437,4.58595564 Z" id="路径" fill="#F6B25A"></path>
                    <path d="M31.524768,25.730666 C31.3063309,24.782649 30.4558825,24.3530561 29.8544523,23.722501 C29.6884402,23.5462951 29.4394219,23.7516259 29.2268098,23.7545384 C30.1005581,22.8604026 30.7150945,21.8148171 31.2378872,20.6876817 C31.5291367,20.0513016 31.9762046,19.4848214 32.7276282,19.2751218 C33.1878023,19.1469721 33.515458,19.2751218 33.6974889,19.711996 C33.8874286,20.1238039 33.9414877,20.5853459 33.8518511,21.0298998 C33.5839016,22.273535 32.9781027,23.3598954 32.3519164,24.4389746 C32.2368729,24.6399368 32.060667,24.8146864 32.0854232,25.0753547 C31.9689898,25.3453893 31.7735314,25.5738472 31.524768,25.730666 L31.524768,25.730666 Z" id="路径" fill="#ED6E31"></path>
                    <path d="M28.5598485,0.0031454941 C29.8326086,-0.0201544622 31.083525,0.214301348 32.3460914,0.323519893 C32.5534236,0.316990379 32.7394944,0.449983293 32.8004406,0.648263034 C32.8586905,0.846312662 32.7451032,0.997762378 32.6125847,1.12882463 C32.3612288,1.37521693 32.007549,1.48716144 31.660199,1.43026782 C30.9626565,1.34580547 30.3495764,1.53366137 29.7379526,1.867142 C28.8525481,2.36899814 27.8737408,2.68419889 26.8618642,2.79331526 C25.9750096,2.88360259 25.6094916,2.48167834 25.7740475,1.59773625 C25.9178566,0.703025269 26.6755407,0.0357015885 27.5812504,0.00605798863 C27.9074497,-0.00559198951 28.2336491,0.0031454941 28.5598485,0.0031454941 Z" id="路径" fill="#F49E25"></path>
                    <path d="M2.07362322,9.46001525 C2.72747825,9.88523945 3.22697106,10.4793883 3.78034502,11.0138311 C3.99295712,11.2206182 4.16333805,11.4507053 4.15751306,11.7608859 C1.91489227,13.5622638 0.637763418,15.9242969 0.132445616,18.7290291 C0.10914566,18.8528101 0.116426896,18.9838724 0.0130333405,19.0785284 C-0.0757977429,16.7354266 0.378551405,14.4695058 1.0222127,12.2341663 C1.29598718,11.2890618 1.5799554,10.3337636 2.07362322,9.46001525 Z" id="路径" fill="#E83D3D"></path>
                    <path d="M34.1183443,12.0361167 C34.0848507,11.1478058 34.4692999,10.507057 35.2571297,10.100764 C36.2371841,9.59399 37.214326,9.08139096 38.1943804,8.57316066 C38.5482485,8.38821726 38.9501728,8.22803006 39.2137535,8.63432305 C39.4584031,9.01149109 39.2414222,9.37409666 38.9108541,9.62020245 C38.0516682,10.2565825 37.4182006,11.0895559 36.8153143,11.9501981 C36.5092808,12.4014626 36.1167712,12.7875377 35.6605102,13.0860709 C34.7867618,13.6467261 34.2042629,13.3496517 34.1299943,12.3040662 C34.1241693,12.2166913 34.1212568,12.126404 34.1183443,12.0361167 Z" id="路径" fill="#F39927"></path>
                    <path d="M11.8377612,1.09969969 C12.1741543,1.13319337 12.4712287,1.09969969 12.5542348,1.4637615 C12.6314159,1.79287339 12.5090911,2.01567922 12.2222104,2.19188514 C11.6230073,2.5733238 11.0832571,3.04094377 10.6203384,3.57968878 C10.2868578,3.94957559 9.8922148,4.2117001 9.37233453,4.01656296 C8.94899067,3.86104659 8.66141427,3.46534145 8.64421089,3.01466484 C8.59271701,2.52449081 8.85918703,2.0559721 9.3068034,1.84966703 C10.0972865,1.44648448 10.955235,1.19225922 11.8377612,1.09969969 Z" id="路径" fill="#EC6932"></path>
                    <path d="M6.83846428,7.19118201 C6.17878427,7.17225079 5.95015345,6.99167613 5.77977252,6.35529607 C5.45357313,5.14369835 5.13465498,5.05923601 4.17790053,5.93589686 C4.07572786,6.0620009 3.94211838,6.15894312 3.79053875,6.21695258 C4.35732178,5.24910673 5.03465038,4.35040017 5.80889746,3.53891386 C5.92685349,3.41222035 6.07684696,3.22727694 6.26470286,3.31610803 C6.45255876,3.40493911 6.38848388,3.62774494 6.37246516,3.80249461 C6.31421527,4.46799962 6.22684043,5.13204837 6.19917173,5.79900962 C6.17004679,6.35966482 6.28363407,6.88537008 6.83846428,7.19118201 Z" id="路径" fill="#EF8753"></path>
                    <path d="M10.1557956,9.05080977 C11.930961,8.40423598 13.5051643,7.39942536 15.0648051,6.35529607 C15.1875882,6.25075934 15.2980099,6.1325201 15.393917,6.00288424 C15.9342318,5.63790386 16.4101153,5.18564236 16.8021081,4.664593 C17.0205452,4.35295608 17.1676261,4.39373101 17.2841259,4.76653031 C17.7297376,6.19365263 17.9758434,7.63679367 17.7108064,9.13527211 C17.5185817,10.2274576 18.4170863,11.0211123 19.5820841,10.7531628 C20.3014703,10.5886069 21.0048377,10.3526948 21.7154864,10.1488202 C22.0800777,10.1076193 22.4417622,10.2473981 22.6838908,10.5230758 C23.1775586,11.0254811 23.7032639,11.5031302 24.1998442,11.9953417 C24.6367184,12.4322159 24.8027306,12.8690901 24.6236122,13.451589 C24.5762102,13.6771159 24.4905073,13.8928508 24.3702251,14.0894253 C23.8911198,14.8932738 23.6755952,15.7917784 23.4790018,16.6902829 C23.3028402,17.433998 23.2998509,18.208238 23.4702643,18.9532912 C23.7221951,20.000333 24.4896374,20.6090443 25.618229,20.1663452 C25.8206474,20.0877078 26.0216095,20.0032455 26.2254842,19.9289769 C26.6623583,19.7673334 26.9142891,19.9173269 26.9273953,20.365851 C26.9375891,20.7226316 26.9273953,21.0939747 26.6244959,21.3677492 C26.2618903,22.4351784 25.9648159,23.5346451 25.2090236,24.4258684 C25.2430153,24.1357153 25.1383373,23.8465018 24.9265116,23.6453199 C23.5605517,22.2968349 22.2076979,20.9352437 20.8490192,19.5794775 C20.7401912,19.4307767 20.5806075,19.3271509 20.4004951,19.2882281 C20.5461198,17.4184066 20.3538952,15.5966412 19.6621777,13.8389508 C18.5932922,11.1274184 16.2836841,9.52409013 13.6041891,9.62457119 C12.7013158,9.65952112 11.8799923,9.99008925 11.0339127,10.2405638 C11.2843872,9.81388333 10.9989627,9.61000872 10.6829571,9.43817154 C10.4805387,9.32749675 10.2591891,9.25177189 10.046577,9.16148456 L10.1557956,9.05080977 Z" id="路径" fill="#E13F1E"></path>
                    <path d="M8.61508595,15.7058598 C8.25248038,16.3815585 7.67143772,16.9669699 8.07190572,17.7999433 C8.25248038,18.1741989 8.68061708,18.2586612 9.43349691,18.1436177 C8.46946122,19.5518088 8.49421743,21.1755245 8.29762404,22.7453591 C8.23063667,23.2666956 8.17529927,23.7894884 8.09083693,24.3079124 C8.04569327,24.5845994 8.04860576,24.9806986 7.72823136,25.036036 C7.36708204,25.0957422 7.25349475,24.6909054 7.11660751,24.4331497 C6.68992706,23.6293012 6.43654004,22.7540966 6.19043425,21.8832607 C5.96325967,21.0823247 5.83219742,20.2566325 5.66327274,19.441134 C5.40842947,18.2106051 5.72152263,17.1024009 6.25596538,16.0276904 C6.47731496,15.5820788 6.67682084,15.1175359 7.05835762,14.6573617 C6.99282649,15.1422921 6.92438287,15.5311101 6.88943294,15.9272094 C6.87050172,16.1543839 6.81807682,16.4412646 7.06418261,16.5679582 C7.2826197,16.6815454 7.47338809,16.4936895 7.64668152,16.3699085 L8.61508595,15.7058598 Z" id="路径" fill="#040000"></path>
                    <path d="M25.09398,24.7404178 C25.0313614,25.177292 25.2818359,25.4233978 25.5759979,25.695716 C26.2415029,26.3131649 26.8866204,26.9495449 27.5055255,27.6208749 C27.8142499,27.9587243 28.1244306,28.2135676 28.591886,28.2354113 C27.3802882,28.9635349 26.065297,29.3829341 24.6600183,29.1659533 C23.4658956,28.9824661 22.6678721,28.0344491 23.6755952,26.519952 C24.0993631,25.8908532 24.6134184,25.3331105 25.09398,24.7404178 Z" id="路径" fill="#E94E37"></path>
                    <path d="M24.2202317,13.9525381 L24.4430375,13.4108141 C24.9032116,11.9239856 26.1017031,10.9876186 27.0788451,9.88815194 C27.2055386,9.74252722 27.3700945,9.59690249 27.6016378,9.70320854 C27.5992568,9.73923236 27.592908,9.77488345 27.5827066,9.80951459 C27.2288385,10.6920004 27.231751,10.683263 27.9394872,11.4113866 C28.3763614,11.8584545 28.8132355,12.3171724 29.2501097,12.7700653 C29.0593413,13.6176012 28.8481855,14.4593121 28.7986731,15.3330605 C28.7244045,16.643683 29.0899225,17.8785807 29.4510718,19.1193034 C29.5515529,19.464434 29.6884402,19.8051958 29.6665964,20.1779951 C29.4729156,20.2551762 29.3549595,20.1270265 29.251566,20.006158 C27.7953187,18.3227361 26.1293718,16.8475576 24.5915747,15.2456856 C24.5406061,15.1932607 24.4940062,15.1393796 24.44595,15.0884109 C24.1168381,14.7520178 24.0061633,14.3850435 24.2202317,13.9525381 Z" id="路径" fill="#EE772F"></path>
                    <path d="M27.6016378,9.70320854 C26.5822647,10.6628755 25.6153165,11.6574924 24.8566117,12.8399652 C24.7299182,13.0380148 24.581381,13.2215019 24.4430375,13.4108141 C24.6075934,12.9127775 24.4663375,12.5661907 24.0716944,12.1817414 C23.5314267,11.6545799 22.9576653,11.1550871 22.449435,10.5958881 C22.2441041,10.3687135 21.9499422,10.3046387 21.7213114,10.1459077 C22.3853601,9.67553984 23.238721,9.62748368 23.9056823,9.16148456 C25.3036796,8.74645409 26.7395394,8.50180455 28.1593805,8.18143015 L29.3447658,8.18143015 L27.6016378,9.70320854 Z" id="路径" fill="#E6591D"></path>
                    <path d="M24.2202317,13.9525381 C24.1780005,14.3894122 24.3658564,14.7054179 24.6643871,15.0039486 C25.7856975,16.1048715 26.8880767,17.2247257 28.0035621,18.3300174 C28.606506,18.897166 29.1635648,19.5111967 29.6695089,20.1663452 C29.8151337,21.5017239 29.346222,22.6958467 28.8088668,23.8724945 C28.4579112,23.298733 27.9569622,22.8531214 27.4836818,22.3958597 C27.1562356,22.0896616 26.8676758,21.7443681 26.6244959,21.3677492 C26.5924585,21.054656 26.6798333,20.7561253 26.719152,20.4517696 C26.7380832,20.3061449 26.7788581,20.135764 26.6492521,20.0440204 C26.5196461,19.9522768 26.3871276,20.094989 26.2589778,20.1488702 C25.7813287,20.3542011 25.3167859,20.6439943 24.7677806,20.5435132 C23.7877262,20.3614823 23.3115334,19.8517957 23.1659086,18.6372855 C22.9897027,16.9727949 23.3785207,15.4029603 24.2202317,13.9525381 Z" id="路径" fill="#EC6831"></path>
                </g>
                <path d="M53.7537281,5.15748311 C53.7537281,5.15748311 53.7537281,5.19753546 53.7365628,5.26619664 C53.7273393,5.30674697 53.720651,5.34783253 53.7165366,5.38921458 L53.5849361,5.52367606 L53.5849361,5.57517194 C53.5829433,5.65275587 53.6235621,5.725211 53.6907887,5.76399018 C53.5711595,5.81111471 53.4488883,5.85123494 53.3245958,5.88414724 C53.2695675,5.88321196 53.2171328,5.86059306 53.1786908,5.82120782 L53.1214731,5.88414724 L52.9755681,5.82120782 L52.9755681,5.82120782 C52.9152218,5.83239867 52.8571921,5.85367624 52.8039152,5.88414724 C52.7438725,5.85071717 52.6746054,5.83766685 52.6065143,5.84695577 C52.6151201,5.879778 52.6151201,5.91426442 52.6065143,5.94708665 L52.4405831,5.94708665 C52.3510102,5.9523446 52.2641592,5.91527406 52.2059907,5.84695577 C52.1471511,5.88552309 52.0788945,5.90728606 52.0085899,5.90989518 L50.8327672,5.94708665 C50.8374339,5.91019561 50.8247574,5.87322251 50.7984366,5.84695577 C50.7508549,5.84259618 50.7029742,5.84259618 50.6553925,5.84695577 L50.5895922,5.87270371 C50.5474396,5.90085779 50.5217805,5.9478995 50.520931,5.99858253 C50.4318899,6.00092553 50.3462441,5.9643694 50.2863387,5.89845165 C50.2411653,5.93932295 50.1900384,5.97308597 50.1347119,5.99858253 C50.0266821,5.96185349 49.9139811,5.94066186 49.7999886,5.93564312 C49.695493,5.94208206 49.5924337,5.96327183 49.4938742,5.99858253 C49.4938742,5.93278224 49.4767089,5.889869 49.4366566,5.87270371 C49.3622736,5.91561694 49.3222213,5.95280841 49.3222213,5.98141724 C49.3347395,5.99542084 49.3504378,6.00621336 49.3679954,6.01288694 C49.337619,6.02092388 49.3079563,6.03144937 49.2793081,6.04435665 C49.2526376,6.05583921 49.2248278,6.06446982 49.1963425,6.07010459 C49.1977873,6.02073535 49.1804001,5.97266477 49.1477075,5.93564312 C49.0842339,5.94428441 49.0246178,5.97111164 48.9760545,6.01288694 C48.9970886,6.04364294 49.0334607,6.06017573 49.0704636,6.05580018 C48.9847109,6.07271788 48.8975287,6.08134031 48.8101233,6.08154812 C48.731217,6.08161869 48.6525436,6.07298381 48.575531,6.05580018 C48.5962366,6.0713861 48.6211642,6.08036003 48.647053,6.08154812 L48.3609648,6.15879195 L48.0119372,6.15879195 L47.5198654,6.15879195 C47.5198654,6.15879195 47.4941174,6.13876577 47.4683695,6.13876577 C47.4018327,6.21416272 47.3083353,6.26039769 47.2080292,6.26750548 C46.7779055,6.28921461 46.3502409,6.34566251 45.9292148,6.43629754 C45.8307243,6.48276994 45.7582734,6.57097101 45.7318139,6.67661166 C45.6631527,6.9626999 45.5716045,7.35464079 45.4457256,7.86959962 L45.4457256,8.05841786 C45.4887168,8.1140403 45.5447147,8.15824915 45.6087959,8.18715757 L46.7302618,8.14138345 L49.4538219,7.68650315 C49.5224831,7.68650315 49.6655272,7.68650315 49.8800934,7.6607552 L50.2090948,7.6292855 L50.4179392,7.6779205 L50.6067575,7.72941638 C50.7841322,7.72941638 50.8756804,7.72941638 50.8756804,7.70366844 L50.8756804,7.70366844 C50.8720331,7.73820731 50.8835089,7.77263488 50.9071501,7.79807756 L51.396361,7.79807756 C51.5253817,7.88723956 51.6685304,7.95397783 51.8197716,7.99547844 C51.8331224,8.06413962 51.8645921,8.17571404 51.9141807,8.33020168 C51.8741284,8.37025404 51.7997454,8.43319345 51.6938928,8.52760257 L51.7253625,8.64203787 C51.7376106,8.63931953 51.7503058,8.63931953 51.762554,8.64203787 C51.8094191,8.63902388 51.85561,8.65442082 51.8912937,8.6849511 C51.8674024,8.71953887 51.8395592,8.75122257 51.8083281,8.77936022 C51.785441,8.7507514 51.7225016,8.73644698 51.616649,8.73644698 C51.601902,8.74563601 51.5931775,8.76199444 51.5937619,8.77936022 C51.620803,8.81168131 51.6526432,8.83966206 51.688171,8.86232581 L51.688171,8.86232581 C51.4547414,8.95180649 51.2297493,9.06190902 51.0158637,9.19132729 C50.9990135,9.15904083 50.9778386,9.1292034 50.9529243,9.10263993 C50.8739905,9.13371389 50.8027372,9.18154145 50.7440798,9.24282317 C50.5121455,9.28623736 50.2850428,9.35235586 50.0660507,9.44022405 C50.1255207,9.47744981 50.1934096,9.49909555 50.2634516,9.50316347 C50.073832,9.53626654 49.8928439,9.60729948 49.7313275,9.71200788 L49.6197531,9.71200788 L49.4967351,9.71200788 C49.3732786,9.71827163 49.2572052,9.77271316 49.1734554,9.86363465 L48.964611,9.86363465 L48.9131151,9.80069524 C48.7601205,9.89585362 48.5930981,9.96633127 48.4181825,10.0095397 L48.4181825,10.0095397 L48.4181825,9.95804377 L48.3409386,9.95804377 C48.2887924,10.044302 48.21209,10.1130353 48.1206507,10.1554447 C47.8908878,10.1815955 47.6626566,10.2197932 47.4368998,10.2698799 C47.3305071,10.3388613 47.2085639,10.3801647 47.0821504,10.390037 L46.9534107,10.390037 L46.8075057,10.390037 L45.5229695,10.5416638 C45.4768339,10.5153083 45.4278945,10.4941972 45.3770645,10.4787244 L45.2254377,10.4787244 C45.1181081,10.7548355 45.0450861,11.0430803 45.0080106,11.3369891 C44.9950901,11.5073747 45.0056794,11.6787278 45.0394803,11.8462261 C45.0394803,11.8776959 45.0080106,11.9263309 44.9393495,11.9835485 L44.9136015,13.6056688 C44.9136015,13.6056688 44.9136015,13.8545656 44.9136015,14.3294721 C44.877212,14.3743614 44.8552692,14.4292183 44.8506621,14.4868206 C44.7312462,14.6127833 44.6041723,14.7312581 44.4701647,14.84157 C44.5159389,14.84157 44.5674347,14.9102312 44.6275133,15.0504144 L44.5073562,15.0761624 C44.4624671,15.0792308 44.4209373,15.101034 44.3929209,15.1362409 C44.3780339,15.1632625 44.3493825,15.1797922 44.318538,15.1791541 C44.2956509,15.1791541 44.2784856,15.1419627 44.2613203,15.0704406 C44.252508,15.0181725 44.2371282,14.967227 44.2155462,14.9188138 C44.1822037,14.9199169 44.1493029,14.910944 44.1211371,14.8930659 C44.0953892,14.964588 44.049615,15.0933277 43.9809539,15.279285 C43.8949649,15.2456005 43.8125459,15.2034327 43.734918,15.1534062 L43.6462306,15.2420936 L43.5518215,15.2420936 C43.4402471,15.2420936 43.3486988,15.1448235 43.2657333,14.9560053 C43.2227082,14.9581345 43.1802599,14.9668171 43.1398544,14.9817533 C43.1178125,14.905716 43.0473479,14.8540419 42.9682015,14.8558744 L42.9424535,14.8558744 C42.8810514,14.7309779 42.8469191,14.5944488 42.8423227,14.4553509 L42.7078612,14.3294721 L42.6077303,13.4025462 C42.6077303,13.2137279 42.6363391,12.9362223 42.664948,12.5671685 L42.7793833,11.2740497 C42.9682015,10.1840535 43.1112456,9.24282317 43.2027938,8.45035875 L43.5775694,6.73382931 L43.5775694,6.51354136 C43.5307179,6.49005402 43.4779212,6.48108853 43.4259427,6.48779342 C43.3899692,6.43193662 43.3683491,6.36805916 43.3630033,6.30183607 L43.3630033,6.27894901 C43.2648631,6.03985043 43.1836056,5.79416593 43.1198283,5.54370223 C43.1887085,5.24345789 43.313942,4.95901275 43.4888821,4.70546369 L45.4914998,4.34499251 L48.9245586,4.03601721 L50.4322437,3.97021691 L51.5594313,4.0217128 C51.654059,4.08382501 51.7600384,4.12660567 51.8712675,4.14759162 L51.9713984,4.09323486 C52.005729,4.09323486 52.0829728,4.11040015 52.2059907,4.13614809 C52.2059907,4.13614809 52.4691919,4.23913986 52.9727072,4.42223633 C53.2360326,4.50576208 53.4695383,4.66375107 53.6450146,4.87711663 C53.6556605,4.93827822 53.6739214,4.99786646 53.6993714,5.05449134 C53.7189119,5.08805258 53.7370466,5.12241293 53.7537281,5.15748311 L53.7537281,5.15748311 Z M50.034581,9.4001717 C49.9819953,9.41446274 49.9284559,9.4249794 49.8743716,9.43164141 C49.8840419,9.46203054 49.8995951,9.49022081 49.9201457,9.514607 C50.0031113,9.48027641 50.0431637,9.44308494 50.0431637,9.4001717 L50.034581,9.4001717 Z" id="形状" fill="#E6591D"></path>
                <path d="M56.4400967,5.89845165 L56.2055043,9.660512 L56.2426958,10.5788552 C56.200354,10.6404944 56.1765296,10.7129602 56.1740346,10.7876997 L56.1740346,11.3198238 L56.0739037,12.1780885 L56.0739037,12.6959082 L56.0481558,14.5526209 C56.0481558,14.575508 56.0796255,14.624143 56.1425649,14.6985259 C56.1177706,14.6985259 56.0691356,14.7328565 55.9966599,14.8015177 L55.9079726,14.8015177 L55.799259,14.7614653 C55.6476323,14.8730397 55.5732493,14.9703097 55.5732493,15.0475535 C55.5699655,15.0577865 55.5699655,15.0687903 55.5732493,15.0790233 C55.4230284,15.143528 55.2617895,15.1784955 55.0983428,15.182015 C55.0154326,15.186606 54.9332282,15.1645512 54.8637505,15.1190756 L54.2229128,14.6498909 L54.0512599,13.5713382 L54.5090011,5.97569547 C54.5433317,5.78115547 54.5748014,5.56658929 54.6034102,5.32913605 C54.6034102,5.24903135 54.632019,5.14890046 54.6549061,5.02588252 C54.6749322,4.98583017 54.7722023,4.76554222 54.9409943,4.35929692 C55.0668731,4.05890427 55.2270826,3.89011221 55.410179,3.84719897 C55.4883675,3.86890294 55.5641058,3.89862301 55.6361887,3.93588633 C55.8993899,4.22197457 56.0367123,4.36501869 56.0481558,4.38504486 C56.1910001,4.54095825 56.2975008,4.72660181 56.359992,4.92861252 L56.4400967,5.89845165 Z" id="路径" fill="#E6591D"></path>
                <path d="M70.4841684,14.4696553 L70.4155072,14.5526209 L70.4355334,14.6098385 C70.4484886,14.6397734 70.4562292,14.6717033 70.4584204,14.7042477 L70.1723322,14.9331183 C69.9731264,14.9790335 69.7716289,15.0143672 69.568686,15.0389709 L69.6144601,15.0389709 L69.2396845,15.013223 L68.9879269,15.013223 C68.9097902,15.0088635 68.8314712,15.0088635 68.7533345,15.013223 C68.6635766,15.0538432 68.5657229,15.0734139 68.4672463,15.0704406 L64.2216968,14.3494982 L62.3478188,13.7029388 L60.7714726,12.967692 C60.6986545,13.0089825 60.6546224,13.0871394 60.6570373,13.1708147 L60.6570373,13.8488438 L60.8687426,14.7729088 C60.8321213,14.8728566 60.8127726,14.9783067 60.811525,15.084745 C60.8086844,15.1180615 60.8086844,15.1515594 60.811525,15.1848759 L60.3423403,15.8829312 C60.2737001,15.8726597 60.2064921,15.8544175 60.1420785,15.8285744 L60.0734173,15.9229836 C59.8882232,15.8572367 59.6963346,15.8121428 59.5012409,15.7885221 C59.3698761,15.682156 59.2301995,15.5864871 59.083552,15.5024338 C58.9204817,15.4051638 58.8375161,15.3193374 58.8375161,15.2420936 C58.7860203,15.0389709 58.72022,14.7357174 58.6401152,14.3294721 L58.6801676,12.4498723 L58.9662558,7.32889285 C58.9156417,7.1533462 58.8164718,6.99566609 58.6801676,6.87401255 C58.6801676,6.81107313 58.6801676,6.77102078 58.7116373,6.75957725 L58.7116373,6.75957725 C58.7069514,6.72826536 58.6962661,6.69815218 58.6801676,6.6708899 C58.6672603,6.64224169 58.6567348,6.61257894 58.6486979,6.58220254 C58.7439845,6.24535885 58.8804284,5.92154487 59.0549432,5.61808517 C60.1821309,4.69497379 61.1262221,4.19718025 61.8872168,4.12470456 C62.0021284,4.03311521 62.1304666,3.95977907 62.2677141,3.9072775 C62.392375,3.85333852 62.5128627,3.79022592 62.6281853,3.71845926 L63.6151897,3.38945779 C63.9871044,3.34940544 64.2874971,3.31793573 64.5163677,3.28646602 L65.1429009,3.20350043 C65.2287274,3.20350043 65.5520071,3.25213543 66.1127401,3.34368367 C66.2052547,3.39771204 66.3007722,3.44642597 66.3988283,3.48958867 C66.605465,3.64117747 66.7836749,3.82810418 66.9252307,4.04173897 C67.2043061,4.27635873 67.4388297,4.5593376 67.6175642,4.87711663 L67.7863563,5.70105076 C67.7214834,5.91206778 67.6755278,6.12844189 67.6490339,6.34761019 C67.5844307,6.49998587 67.4987184,6.6425186 67.3944154,6.77102078 C67.3400586,6.90834313 67.2713974,7.09430049 67.185571,7.34319726 C67.0200423,7.56637499 66.8424009,7.78030866 66.6534468,7.98403492 C66.5027544,8.25780111 66.3096344,8.50596033 66.0812704,8.71928169 C65.6492771,9.15127493 65.4175456,9.39158905 65.3832151,9.44022405 C65.1514836,9.60615523 64.9483609,9.76350376 64.776708,9.90940877 C64.6230241,10.1211487 64.4156303,10.2880514 64.1759227,10.3928979 C63.8955562,10.5531073 63.4282788,10.8754334 62.7740903,11.3598761 C62.7740903,11.4256764 62.7740903,11.4571461 62.7998383,11.4628679 L62.7998383,11.4628679 L62.9543259,11.6087729 C63.7382077,11.8395508 64.6250812,12.0569778 65.6149465,12.2610541 C67.1083271,12.5719366 68.0772126,12.7807811 68.521603,12.8875873 C68.6317831,12.9030569 68.7330342,12.95672 68.8076913,13.0392141 L69.6316254,13.3253023 C70.0750622,13.6113906 70.2953501,13.8030697 70.2953501,13.8831744 L70.4784466,14.0462447 C70.4390374,14.1198928 70.3878152,14.1865782 70.3268198,14.2436456 C70.372594,14.2693935 70.4240898,14.3008632 70.4784466,14.3380547 L70.4841684,14.4696553 Z M65.6578706,5.73252047 L65.6578706,5.52939782 C65.5004593,5.45266192 65.3264424,5.41628551 65.1514836,5.42354517 L64.7824298,5.45501488 C64.5449765,5.47504105 64.387628,5.48648458 64.3075233,5.48648458 C63.9785218,5.58375459 63.5493894,5.695329 63.0201262,5.82692959 C62.4730573,6.06268435 61.9133784,6.26802732 61.3436491,6.4420193 C60.931682,6.65658548 60.7285594,6.88259519 60.7285594,7.11432667 C60.7300523,7.19806455 60.7445289,7.28106378 60.7714726,7.36036255 C60.7714726,7.4662152 60.7400029,7.61784197 60.7028115,7.81810374 L60.5626282,10.4901679 C61.6173402,9.70819337 62.4098046,9.10263993 62.9400215,8.67350757 C63.6539671,8.09575326 64.3128761,7.4531255 64.9083086,6.75385549 C65.4099166,6.15116293 65.659767,5.81071792 65.6578706,5.73252047 Z" id="形状" fill="#E6591D"></path>
                <path d="M83.1035206,4.09895662 C82.9061197,4.20480927 82.8174324,4.33354898 82.8174324,4.48803663 L82.8174324,4.50520192 L82.3940218,4.79129016 L82.4455177,4.83706428 C82.4829831,4.84018081 82.5191701,4.82263558 82.5399268,4.79129016 C82.5565694,4.82747029 82.5671989,4.86612293 82.5713965,4.90572546 C82.5138373,4.9227473 82.4582226,4.94576029 82.4054653,4.97438664 L82.3425259,4.87425575 C82.3063507,4.94346953 82.2312981,4.98327017 82.1537077,4.97438664 C82.0576172,4.96989459 81.9613636,4.97855741 81.8676194,5.00013458 C81.8934307,5.02314673 81.9275722,5.03452721 81.9620285,5.03160428 C81.7327372,5.11189963 81.5090869,5.20747668 81.2925821,5.31769252 C81.2925821,5.31769252 81.2925821,5.31769252 81.2925821,5.31769252 L81.2296426,5.28050105 C81.1912863,5.34210227 81.1492504,5.40133466 81.1037638,5.45787576 L80.7719015,5.45787576 C80.6299792,5.65291275 80.4064313,5.77206801 80.1653944,5.78115547 C80.13119,5.78531803 80.096607,5.78531803 80.0624026,5.78115547 C79.6275485,5.83551224 79.4101214,5.92706047 79.4101214,6.0529393 C79.3546287,6.05032932 79.3032093,6.02304553 79.2699382,5.97855636 C79.1159738,6.01171594 78.9669311,6.06460204 78.8265014,6.13590489 L78.8408058,6.13590489 C78.763562,6.13590489 78.7177879,6.13590489 78.7006226,6.09871342 C78.652449,6.15653189 78.6084701,6.21771997 78.569022,6.28180989 C78.537998,6.25958366 78.5117346,6.23137481 78.4917782,6.1988443 C78.4636034,6.20998934 78.4333409,6.21487039 78.4030908,6.21314871 C78.3418507,6.21158177 78.2807348,6.20680708 78.2199944,6.1988443 C78.1995723,6.23870277 78.1887932,6.28279911 78.1885247,6.32758401 C78.1879806,6.37520557 78.1987671,6.42227405 78.2199944,6.46490636 L78.2199944,6.43915842 C78.2199944,6.40196695 78.1971073,6.38194077 78.1484723,6.38194077 L78.0483414,6.38194077 C78.0006024,6.41342573 77.9700049,6.46512501 77.9653758,6.52212401 L77.7508096,6.49637607 L77.5762958,6.55073284 C77.5143749,6.57519722 77.4501622,6.59340678 77.3846167,6.6050896 C77.3589768,6.58643423 77.3311056,6.57105698 77.3016511,6.55931548 C77.2640988,6.59851153 77.2435362,6.65094618 77.2444335,6.70522048 L76.3861687,7.07999608 C76.3232293,7.28597961 76.2202376,7.56062432 76.0829152,7.89820844 C76.0829152,7.95542609 76.1058023,8.05269609 76.1258284,8.18429668 L79.4387303,7.92681727 L80.3971259,7.92681727 C80.3971259,8.05555697 80.3971259,8.12135727 80.3713779,8.12135727 C80.34563,8.12135727 80.3713779,8.12135727 80.3570735,8.12135727 L80.7890668,8.12135727 C80.7877268,8.12988762 80.7877268,8.13857486 80.7890668,8.14710521 C80.7914003,8.18431818 80.8021612,8.22051404 80.8205365,8.25295786 C80.7690406,8.31303639 80.7404318,8.34164521 80.7318491,8.34164521 L80.7318491,8.34164521 C80.8514837,8.3830457 80.9673058,8.43473491 81.0780159,8.49613286 C81.0136029,8.60045302 80.9109144,8.67541563 80.7919276,8.70497728 L80.7432926,8.81082993 C80.7572415,8.8523764 80.7649544,8.8957612 80.7661797,8.93956963 L80.7661797,9.0911964 C80.7132503,9.14670765 80.6458748,9.18634028 80.5716397,9.2056317 C80.5716397,9.2371014 80.5973876,9.27715376 80.6145529,9.31720611 L79.2670773,9.77494729 C79.1860286,9.78429508 79.1040744,9.76830401 79.032485,9.72917318 C78.8839887,9.8118433 78.7186827,9.85977226 78.5489958,9.86935641 L78.3544558,10.0925052 L78.2199944,10.0925052 C78.1886505,10.0885257 78.1569291,10.0885257 78.1255852,10.0925052 C78.1183225,10.0856745 78.1094739,10.0807586 78.0998373,10.0782008 C78.0798111,10.0782008 78.0683676,10.1153923 78.0683676,10.1611664 L77.6707049,10.2298276 C77.6154629,10.2337162 77.5600158,10.2337162 77.5047738,10.2298276 C77.4185753,10.2365755 77.3329404,10.2110889 77.2644596,10.1583055 L76.283177,10.5531073 C76.1450261,10.5671609 76.0109318,10.6079722 75.8883752,10.6732644 L75.5021561,10.8449173 C75.4735473,10.8906914 75.4106078,10.9965441 75.3190596,11.168197 C75.2475376,11.411372 75.1702937,11.6831559 75.090189,11.9835485 L75.090189,12.2324453 L79.3099906,11.9005829 C79.3593504,11.9099395 79.4080797,11.9223607 79.4558956,11.9377744 L79.5960788,11.972105 L80.1682553,11.972105 C80.2578963,11.9911775 80.4295492,12.0226472 80.6832141,12.0665141 L81.4814003,12.1809494 C81.61014,12.2238626 81.80468,12.2810803 82.0535768,12.3583241 C82.1765947,12.481342 82.3682738,12.6644385 82.6257532,12.9104744 L82.6257532,13.2537803 L82.4970135,13.3996853 L82.5857009,13.5026771 C82.4254915,13.5656165 82.3425259,13.6056688 82.3339432,13.6285559 C82.3253606,13.6514429 82.3339432,13.6285559 82.3339432,13.6285559 C82.3156378,13.7263851 82.2878516,13.8221998 82.2509777,13.9146441 C82.2053916,13.9205116 82.1592414,13.9205116 82.1136553,13.9146441 C82.0449941,13.9146441 81.9591677,13.9146441 81.853315,13.9146441 C81.8314609,13.9433256 81.820328,13.9787482 81.8218453,14.014775 C81.7269215,14.0468025 81.6414094,14.1018448 81.5729485,14.1749844 L81.5729485,14.1749844 C81.5729485,14.1406538 81.5357571,14.1091841 81.4613741,14.0805753 L81.3841303,14.0805753 C81.3140601,14.0800909 81.2441712,14.0733892 81.1752859,14.0605491 C81.1209291,14.0605491 81.049407,14.0605491 80.9607197,14.0376621 C80.8647732,14.0376621 80.7714148,14.0687815 80.6946576,14.1263494 L80.7890668,14.2064541 C80.703539,14.2108857 80.6178147,14.2031802 80.5344482,14.1835671 C80.5455295,14.1470617 80.5651428,14.1137191 80.5916659,14.0862971 C80.5346524,14.0794611 80.4770264,14.0794611 80.4200129,14.0862971 L80.4600653,14.1950106 L78.7034835,14.2322021 C78.4889173,14.2322021 78.3544558,14.2808371 78.3058208,14.3723853 L78.228577,14.306585 L77.9424888,14.306585 L76.6293437,14.5297338 C76.5549608,14.5297338 76.5063258,14.5154294 76.4891605,14.4839597 C76.4719952,14.45249 76.4405255,14.5240121 76.3575599,14.5869515 L76.1630199,14.5869515 C76.1284692,14.6250135 76.1118149,14.6760175 76.1172458,14.7271347 C76.1191007,14.6909205 76.1055971,14.6556033 76.0800543,14.6298647 L75.965619,14.6298647 C75.9198449,14.6784997 75.8969579,14.7099694 75.8969579,14.7328565 C75.6917845,14.7677473 75.4842407,14.7868758 75.2761464,14.7900741 C75.1825294,14.8461414 75.0813742,14.8885303 74.9757537,14.915953 L73.9773058,15.0418318 L73.2535025,15.0418318 L73.1705369,14.8158221 C72.8433231,14.6008555 72.6101282,14.2694733 72.5182557,13.8888962 C72.4563873,13.6071537 72.4285332,13.3190077 72.4352902,13.0306315 C72.4352902,12.9819965 72.4953687,12.8360915 72.5754734,12.5843338 C72.7871787,11.9606614 72.9712288,11.3570153 73.1276237,10.7733953 C73.1250804,10.7457985 73.1250804,10.7180264 73.1276237,10.6904297 C73.2129099,10.5468021 73.2674632,10.387039 73.2878331,10.2212449 C73.2277546,9.93515671 73.1962849,9.79783435 73.1905631,9.79783435 L73.1905631,9.79783435 L73.1905631,9.30576258 C73.2868339,9.16824261 73.3656356,9.01928817 73.4251555,8.86232581 C73.4966775,8.70497728 73.5853649,8.62773345 73.6854958,8.62773345 L73.7226872,8.62773345 L74.0459669,7.65217256 L74.0459669,7.49482403 L73.9887493,7.42616285 L73.7942093,7.42616285 C73.4250171,7.05712782 73.16383,6.59411437 73.0389363,6.08726989 L73.2620852,5.22900517 C73.3909596,5.14019163 73.5151008,5.04469845 73.6339999,4.94291693 C73.6615768,4.94705908 73.6885019,4.95475196 73.7141046,4.96580399 L73.7856266,4.98869105 C74.1422888,4.96525521 74.4933672,4.88809513 74.8269878,4.75982046 C74.9395159,4.65110692 75.1168906,4.49948016 75.359112,4.30494016 C75.4968131,4.39493999 75.6517146,4.45534186 75.8139923,4.48231486 C75.8483229,4.48231486 75.9198449,4.4594278 76.0285584,4.44226251 C76.0857129,4.43846069 76.1430569,4.43846069 76.2002114,4.44226251 C76.2447116,4.43468532 76.2901726,4.43468532 76.3346729,4.44226251 L78.8808582,3.89869486 C78.958102,3.89869486 79.0038761,3.89869486 79.0210414,3.93588633 C79.0380169,3.91156886 79.0470146,3.88257637 79.0467894,3.85292074 L79.5073914,3.77853779 C79.6018006,3.79570309 79.7534273,3.82145103 79.9651326,3.85292074 C80.0600624,3.80374213 80.1492876,3.74425868 80.2311947,3.67554603 C80.2973436,3.68152225 80.3626048,3.69495837 80.4257347,3.71559838 L81.2124773,3.55538897 C81.3123582,3.5935459 81.4158928,3.62134687 81.5214526,3.63835456 C81.5747604,3.57476313 81.6424203,3.52475365 81.7188535,3.49244955 C81.7646276,3.49244955 81.7875147,3.52678014 81.7875147,3.59544132 C81.7214607,3.63425863 81.6514486,3.66590793 81.5786703,3.68985044 C81.5958356,3.70701573 81.6501924,3.71559838 81.7446015,3.71559838 C81.8675727,3.67293568 81.9926644,3.63664955 82.1193771,3.60688485 C82.1193771,3.60688485 82.1193771,3.60688485 82.1193771,3.62691103 C82.1117123,3.64327715 82.0985517,3.65643773 82.0821856,3.6641025 C82.1365424,3.73562456 82.1708729,3.77281603 82.1823165,3.77281603 C82.19376,3.77281603 82.1823165,3.77281603 82.1823165,3.77281603 L82.1823165,3.91872103 L82.3224997,3.97021691 C82.3772526,3.92371384 82.448335,3.90104988 82.5199006,3.9072775 C82.7066919,3.95737611 82.8987492,3.98522443 83.0920771,3.99024309 C83.1065412,4.00830588 83.115482,4.03016106 83.117825,4.0531825 C83.1304652,4.05713256 83.1375099,4.0705816 83.1335599,4.08322177 C83.1296098,4.09586194 83.1161608,4.10290668 83.1035206,4.09895662 L83.1035206,4.09895662 Z M78.1370288,6.59650695 C78.1370288,6.55931548 78.1084199,6.53928931 78.0941155,6.53928931 C78.1255852,6.5564546 78.1427505,6.57075901 78.1427505,6.58506342 L78.1370288,6.59650695 Z" id="形状" fill="#E6591D"></path>
                <path d="M54.2813241,23.8667387 C54.2813241,24.7803138 53.7425246,25.8722173 52.6649256,27.1424491 C52.5849064,27.2265948 52.4956554,27.3014505 52.3988635,27.3655979 C52.3988635,27.4399808 52.3645329,27.5372508 52.3359241,27.6516861 L50.6193947,29.0592403 C50.2360364,29.3081371 49.6981905,29.6314168 49.0115788,30.0348012 C49.0113586,30.0100904 48.9997456,29.9868644 48.9801091,29.9718618 L47.6354943,30.7128303 C47.4743962,30.9801441 47.173566,31.1305592 46.8630561,31.0990494 L46.7057076,31.0990494 C46.5535639,31.1817038 46.3838783,31.2268225 46.2107749,31.23065 L46.0848961,31.353668 L45.8417211,31.353668 L45.8102514,31.353668 C45.7291822,31.3568327 45.653269,31.3942694 45.601407,31.4566597 C45.6197937,31.4700995 45.6416215,31.4780368 45.6643464,31.4795468 L45.5213022,31.5625124 L45.5699372,31.4566597 L45.4955543,31.4108856 C45.4406107,31.4362019 45.383046,31.4553902 45.3239014,31.4681033 C45.235005,31.469696 45.1496561,31.4332665 45.089309,31.3679724 L45.0063434,31.3851377 C44.9492138,31.3896264 44.8918201,31.3896264 44.8346905,31.3851377 L44.8919081,31.3221983 C44.8432731,31.2621197 44.8032208,31.23065 44.7774728,31.23065 C44.7477154,31.2445911 44.7157786,31.2533011 44.6830637,31.256398 C44.6957751,31.239466 44.7045692,31.2199233 44.7088116,31.1991803 L44.5571849,31.0990494 C44.4731959,31.0776455 44.3909487,31.049911 44.311149,31.0160838 C44.3173305,30.9694169 44.3050088,30.9221836 44.2768184,30.8844833 L44.3340361,30.8129612 C44.336757,30.7968637 44.336757,30.7804237 44.3340361,30.7643262 C44.3311617,30.6878538 44.2994813,30.6152956 44.2453487,30.5612035 L44.2453487,30.112045 C44.2770064,29.9508675 44.3259233,29.7935664 44.3912537,29.6428603 C44.3669644,29.5312512 44.3066491,29.4307257 44.2196008,29.3567721 C44.1509396,29.2451976 44.0565305,29.0706838 43.9335125,28.8618394 C43.8648513,28.3754894 43.8333816,28.0951229 43.8333816,28.0178791 L43.8333816,24.1728532 L43.896321,22.3018361 L43.8448252,22.2532011 C43.5093212,22.4200803 43.1999506,22.6350012 42.9264819,22.8911778 C42.8881417,22.8277348 42.8461098,22.7665975 42.8006031,22.7080814 L42.6661416,22.7080814 C42.6403937,22.7080814 42.6289501,22.7309684 42.6289501,22.7710208 C42.5598014,22.6764005 42.4577451,22.6110845 42.3428619,22.5879243 C42.3321646,22.4357123 42.2387681,22.3016608 42.0996869,22.2388967 C42.0996869,22.2217314 42.1197131,22.1416267 42.1569046,21.9928608 L42.0367475,21.8727037 C42.035577,21.8603342 42.035577,21.8478818 42.0367475,21.8355122 C42.0372731,21.7932247 42.0460181,21.7514431 42.0624954,21.7124943 L41.999556,21.6581375 L41.999556,21.5293978 C42.0573137,21.4270317 42.097904,21.3158915 42.1197131,21.2003963 C42.124292,21.1690932 42.124292,21.1372904 42.1197131,21.1059872 C42.1492853,21.025643 42.2033183,20.9566009 42.2742007,20.9085863 C44.1452178,19.9072775 45.5994997,19.3646635 46.6370464,19.2807443 L47.0318482,19.2035004 L47.5582505,19.2035004 C47.694737,19.1986427 47.8301561,19.1775134 47.9616349,19.140561 C48.1168303,19.2041634 48.2831281,19.2362559 48.4508458,19.2349701 L48.6253596,19.2206657 L48.7912908,19.2035004 C49.147176,19.2047718 49.5012775,19.2538457 49.8440955,19.3494054 C50.1915777,19.3781761 50.5299354,19.4754053 50.8396826,19.6354937 C51.8465191,19.8987921 52.7359852,20.4921052 53.3658418,21.3205534 C53.9487695,22.042115 54.2713116,22.9391852 54.2813241,23.8667387 Z M52.4675247,23.9640087 C52.436055,23.7723296 52.3988635,23.543459 52.3616721,23.277397 C52.2468628,23.002045 52.084134,22.7492342 51.8810438,22.5307067 C51.7171902,22.3098458 51.5247898,22.1116734 51.3088673,21.9413649 C51.2798698,21.9581761 51.247743,21.968885 51.2144582,21.9728346 C51.145797,21.9728346 51.0885794,21.9270605 51.0370835,21.8355122 C51.0370835,21.8355122 51.0370835,21.8355122 51.0370835,21.8212078 C51.0252289,21.8004153 51.0108118,21.7811925 50.9941703,21.7639902 C50.9679246,21.7814146 50.9369791,21.7903988 50.9054829,21.7897381 L49.4750417,21.2633358 L47.9730785,21.1946746 L47.0661787,21.2318661 C46.9917958,21.2318661 46.6284637,21.3205534 45.9761825,21.4607366 C45.8058188,21.6426966 45.6453771,21.8336987 45.4955543,22.0329131 L45.6214331,28.7216562 L45.4698064,28.8503959 L45.4698064,28.967692 C45.4955543,28.967692 45.5298849,28.9905791 45.5727981,29.0334923 L46.8516126,28.6701603 C47.1768877,28.4737629 47.5131118,28.2960991 47.8586432,28.1380362 C48.3983963,27.8805567 48.721676,27.7203473 48.8284823,27.6574079 C49.1717882,27.5887467 49.8307448,27.1243302 50.805352,26.2641582 C51.9134671,25.3009944 52.4675247,24.534278 52.4675247,23.9640087 L52.4675247,23.9640087 Z" id="形状" fill="#E6591D"></path>
                <path d="M58.2579507,21.8984516 L58.0233583,25.660512 L58.0605498,26.5788552 C58.0182079,26.6404944 57.9943836,26.7129602 57.9918886,26.7876997 L57.9918886,27.3198238 L57.8917577,28.1780885 L57.8917577,28.6959082 L57.8660098,30.5526209 C57.8660098,30.575508 57.8974795,30.624143 57.9604189,30.6985259 C57.9337173,30.6985259 57.8850823,30.7328565 57.8145139,30.8015177 L57.7258265,30.8015177 L57.617113,30.7614653 C57.4654862,30.8730397 57.3911033,30.9703097 57.3911033,31.0475535 C57.3878195,31.0577865 57.3878195,31.0687903 57.3911033,31.0790233 C57.2409708,31.1438039 57.0796773,31.1787832 56.9161968,31.182015 C56.8332866,31.186606 56.7510822,31.1645512 56.6816045,31.1190756 L56.0407668,30.6498909 L55.8691139,29.5713382 L56.3268551,21.9756955 C56.3611856,21.7811555 56.3926553,21.5665893 56.4212642,21.3291361 C56.4355686,21.2490313 56.449873,21.1489005 56.4727601,21.0258825 C56.4927862,20.9858302 56.5900562,20.7655422 56.7588483,20.3592969 C56.8847271,20.0589043 57.0449365,19.8901122 57.228033,19.847199 C57.3062215,19.8689029 57.3819598,19.898623 57.4540427,19.9358863 C57.7172439,20.2219746 57.8545663,20.3650187 57.8660098,20.3850449 C58.008854,20.5409583 58.1153548,20.7266018 58.177846,20.9286125 L58.2579507,21.8984516 Z" id="路径" fill="#E6591D"></path>
                <path d="M74.2531441,26.9908223 C74.1753321,27.0671987 74.1267428,27.1684264 74.1158218,27.2769106 C74.0681201,27.2818205 74.0221498,27.29747 73.9813603,27.3226847 C73.9613329,27.3548061 73.9486343,27.3909482 73.9441688,27.4285373 C73.9327853,27.4418737 73.9159152,27.4492544 73.8983947,27.4485635 C73.8817814,27.4487975 73.8659735,27.4414204 73.8554815,27.4285373 L73.7982638,27.5000594 C73.7982638,27.5143638 73.8383162,27.5229464 73.892673,27.5229464 C73.6864626,27.9056437 73.3652204,28.2138762 72.9743297,28.4040982 C72.9743297,28.4040982 72.9743297,28.4040982 72.9743297,28.4040982 C72.9669011,28.3555362 72.9524452,28.3083137 72.9314165,28.263915 L72.8112594,28.4040982 C72.8362594,28.4398901 72.8573593,28.4782534 72.8741988,28.5185335 L72.4193185,28.9476659 C72.4387616,28.9635477 72.4628879,28.9725951 72.4879797,28.9734138 L71.1519476,29.7401303 L71.0289297,29.6972171 C70.9302964,29.7186249 70.8405007,29.7695092 70.7714503,29.8431221 L70.80292,29.8431221 C70.852,29.840233 70.9007816,29.8335374 70.948825,29.8230959 L71.09473,29.7916262 C71.0417653,29.8698096 70.9824391,29.9434889 70.9173553,30.0119141 C70.8944682,29.9861662 70.8429723,29.9747227 70.7571459,29.9747227 L68.4970488,30.9445618 C68.0752867,31.1154455 67.6372193,31.2429355 67.1896255,31.3250591 C66.8794167,31.4477456 66.54752,31.5061438 66.2140646,31.4967121 C66.2020929,31.5196367 66.1961838,31.5452426 66.1968993,31.571095 C66.0334262,31.6067101 65.8755758,31.6644603 65.7277146,31.742748 C65.596114,31.7198609 65.4244611,31.6883912 65.207034,31.6397562 C65.1509403,31.6987163 65.0811734,31.7429348 65.0039114,31.7684959 L64.9609981,31.6855303 C64.9309976,31.7107362 64.9032385,31.7384953 64.8780325,31.7684959 L64.5490311,31.7684959 C64.3951308,31.6777486 64.228208,31.6111724 64.0540984,31.571095 L62.2746296,30.7128303 C62.2202728,30.7128303 62.191664,30.7128303 62.191664,30.7443 L62.1401681,30.6699171 L61.8683843,30.5039859 L61.1960769,29.6457212 C61.0063867,29.4202256 60.8669216,29.1568997 60.7869707,28.8732829 C60.5401506,28.369287 60.4221935,27.8119398 60.4436648,27.2511626 C60.4482914,25.4666829 61.1529882,23.7552765 62.4062301,22.4849325 C63.6533442,21.1629276 65.2476796,20.2190177 67.006529,19.7613725 C67.4562472,19.5902018 67.9157545,19.445949 68.3826135,19.3293793 L68.9090158,19.2921878 L68.9462073,19.2921878 C69.2490983,19.3267343 69.5414313,19.4241786 69.804472,19.578276 C70.2307435,19.798564 70.4453097,20.0188519 70.4453097,20.236279 C70.4495178,20.2790891 70.4495178,20.3222086 70.4453097,20.3650187 C70.55734,20.5130266 70.6292746,20.6874434 70.6541541,20.8713949 L70.559745,21.1059872 C70.5693995,21.1284712 70.5818987,21.1496237 70.5969364,21.1689266 C70.568083,21.2786847 70.5278108,21.3851182 70.4767794,21.4864846 C70.4279835,21.5921522 70.3896554,21.7023455 70.3623441,21.8154861 C70.3018903,21.9171482 70.1944066,21.9816384 70.0762558,21.987139 C70.0309683,21.9938178 69.9854638,21.9764828 69.9560988,21.9413649 L69.8016111,22.0872699 L69.3982267,22.0186087 L68.8517982,22.0186087 L68.7545282,22.0014434 L68.6572582,22.0014434 C68.5335985,22.027521 68.4128449,22.0658555 68.296787,22.1158787 C68.1739193,22.1524514 68.0565255,22.2053749 67.9477593,22.2732272 C67.905388,22.2322946 67.8604785,22.1940737 67.8132979,22.1587919 C67.7607595,22.185436 67.7284083,22.2400984 67.7303323,22.2989752 C67.5069033,22.3270523 67.2927167,22.405294 67.103799,22.5278458 L65.2842778,23.3060058 C65.2318831,23.3666617 65.1893998,23.4352143 65.158399,23.5091284 C64.8438214,23.6447805 64.5705051,23.8608681 64.3659346,24.1356617 L64.2972734,24.0612787 C64.2643137,24.1156913 64.2346965,24.1720595 64.2085861,24.2300708 C64.067506,24.335543 63.9464005,24.465368 63.8509758,24.613429 C63.7411547,24.7492025 63.6559495,24.9031529 63.5992181,25.0683093 L63.5563049,25.0683093 C63.5161286,25.0690668 63.4767837,25.0798867 63.4418696,25.099779 L62.8696931,26.5302202 C62.7593754,26.8217278 62.7040835,27.1311685 62.7066228,27.4428417 C62.693874,27.6821406 62.7369694,27.9211243 62.8325016,28.140897 C63.0427114,28.4795877 63.3660057,28.7329531 63.7451231,28.8561176 C64.1252396,29.022294 64.5347399,29.1108084 64.9495546,29.1164579 L65.3729652,29.1164579 C65.7584302,29.1031391 66.1416857,29.0523578 66.5173181,28.9648312 C66.8740486,28.8767571 67.2362872,28.8127202 67.6015926,28.773152 L69.3009567,28.0836794 C69.9021417,27.8431311 70.4837018,27.5561771 71.0403732,27.2254147 C71.122697,27.153068 71.1974633,27.0725505 71.263522,26.9851005 C71.1869637,26.9452646 71.1196924,26.8896927 71.0661212,26.8220303 C71.0688235,26.8156284 71.0688235,26.808406 71.0661212,26.8020041 C71.0637566,26.7860579 71.0567977,26.7711459 71.046095,26.7590908 L70.7228153,26.8020041 C70.5698346,26.7753243 70.4195249,26.735114 70.2736567,26.681847 L69.7472544,26.7590908 L69.5584361,26.6389338 C69.5284566,26.6850354 69.4787894,26.7146244 69.4239747,26.7190385 L68.9433464,26.7190385 C68.9433464,26.7190385 68.9233202,26.7447864 68.9233202,26.7705344 C68.9233202,26.7962823 68.9519291,26.8220303 68.9690944,26.8220303 L68.8918505,26.7705344 C68.8661344,26.747466 68.8359457,26.729937 68.8031632,26.7190385 L68.5800143,26.7190385 C68.562276,26.7600456 68.5391885,26.7985248 68.5113532,26.8334738 C68.4140832,26.8334738 68.1880735,26.8077258 67.833324,26.7590908 L67.6244796,26.7819779 L67.395609,26.8077258 C67.3374665,26.8884711 67.2483119,26.9413419 67.1495732,26.9536308 C67.0631009,26.9576713 66.9766584,26.9450448 66.8949546,26.9164394 L66.3885784,27.0308747 C66.1995111,27.0490406 66.0115368,26.9867287 65.8707587,26.8592217 L65.8707587,26.6789861 C65.810442,26.6303694 65.7582877,26.5724201 65.7162711,26.5073332 C65.6419927,26.4808614 65.5717168,26.4442794 65.5074267,26.3986197 C65.506374,26.3562015 65.5111876,26.3138413 65.5217311,26.2727408 C65.4973006,26.2135139 65.4781535,26.1522433 65.4645134,26.0896444 C65.4624321,26.0851034 65.4624321,26.0798809 65.4645134,26.0753399 C65.4712282,26.038132 65.4880543,26.0034899 65.5131484,25.9752091 L65.3557999,25.8178605 C65.4105948,25.6245002 65.4337807,25.4235552 65.4244611,25.222797 C65.471796,25.1490797 65.5147825,25.0726593 65.5532008,24.9939264 L65.5532008,24.9739002 C65.5390337,24.9051634 65.5028829,24.8429036 65.450209,24.7965255 C65.5474074,24.7441363 65.6202951,24.6558497 65.6533317,24.5504896 L66.059577,24.3988629 L66.0853249,24.4417761 L70.6627367,24.3158973 L70.7457023,24.3158973 C71.6096888,24.3158973 72.538522,24.6916265 73.5322018,25.4430849 L74.2531441,26.4701417 C74.2595232,26.5310072 74.2595232,26.5923727 74.2531441,26.6532382 C74.2674486,26.7505082 74.261857,26.8592217 74.2531441,26.9908223 Z M67.5644011,22.278949 L67.4070526,22.2217314 C67.3778799,22.2541493 67.3555052,22.292089 67.3412523,22.3333058 L67.3412523,22.3333058 C67.4130764,22.3059489 67.4880419,22.2876881 67.5644011,22.278949 L67.5644011,22.278949 Z" id="形状" fill="#E6591D"></path>
                <path d="M78.7018163,21.8984516 L78.4672239,25.660512 L78.5044154,26.5788552 C78.4620735,26.6404944 78.4382492,26.7129602 78.4357542,26.7876997 L78.4357542,27.3198238 L78.3327624,28.1780885 L78.3327624,28.6959082 L78.3070145,30.5526209 C78.3070145,30.575508 78.3384842,30.624143 78.4042845,30.6985259 C78.3775829,30.6985259 78.3289479,30.7328565 78.2583795,30.8015177 L78.1696921,30.8015177 L78.0609786,30.7614653 C77.9093518,30.8730397 77.832108,30.9703097 77.832108,31.0475535 C77.8288242,31.0577865 77.8288242,31.0687903 77.832108,31.0790233 C77.6809111,31.1436136 77.5187201,31.1785769 77.3543407,31.182015 C77.2715135,31.1858231 77.189546,31.1638318 77.1197483,31.1190756 C76.9995912,31.0275274 76.7850251,30.8730397 76.4817715,30.6498909 L76.3101186,29.5713382 L76.7649989,21.9756955 C76.7993295,21.7811555 76.8307992,21.5665893 76.8622689,21.3291361 C76.8622689,21.2490313 76.8908777,21.1489005 76.9109039,21.0258825 C76.9337909,20.9858302 77.0310609,20.7655422 77.1969921,20.3592969 C77.3257318,20.0589043 77.4830804,19.8901122 77.6661768,19.847199 C77.7453198,19.8687943 77.8220178,19.8985148 77.8950474,19.9358863 C78.1553877,20.2219746 78.2927101,20.3650187 78.3070145,20.3850449 C78.4488295,20.541233 78.5543415,20.7268559 78.6159898,20.9286125 L78.7018163,21.8984516 Z" id="路径" fill="#E6591D"></path>
                <path d="M96.4764786,20.4022102 C96.4279274,20.5299026 96.4064928,20.6663045 96.4135392,20.8027337 C96.4155028,20.9299326 96.4010798,21.056855 96.3706259,21.1803702 C96.414874,21.2410486 96.4388965,21.3141172 96.4392871,21.3892146 L96.3620433,21.4092408 L96.2991039,21.4292669 C96.2404259,21.6163054 96.1429394,21.7888565 96.0130156,21.9356431 C96.0330418,22.0043043 96.0444853,22.035774 96.0502071,22.035774 C95.9965397,22.0898445 95.9347647,22.1352106 95.8671106,22.1702355 L94.9659327,22.1015743 L93.7243097,22.1788181 L93.7243097,22.1788181 C93.6985618,22.1788181 93.6670921,22.1587919 93.6299006,22.1158787 L93.6098744,22.1158787 C93.5467523,22.1276525 93.4888036,22.1586251 93.4439432,22.2045661 L93.2236553,22.2217314 L93.0262544,22.2417575 C92.9024297,22.2348436 92.7783743,22.2503505 92.6600615,22.2875317 C92.6600615,22.2560619 92.6371744,22.2217314 92.5885394,22.1788181 C92.5713741,22.2045661 92.5227391,22.2160096 92.4369126,22.2160096 L91.74744,22.4134105 C91.7016659,22.4134105 91.6215612,22.4134105 91.5071259,22.4134105 L91.3411947,22.4134105 C91.2967093,22.4050405 91.2563717,22.3818464 91.2267594,22.3476102 L91.1781244,22.4134105 C91.0937247,22.4196136 91.0096964,22.4301171 90.9263667,22.4448802 L90.700357,22.4763499 L90.4457385,22.4448802 C90.2855291,22.4219931 90.1997026,22.4134105 90.1882591,22.4134105 L89.3843511,22.5135414 C89.3242726,22.5764808 89.2956638,22.6222549 89.2956638,22.6480028 C89.2438709,22.6295628 89.2022986,22.5900691 89.1812285,22.5392893 C89.1277793,22.5579294 89.0718599,22.5685348 89.0152973,22.570759 C88.9730555,22.5720118 88.9313448,22.5610876 88.8951402,22.5392893 C88.8404567,22.5606802 88.8034714,22.6122354 88.8007311,22.6708899 L88.414512,22.6708899 C88.3986461,22.6892268 88.3895568,22.7124551 88.3887641,22.7366902 L87.4761426,22.9312302 C87.2194302,23.7685494 87.0187249,24.6220245 86.8753573,25.4859982 C86.8868733,25.5502026 86.892618,25.6153092 86.8925226,25.6805382 C86.8953739,25.723404 86.8953739,25.766412 86.8925226,25.8092779 C86.6156749,27.301998 86.4341186,28.8108259 86.3489549,30.3266112 C86.3061389,30.3713746 86.2443302,30.392688 86.1830237,30.3838288 C86.1482887,30.475379 86.1289546,30.5720496 86.1258061,30.6699171 C86.0042069,30.7429772 85.891827,30.8303838 85.7910828,30.9302574 L85.8225525,30.9302574 C85.6152551,30.8725046 85.4039073,30.8304263 85.1902975,30.8043785 C85.1572009,30.7191836 85.1189861,30.6360665 85.0758622,30.5554818 C85.0381064,30.5477749 84.9991828,30.5477749 84.9614269,30.5554818 C84.8841831,30.4324638 84.7869131,30.2693935 84.6753387,30.0233577 L84.7125302,28.3297153 L85.3133155,24.687812 C85.4163072,24.2901493 85.519299,23.8695996 85.6251517,23.4204411 L85.6251517,23.1744052 C85.6051255,23.1429355 85.5707949,23.1028831 85.5250208,23.0456655 C85.4179104,23.0695453 85.3134481,23.1040466 85.2131846,23.1486573 L85.2131846,23.1486573 C85.1855488,23.1430236 85.15989,23.1301942 85.1388017,23.1114658 C85.1224723,23.096618 85.1028679,23.0858355 85.081584,23.0799961 C84.9843545,23.0995154 84.8887242,23.1262919 84.7954958,23.1601008 L84.5094075,23.2487881 L84.3835287,23.2316228 L84.2690934,23.2115967 L83.427994,23.3775278 L83.2763672,23.3460581 L82.1320143,23.6035376 L81.0048266,23.7122511 L80.3782933,23.7122511 C80.2344202,23.606098 80.0765215,23.5204091 79.9091086,23.4576326 C79.8849901,23.4130559 79.8759568,23.361867 79.8833607,23.3117276 C79.8417633,23.2747431 79.7944145,23.2447877 79.7431775,23.2230402 L79.7431775,23.1915705 C79.7316871,23.0855184 79.6877242,22.9856028 79.6172986,22.9054823 L79.6172986,22.7281075 L79.8890825,21.7725728 C79.9863525,21.7267987 80.1322575,21.6438331 80.3210757,21.5322587 C80.921861,21.4197307 82.081472,21.2394951 83.7999087,20.9915519 L93.8730756,19.724181 L95.9901286,19.724181 C96.0329344,19.8373446 96.0970297,19.9412566 96.1789468,20.0302954 C96.2502337,20.1186926 96.3116314,20.2146265 96.3620433,20.3163837 C96.3677883,20.3311009 96.3677883,20.3474405 96.3620433,20.3621578 L96.4764786,20.4022102 Z" id="路径" fill="#E6591D"></path>
                <path d="M100.115521,30.4582118 L99.943868,30.5840906 C99.9569243,30.6529453 99.9636279,30.7228539 99.9638942,30.792935 C99.9614644,30.9040076 99.9461028,31.014419 99.9181201,31.1219365 L99.9181201,31.0075012 C99.8723104,30.9736527 99.8318115,30.9331539 99.797963,30.8873441 C99.789079,30.9078401 99.7775364,30.9270778 99.7636325,30.9445618 C99.7493516,30.9669651 99.7330737,30.9880307 99.7149975,31.0075012 C99.7149975,31.0246665 99.7378845,31.0532753 99.7836586,31.0961885 L99.7836586,31.2363718 C99.7453414,31.268238 99.6959799,31.2836635 99.6463363,31.279285 C99.6027689,31.3916459 99.5491482,31.4998448 99.4861269,31.6025647 L98.8080977,31.6025647 L98.2015907,30.8129612 C98.1363802,30.3707557 97.9524801,29.9545087 97.6694665,29.6085297 C97.7000308,29.5517006 97.7194517,29.4895535 97.7266842,29.4254332 C97.7279799,29.4026078 97.7230348,29.3798604 97.7123798,29.3596329 C97.6350585,29.2629966 97.5732839,29.1548909 97.5292833,29.0392141 C97.3689815,28.8112007 97.1762193,28.6078366 96.9571068,28.4355679 C96.8007981,28.2745829 96.6214713,28.1376776 96.4249827,28.0293226 L95.8356409,27.7260691 C95.6257427,27.7140704 95.4199846,27.6626309 95.2291339,27.5744423 C95.1879957,27.5438236 95.1397646,27.5241375 95.0889506,27.5172247 C95.0743925,27.4696697 95.0532043,27.424404 95.0260112,27.3827632 L94.9430456,27.3827632 C94.9055886,27.4243959 94.8720685,27.4694087 94.8429147,27.5172247 C94.594139,27.4829367 94.3508491,27.416585 94.1191115,27.3198238 L93.79011,27.5429726 C93.7556677,27.4840688 93.7133139,27.4301639 93.6642312,27.3827632 C93.6156414,27.3885798 93.570863,27.4119867 93.5383524,27.4485635 C93.4937815,27.4300367 93.4507358,27.4080355 93.4096127,27.3827632 L93.2951774,27.5286682 C93.354881,27.5520368 93.4093406,27.5870465 93.4553868,27.63166 C93.2169437,27.6308917 92.9889283,27.7293529 92.8259926,27.9034438 L92.5599306,27.9034438 L92.4912694,27.8405044 C92.4322564,27.8353606 92.3729077,27.8353606 92.3138947,27.8405044 L92.2452335,27.8605306 L91.7388573,28.8561176 C91.7210829,28.8744175 91.7117505,28.899304 91.7131094,28.9247788 C91.7158053,28.9557414 91.7245533,28.9858736 91.7388573,29.0134662 C91.6787788,29.1307623 91.601535,29.2766673 91.504265,29.4511812 C91.3268903,29.4511812 91.2181767,29.4368768 91.2181767,29.4139897 L91.1466547,29.5141206 L91.0350803,29.5141206 C90.9907663,29.4250567 90.9197565,29.3520465 90.8319576,29.3052762 C90.7660859,29.2796823 90.7036273,29.2460508 90.6460003,29.2051453 C90.6482781,29.1812397 90.6571967,29.1584478 90.6717482,29.139345 C90.6091517,29.0564373 90.5723382,28.9569413 90.5658956,28.8532568 C90.5022498,28.7785825 90.4430239,28.7002514 90.3885208,28.6186644 L90.3885208,28.1609232 L90.4199906,28.0150182 C90.6159476,27.8431896 90.7822052,27.6402006 90.9120623,27.4142329 C91.1028837,27.2419672 91.2382929,27.0169489 91.3011423,26.7676735 C91.3755253,26.6246294 91.4899606,26.415785 91.6415873,26.1411402 C91.7356548,25.8782447 91.8677018,25.6305361 92.0335282,25.4058935 C92.1193547,25.1941882 92.2423726,24.8766302 92.4083038,24.4503587 C92.4426344,24.4017237 92.4998521,24.3187582 92.5799568,24.1957402 C92.604229,24.1105183 92.6214523,24.0234448 92.6314526,23.9353999 C92.8031056,23.5882795 93.0834721,22.9846333 93.4725521,22.1244614 C93.590714,21.8833013 93.7245068,21.6501195 93.8730756,21.4264061 C93.9777067,21.2404572 94.0731835,21.0495038 94.1591638,20.8542296 C94.3041152,20.4193755 94.5148669,19.8872513 94.7914189,19.2578572 C94.8737811,19.2301797 94.9540856,19.1967195 95.031733,19.1577263 C95.1423538,19.1920569 95.3140067,19.2321093 95.5466918,19.2778834 C95.7465936,19.405084 95.9334563,19.5516993 96.1045639,19.7155984 C96.1562205,19.8139146 96.2020731,19.9151726 96.2418862,20.0188519 C96.5851921,20.446077 97.0543768,21.4388032 97.6494404,22.9970305 C97.6665974,23.0340715 97.7030589,23.0583792 97.7438495,23.0599699 C97.7602621,23.1458239 97.784195,23.2300678 97.8153715,23.3117276 C97.8453949,23.3945132 97.8683638,23.4796896 97.8840327,23.5663461 C97.8868751,23.6147834 97.8680002,23.6619708 97.8325368,23.6950858 C97.8884021,23.7317457 97.9419105,23.771877 97.9927463,23.8152429 C98.1987298,24.3874193 98.5086587,25.5317723 98.922533,27.2483017 L98.9997769,27.3741806 C99.1388565,28.1728329 99.4013847,28.9449748 99.7779369,29.6628865 C99.8574224,29.9408362 99.9708021,30.207951 100.115521,30.4582118 Z M92.963315,27.9864094 C92.9087366,28.0426336 92.8472077,28.0916644 92.7802185,28.1323144 C92.7907407,28.0610375 92.813998,27.9922344 92.8488797,27.9291917 L92.963315,27.9864094 Z M96.9685504,26.3499847 C96.9685504,26.2756017 96.9056109,26.0638964 96.8169236,25.6805382 C96.7053492,25.222797 96.6452706,24.9510132 96.6309662,24.8623258 L96.1388945,23.2974231 C95.9591837,22.7204191 95.7012092,22.1707795 95.372178,21.6638593 C95.1510931,21.8919124 94.9839266,22.166613 94.8829671,22.4677672 C94.9208468,22.4920265 94.9459999,22.5318523 94.9516283,22.5764808 C94.9556133,22.5865922 94.9556133,22.5978391 94.9516283,22.6079505 L94.8829671,22.5049587 L94.7542274,22.7080814 C94.7370621,22.6623072 94.7198968,22.6079505 94.6970097,22.5421502 L93.7729447,24.5705158 C93.7874089,24.5885786 93.7963496,24.6104338 93.7986927,24.6334552 C93.5241956,24.95476 93.3361321,25.3407333 93.2522641,25.7549211 L93.3609777,25.7549211 C93.4457738,25.7498196 93.5308,25.7498196 93.6155962,25.7549211 L93.8559103,25.7978344 L93.8559103,25.7978344 C93.956602,25.7895012 94.0542495,25.7592305 94.1419985,25.709147 L94.5539656,25.709147 L94.8886889,25.7921126 L95.2319947,25.8807999 C95.2720162,25.8736432 95.3100527,25.8580385 95.3435692,25.8350258 L96.9342198,26.46442 C96.9614721,26.4329233 96.9739647,26.3912813 96.9685504,26.3499847 Z" id="形状" fill="#E6591D"></path>
                <path d="M113.82773,28.4870638 C113.767611,28.545313 113.714776,28.6106363 113.670382,28.6816038 L113.759069,28.7788738 L113.759069,28.99344 C113.700282,28.99256 113.646943,29.0277409 113.624608,29.0821273 L113.052431,29.4111288 C112.852169,29.4454594 112.608994,29.4998162 112.322906,29.57706 C112.036818,29.6543038 111.859443,29.7000779 111.827974,29.7029388 L111.416006,29.7029388 L108.743942,30.1921497 C108.714589,30.1651498 108.674765,30.1525737 108.635229,30.1578191 L106.0118,30.7299956 C106.014031,30.7513341 106.023057,30.7713917 106.037548,30.7872133 L106.083322,30.7872133 C106.15133,30.7807743 106.219145,30.8013242 106.27214,30.8444309 L105.671355,30.8444309 L105.46251,30.93884 C105.46242,30.922319 105.452194,30.9075488 105.436762,30.9016485 L105.436762,30.9016485 C105.419597,30.9016485 105.402432,30.9188138 105.385266,30.9474227 L103.242465,31.3393636 L102.807611,31.256398 C102.673092,31.2312654 102.553875,31.1541853 102.475749,31.0418318 L102.249739,31.0418318 L102.249739,31.0046403 C102.070478,30.8919239 101.968125,30.6894199 101.983677,30.478238 C101.936377,30.3374293 101.916943,30.1887587 101.92646,30.0405229 L102.344148,26.707595 L102.344148,26.3213758 L102.630237,23.9153737 L102.630237,23.5091284 C102.664567,23.2545099 102.681732,23.082857 102.687454,22.9884478 C102.689375,22.9722931 102.689375,22.9559676 102.687454,22.9398128 C102.716063,22.5259385 102.777095,21.9423185 102.870551,21.1889528 C102.896299,21.0258825 102.950655,20.6654113 103.036482,20.113261 C103.156639,19.9644952 103.342596,19.7585116 103.585771,19.4924496 C103.68439,19.4679419 103.780249,19.4334325 103.87186,19.3894578 C103.977682,19.3929198 104.078931,19.4334193 104.157948,19.5038931 C104.245208,19.5839787 104.34117,19.6540309 104.444036,19.7127375 C104.468234,19.7885511 104.506043,19.8593215 104.55561,19.9215819 C104.612467,20.0556105 104.649105,20.1973396 104.664324,20.3421316 C104.730782,20.418405 104.810202,20.4823282 104.898916,20.5309499 L104.701515,22.9140649 L104.701515,23.5091284 L104.209444,28.8046218 L104.518419,28.8360915 C104.706935,28.7984059 104.898395,28.7773453 105.090595,28.773152 L111.407424,27.849087 L112.812117,27.849087 C113.100913,27.8963477 113.382565,27.9799781 113.650356,28.0979838 C113.650356,28.0979838 113.650356,28.0836794 113.650356,28.0836794 C113.624344,28.1136683 113.604858,28.1487426 113.593138,28.1866712 C113.618435,28.2246898 113.66198,28.2464621 113.707573,28.2438888 L113.744765,28.2438888 C113.763837,28.2629614 113.791492,28.3440197 113.82773,28.4870638 Z" id="路径" fill="#E6591D"></path>
            </g>
        </g>
    </g>
</svg>