<?xml version="1.0" encoding="UTF-8"?>
<svg width="96px" height="11px" viewBox="0 0 96 11" version="1.1" xmlns="http://www.w3.org/2000/svg" xmlns:xlink="http://www.w3.org/1999/xlink">
    <title>编组 42备份</title>
    <g id="页面-1" stroke="none" stroke-width="1" fill="none" fill-rule="evenodd">
        <g id="编组-42备份" transform="translate(0.000000, 0.611600)" fill="#FFFFFF" fill-rule="nonzero">
            <path d="M8.9004807,1.61058493 C8.9004807,1.61058493 8.9004807,1.64256818 8.88677359,1.6973966 C8.87940831,1.7297775 8.87406742,1.7625858 8.87078197,1.79563086 L8.76569416,1.90300319 L8.76569416,1.94412451 C8.7641029,2.00607807 8.79653847,2.0639361 8.85022131,2.09490267 C8.75469309,2.13253331 8.65705516,2.16457075 8.55780306,2.19085241 C8.51386101,2.19010556 8.47198998,2.17204355 8.44129266,2.14059302 L8.3956023,2.19085241 L8.2790919,2.14059302 L8.2790919,2.14059302 C8.23090321,2.14952931 8.18456438,2.16652022 8.14202085,2.19085241 C8.09407462,2.1641573 8.03876238,2.15373615 7.98438913,2.16115368 C7.99126122,2.18736341 7.99126122,2.21490207 7.98438913,2.2411118 L7.85188711,2.2411118 C7.78035989,2.24531046 7.71100626,2.2157083 7.66455666,2.16115368 C7.61757105,2.19195108 7.56306572,2.20932959 7.50692494,2.21141307 L6.5679882,2.2411118 C6.57171474,2.21165298 6.5615921,2.18212862 6.54057399,2.16115368 C6.50257827,2.1576724 6.46434382,2.1576724 6.4263481,2.16115368 L6.3738042,2.18171434 C6.34014385,2.20419639 6.31965412,2.24176089 6.31897577,2.28223312 C6.24787323,2.28410408 6.17948198,2.25491269 6.13164533,2.202275 C6.09557276,2.2349122 6.05474611,2.2618732 6.01056589,2.28223312 C5.92430018,2.25290365 5.83430441,2.23598137 5.74327733,2.23197373 C5.65983376,2.23711546 5.5775372,2.25403624 5.49883394,2.28223312 C5.49883394,2.22968921 5.48512684,2.19542145 5.45314359,2.18171434 C5.39374613,2.2159821 5.36176289,2.24568083 5.36176289,2.26852601 C5.37175917,2.27970839 5.38429475,2.28832661 5.39831517,2.2936557 C5.37405852,2.30007348 5.35037175,2.30847847 5.32749512,2.3187854 C5.30619777,2.32795463 5.28399067,2.33484649 5.26124411,2.33934606 C5.26239788,2.29992294 5.24851354,2.26153685 5.22240731,2.23197373 C5.17172137,2.23887411 5.12411578,2.26029662 5.08533625,2.2936557 C5.10213269,2.31821548 5.13117716,2.33141751 5.16072533,2.32792347 C5.09224872,2.34143286 5.02263052,2.34831818 4.95283423,2.34848413 C4.88982464,2.34854048 4.82700114,2.34164522 4.76550378,2.32792347 C4.78203798,2.34036939 4.80194354,2.34753539 4.82261672,2.34848413 L4.59416496,2.4101661 L4.31545381,2.4101661 L3.92251678,2.4101661 C3.92251678,2.4101661 3.90195612,2.39417448 3.88139546,2.39417448 C3.82826345,2.45438166 3.75360242,2.49130195 3.67350435,2.49697777 C3.33003507,2.5143133 2.98852949,2.55938898 2.65232497,2.63176431 C2.57367679,2.6688742 2.51582216,2.73930593 2.49469326,2.8236638 C2.43986483,3.05211556 2.36676027,3.36509447 2.26624149,3.77630765 L2.26624149,3.92708581 C2.30057152,3.97150234 2.34528783,4.00680469 2.396459,4.02988911 L3.29198991,3.99333682 L5.4668507,3.63009852 C5.52167912,3.63009852 5.635905,3.63009852 5.80724382,3.60953786 L6.06996335,3.58440817 L6.23673314,3.62324497 L6.3875113,3.66436628 C6.5291514,3.66436628 6.60225596,3.66436628 6.60225596,3.64380563 L6.60225596,3.64380563 C6.59934341,3.67138616 6.6085073,3.69887782 6.62738566,3.71919471 L7.01803817,3.71919471 C7.12106582,3.79039378 7.23537525,3.84368669 7.35614678,3.87682642 C7.36680786,3.93165485 7.39193756,4.02075104 7.43153586,4.14411499 C7.39955262,4.17609823 7.34015516,4.22635762 7.255628,4.3017467 L7.2807577,4.39312741 C7.29053828,4.39095672 7.30067584,4.39095672 7.31045643,4.39312741 C7.34787994,4.39072063 7.38476498,4.40301565 7.41325972,4.42739517 C7.39418168,4.45501476 7.37194784,4.48031533 7.34700871,4.50278426 C7.32873257,4.47993908 7.27847318,4.46851649 7.19394603,4.46851649 C7.18217002,4.47585426 7.1752032,4.48891705 7.17566989,4.50278426 C7.19726318,4.52859381 7.2226887,4.55093745 7.25105897,4.56903527 L7.25105897,4.56903527 C7.06465704,4.64048881 6.88499273,4.72840965 6.71419733,4.8317548 C6.70074189,4.8059729 6.68383293,4.78214664 6.66393794,4.76093475 C6.60090647,4.78574842 6.54400814,4.82394045 6.49716815,4.87287611 C6.31196019,4.90754391 6.13061053,4.96034191 5.95573747,5.03050783 C6.00322638,5.06023394 6.0574381,5.07751884 6.11336919,5.08076722 C5.96195109,5.10720121 5.81742561,5.16392358 5.68844891,5.247537 L5.59935272,5.247537 L5.50111846,5.247537 C5.402534,5.25253883 5.30984517,5.29601235 5.24296797,5.36861644 L5.07619818,5.36861644 L5.03507686,5.31835705 C4.91290518,5.39434445 4.77953179,5.45062339 4.63985531,5.48512684 L4.63985531,5.48512684 L4.63985531,5.44400552 L4.57817334,5.44400552 C4.5365327,5.5128858 4.47528308,5.56777183 4.40226548,5.60163724 C4.21879157,5.62251966 4.03654075,5.65302189 3.85626577,5.69301794 C3.77130733,5.74810207 3.67393135,5.78108426 3.57298558,5.78896768 L3.47018229,5.78896768 L3.35367189,5.78896768 L2.32792347,5.91004712 C2.29108255,5.88900133 2.25200269,5.87214335 2.21141307,5.85978773 L2.09033363,5.85978773 C2.00462711,6.08027241 1.9463164,6.31044623 1.91671029,6.54514302 C1.90639279,6.68120205 1.91484868,6.81803373 1.94183999,6.95178716 C1.94183999,6.97691685 1.91671029,7.01575365 1.86188187,7.06144401 L1.84132121,8.3567655 C1.84132121,8.3567655 1.84132121,8.55551854 1.84132121,8.93474847 C1.81226285,8.97059422 1.79474077,9.01439941 1.79106182,9.06039693 C1.69570393,9.16098265 1.59423087,9.25558911 1.48722098,9.34367712 C1.52377326,9.34367712 1.56489458,9.39850554 1.61286945,9.51044691 L1.51691971,9.53100757 C1.48107415,9.53345784 1.44791111,9.55086844 1.425539,9.57898244 C1.41365115,9.60056019 1.39077203,9.61375968 1.36614154,9.6132502 C1.3478654,9.6132502 1.3341583,9.58355147 1.32045119,9.52643853 C1.31341419,9.48470057 1.30113288,9.44401873 1.28389891,9.4053591 C1.25727372,9.40623993 1.23100126,9.39907471 1.20850983,9.38479844 C1.18794917,9.44191138 1.15139689,9.54471467 1.09656846,9.69320832 C1.02790319,9.66631004 0.962088648,9.63263748 0.900099948,9.59268954 L0.829279901,9.66350959 L0.753890819,9.66350959 C0.664794631,9.66350959 0.591690067,9.58583599 0.525439056,9.43505783 C0.491081966,9.43675809 0.457185531,9.44369145 0.42492028,9.45561849 C0.407319036,9.3949 0.351050468,9.35363638 0.287849222,9.35509971 L0.267288563,9.35509971 C0.218256749,9.25536534 0.191000899,9.14634195 0.187330446,9.03526724 L0.0799581172,8.93474847 L0,8.19456475 C0,8.04378659 0.0228451763,7.82218838 0.0456903527,7.5274856 L0.137071058,6.49488363 C0.287849222,5.62448241 0.402075104,4.87287611 0.475179668,4.24006473 L0.774451478,2.86935415 L0.774451478,2.69344629 C0.737038848,2.6746908 0.694878754,2.66753154 0.653372043,2.67288563 C0.624645894,2.62828196 0.607381495,2.57727351 0.603112655,2.52439199 L0.603112655,2.50611584 C0.524744227,2.31518702 0.45985717,2.11899909 0.408928656,1.91899481 C0.463932007,1.67923889 0.563935487,1.4520992 0.703631431,1.24963115 L2.30279377,0.961781924 L5.04421494,0.715054019 L6.24815573,0.662510114 L7.14825568,0.703631431 C7.2238193,0.753230273 7.30844763,0.78739217 7.3972681,0.804150207 L7.47722621,0.760744372 C7.50464043,0.760744372 7.5663224,0.774451478 7.66455666,0.795012137 C7.66455666,0.795012137 7.87473228,0.877254771 8.27680739,1.0234639 C8.48708216,1.09016222 8.6735449,1.21632211 8.81366903,1.3867022 C8.82217019,1.43554193 8.83675219,1.48312529 8.85707487,1.5283423 C8.87267873,1.55514215 8.88715989,1.58258013 8.9004807,1.61058493 L8.9004807,1.61058493 Z M6.11904693,5.07242229 C6.03177831,5.09613896 5.9429271,5.11359188 5.85317155,5.12464781 C5.86921983,5.17508006 5.89503122,5.2218632 5.92913595,5.26233327 C6.06682141,5.20535997 6.13329025,5.1436389 6.13329025,5.07242229 L6.11904693,5.07242229 Z" id="形状"></path>
            <path d="M11.0456428,2.202275 L10.8583123,5.20641569 L10.888011,5.93974585 C10.8541996,5.98896692 10.8351749,6.04683347 10.8331826,6.10651563 L10.8331826,6.53143591 L10.7532245,7.2167912 L10.7532245,7.6302889 L10.7326638,9.11294084 C10.7326638,9.13121698 10.7577935,9.17005378 10.8080529,9.22945124 C10.7882538,9.22945124 10.749417,9.25686545 10.6915425,9.31169387 L10.6207225,9.31169387 L10.5339108,9.27971063 C10.4128314,9.36880682 10.3534339,9.44648042 10.3534339,9.50816239 C10.3508117,9.51633374 10.3508117,9.52512074 10.3534339,9.53329209 C10.2334771,9.58480146 10.104722,9.61272425 9.97420399,9.61553472 C9.90799718,9.6192008 9.84235402,9.60158922 9.78687354,9.56527533 L9.27514159,9.19061444 L9.13807053,8.32935129 L9.50359336,2.26395697 C9.53100757,2.10860978 9.55613726,1.93727095 9.57898244,1.74765599 C9.57898244,1.6836895 9.60182761,1.60373138 9.62010376,1.50549712 C9.63609538,1.47351387 9.71376898,1.29760602 9.84855552,0.973204512 C9.94907429,0.73333016 10.0770073,0.59854362 10.2232164,0.564275856 C10.2856528,0.581607253 10.3461325,0.605339803 10.4036933,0.635095902 C10.6138689,0.863547666 10.7235258,0.977773547 10.7326638,0.993765171 C10.8467301,1.11826763 10.9317748,1.26651069 10.9816763,1.42782352 L11.0456428,2.202275 Z" id="路径"></path>
            <path d="M22.2603398,9.04668983 L22.2055114,9.11294084 L22.221503,9.15863119 C22.2318482,9.18253527 22.2380294,9.20803246 22.2397792,9.23402028 L22.0113274,9.41678169 C21.8522544,9.45344665 21.6913514,9.48166188 21.5292942,9.50130884 L21.5658465,9.50130884 L21.2665747,9.48074818 L21.0655371,9.48074818 C21.0031421,9.47726697 20.9406016,9.47726697 20.8782067,9.48074818 C20.8065318,9.5131849 20.728392,9.52881285 20.6497549,9.52643853 L17.2595307,8.95074009 L15.7631717,8.4344391 L14.5044025,7.84731807 C14.4462545,7.88028995 14.4110933,7.94270109 14.4130218,8.00951882 L14.4130218,8.5509495 L14.5820761,9.2888487 C14.5528326,9.36866055 14.537382,9.4528663 14.5363857,9.53786112 C14.5341174,9.56446557 14.5341174,9.59121479 14.5363857,9.61781924 L14.1617248,10.1752415 C14.1069132,10.1670393 14.0532452,10.1524723 14.0018086,10.1318357 L13.9469802,10.2072248 C13.799096,10.1547235 13.645866,10.1187145 13.4900766,10.0998525 C13.3851772,10.0149153 13.2736404,9.93852022 13.1565371,9.87140069 C13.0263195,9.7937271 12.9600685,9.72519157 12.9600685,9.66350959 C12.9189472,9.50130884 12.8664033,9.25914997 12.8024368,8.93474847 L12.8344201,7.43382038 L13.0628718,3.34453382 C13.0224546,3.20435349 12.9432639,3.07844025 12.8344201,2.98129551 C12.8344201,2.93103612 12.8344201,2.89905288 12.8595498,2.88991481 L12.8595498,2.88991481 C12.8558079,2.86491113 12.8472753,2.84086468 12.8344201,2.81909476 C12.8241131,2.79621813 12.8157082,2.77253136 12.8092904,2.74827471 C12.8853802,2.47929289 12.9943355,2.22071577 13.1336919,1.97839227 C14.0337918,1.24125458 14.7876826,0.843748513 15.3953643,0.785874066 C15.4871254,0.712736666 15.5896081,0.654175122 15.6992052,0.612250726 C15.7987514,0.569178505 15.8949652,0.518780819 15.9870544,0.461472562 L16.775213,0.198753034 C17.0722003,0.166769787 17.3120746,0.141640093 17.494836,0.116510399 L17.9951454,0.0502593879 C18.0636809,0.0502593879 18.3218314,0.0890961877 18.7695969,0.162200752 C18.8434731,0.205344355 18.9197473,0.244244179 18.9980486,0.278711151 C19.1630554,0.399760268 19.3053625,0.549027976 19.4183999,0.719623055 C19.6412517,0.906975378 19.8285272,1.1329442 19.9712532,1.3867022 L20.1060397,2.04464328 C20.0542364,2.21314797 20.0175392,2.38593049 19.9963828,2.56094427 C19.9447948,2.68262174 19.8763505,2.79643926 19.7930608,2.89905288 C19.7496549,3.00870972 19.6948265,3.15720337 19.626291,3.3559564 C19.4941104,3.53417186 19.3522574,3.7050056 19.2013707,3.86768835 C19.0810374,4.08630052 18.9268241,4.2844646 18.7444672,4.45480939 C18.399505,4.79977155 18.2144591,4.99167103 18.1870449,5.03050783 C18.001999,5.16300985 17.8397982,5.28865832 17.7027271,5.40516872 C17.580005,5.5742507 17.4143936,5.70752847 17.2229784,5.7912522 C16.9990957,5.91918519 16.6259578,6.17657418 16.1035648,6.56341916 C16.1035648,6.61596307 16.1035648,6.64109276 16.1241255,6.6456618 L16.1241255,6.6456618 L16.2474894,6.7621722 C16.8734472,6.94645662 17.5816477,7.12007996 18.3720908,7.28304222 C19.564609,7.53129313 20.338299,7.69806292 20.6931607,7.78335158 C20.7811435,7.79570458 20.8619962,7.83855651 20.9216125,7.90443101 L21.5795536,8.13288278 C21.9336538,8.36133454 22.1095617,8.51439722 22.1095617,8.57836371 L22.2557708,8.70858122 C22.2243011,8.76739184 22.1833984,8.8206426 22.1346914,8.86621294 C22.1712436,8.88677359 22.212365,8.91190329 22.2557708,8.94160202 L22.2603398,9.04668983 Z M18.4063672,2.06977298 L18.4063672,1.90757222 C18.2806686,1.84629584 18.1417099,1.81724797 18.001999,1.82304507 L17.7072962,1.84817477 C17.5176812,1.86416639 17.3920327,1.87330446 17.3280663,1.87330446 C17.0653467,1.95097806 16.7226691,2.04007425 16.3000333,2.14516206 C15.8631791,2.33342073 15.4162553,2.49739448 14.961306,2.63633335 C14.6323354,2.80767217 14.4701347,2.98814906 14.4701347,3.17319499 C14.4713268,3.2400627 14.4828869,3.30634059 14.5044025,3.36966351 C14.5044025,3.45419066 14.4792728,3.5752701 14.449574,3.73518633 L14.3376327,5.8689258 C15.1798582,5.24449098 15.8126696,4.76093475 16.2360668,4.4182571 C16.8061781,3.95689947 17.3323406,3.44373806 17.807815,2.88534577 C18.208367,2.40407406 18.4078816,2.13221646 18.4063672,2.06977298 Z" id="形状"></path>
            <path d="M32.3373471,0.765313407 C32.1797154,0.84984056 32.1088953,0.952643853 32.1088953,1.07600781 L32.1088953,1.08971491 L31.7707867,1.31816667 L31.811908,1.35471896 C31.8418256,1.35720762 31.8707222,1.34319712 31.8872971,1.31816667 C31.9005869,1.34705781 31.9090749,1.37792333 31.9124268,1.40954738 C31.8664638,1.42313993 31.8220534,1.44151663 31.7799248,1.4643758 L31.7296654,1.38441769 C31.7007782,1.43968738 31.640846,1.47146963 31.5788872,1.4643758 C31.5021556,1.46078874 31.4252936,1.46770632 31.3504355,1.48493646 C31.3710468,1.5033125 31.3983099,1.51240022 31.4258246,1.51006616 C31.2427272,1.57418488 31.0641343,1.6505066 30.8912474,1.73851792 C30.8912474,1.73851792 30.8912474,1.73851792 30.8912474,1.73851792 L30.8409881,1.70881919 C30.8103591,1.75800998 30.7767919,1.80530918 30.7404693,1.85045928 L30.4754652,1.85045928 C30.3621352,2.00620334 30.1836241,2.10135311 29.9911475,2.10860978 C29.963834,2.11193373 29.9362183,2.11193373 29.9089049,2.10860978 C29.5616582,2.15201561 29.3880348,2.22512018 29.3880348,2.32563895 C29.3437219,2.32355479 29.3026616,2.3017677 29.2760935,2.26624149 C29.1531473,2.29272062 29.0341314,2.33495207 28.9219932,2.39188996 L28.9334158,2.39188996 C28.8717339,2.39188996 28.8351816,2.39188996 28.8214745,2.36219123 C28.7830061,2.40836136 28.7478874,2.45722226 28.7163867,2.50840036 C28.6916129,2.49065192 28.6706406,2.46812614 28.6547047,2.44214935 C28.6322061,2.45104907 28.6080404,2.45494676 28.5838846,2.45357194 C28.5349822,2.45232068 28.4861789,2.44850792 28.4376755,2.44214935 C28.4213677,2.47397777 28.4127602,2.50919029 28.4125458,2.54495264 C28.4121114,2.58298017 28.4207248,2.62056606 28.4376755,2.65460949 L28.4376755,2.63404883 C28.4376755,2.6043501 28.4193994,2.58835848 28.3805626,2.58835848 L28.3006044,2.58835848 C28.2624831,2.61350035 28.2380499,2.65478408 28.2343534,2.70029984 L28.0630146,2.67973918 L27.923659,2.72314502 C27.8742129,2.74268071 27.8229368,2.7572217 27.7705964,2.76655085 C27.750122,2.75165387 27.7278658,2.73937458 27.7043453,2.72999857 C27.6743585,2.76129803 27.6579385,2.80316899 27.658655,2.84650897 L26.9732997,3.14578078 C26.9230403,3.31026605 26.8407977,3.52957974 26.7311408,3.79915282 C26.7311408,3.84484318 26.749417,3.92251678 26.7654086,4.02760459 L29.41088,3.821998 L30.1761934,3.821998 C30.1761934,3.92480129 30.1761934,3.9773452 30.1556328,3.9773452 C30.1350721,3.9773452 30.1556328,3.9773452 30.1442102,3.9773452 L30.4891723,3.9773452 C30.4881024,3.98415699 30.4881024,3.99109407 30.4891723,3.99790586 C30.4910358,4.02762175 30.4996288,4.05652546 30.514302,4.08243301 C30.4731807,4.13040788 30.4503355,4.15325306 30.443482,4.15325306 L30.443482,4.15325306 C30.5390145,4.18631284 30.6315026,4.22758854 30.7199086,4.27661701 C30.6684725,4.35992042 30.586472,4.41978076 30.4914569,4.4433868 L30.4526201,4.52791395 C30.4637587,4.56109031 30.4699177,4.59573463 30.4708962,4.63071724 L30.4708962,4.75179668 C30.4286302,4.79612441 30.3748284,4.82777249 30.315549,4.84317738 C30.315549,4.86830708 30.3361097,4.90029032 30.3498168,4.93227357 L29.273809,5.29779639 C29.2090887,5.30526093 29.1436453,5.29249149 29.0864785,5.26124411 C28.9678989,5.32725918 28.8358961,5.36553218 28.700395,5.37318547 L28.5450478,5.55137785 L28.4376755,5.55137785 C28.4126463,5.54820001 28.3873156,5.54820001 28.3622864,5.55137785 C28.3564869,5.54592324 28.349421,5.54199774 28.3417258,5.53995526 C28.3257341,5.53995526 28.3165961,5.56965399 28.3165961,5.60620627 L27.9990481,5.6610347 C27.9549354,5.66413987 27.9106589,5.66413987 27.8665461,5.6610347 C27.7977136,5.66642315 27.729331,5.64607119 27.6746466,5.60392176 L26.8910571,5.91918519 C26.7807386,5.9304075 26.6736595,5.9629968 26.5757936,6.01513493 L26.2673838,6.15220599 C26.2445386,6.18875827 26.1942792,6.27328542 26.1211746,6.41035648 C26.0640617,6.60454048 26.0023797,6.82156965 25.9384132,7.06144401 L25.9384132,7.26019704 L29.3080767,6.99519299 C29.3474923,7.00266454 29.3864044,7.01258331 29.4245871,7.02489172 L29.5365285,7.05230593 L29.993432,7.05230593 C30.0650136,7.06753605 30.2020846,7.09266575 30.4046452,7.12769502 L31.0420256,7.21907572 C31.1448289,7.25334349 31.3001761,7.29903384 31.4989291,7.36071582 C31.5971634,7.45895007 31.7502261,7.6051592 31.9558327,7.80162772 L31.9558327,8.07576983 L31.8530294,8.19228023 L31.9238494,8.27452287 C31.7959164,8.32478226 31.7296654,8.3567655 31.7228119,8.37504164 C31.7159583,8.39331779 31.7228119,8.37504164 31.7228119,8.37504164 C31.7081943,8.45316179 31.686006,8.52967327 31.6565608,8.60349341 C31.6201587,8.60817882 31.5833061,8.60817882 31.546904,8.60349341 C31.4920756,8.60349341 31.4235401,8.60349341 31.3390129,8.60349341 C31.3215616,8.62639661 31.3126716,8.65468284 31.3138832,8.68345153 C31.2380831,8.70902663 31.1697986,8.75297989 31.1151302,8.81138451 L31.1151302,8.81138451 C31.1151302,8.7839703 31.0854314,8.75884061 31.026034,8.73599543 L30.964352,8.73599543 C30.9083985,8.7356086 30.8525897,8.73025707 30.7975822,8.72000381 C30.7541764,8.72000381 30.6970634,8.72000381 30.6262434,8.70172767 C30.5496267,8.70172767 30.4750767,8.72657767 30.4137833,8.77254771 L30.4891723,8.83651421 C30.4208753,8.84005301 30.3524214,8.83389985 30.2858503,8.81823807 C30.2946991,8.7890872 30.310361,8.76246192 30.3315406,8.74056447 C30.2860133,8.73510573 30.2399969,8.73510573 30.1944696,8.74056447 L30.2264528,8.82737614 L28.823759,8.85707487 C28.6524202,8.85707487 28.5450478,8.89591167 28.506211,8.96901623 L28.4445291,8.91647232 L28.2160773,8.91647232 L27.1674837,9.0946647 C27.1080862,9.0946647 27.0692494,9.08324211 27.0555423,9.05811242 C27.0418352,9.03298272 27.0167055,9.09009566 26.9504545,9.14035505 L26.7951073,9.14035505 C26.7675173,9.17074896 26.7542182,9.21147744 26.758555,9.25229642 C26.7600363,9.22337808 26.7492531,9.19517601 26.7288563,9.17462282 L26.6374756,9.17462282 C26.6009233,9.21345962 26.5826472,9.23858931 26.5826472,9.25686545 C26.4188089,9.28472704 26.2530776,9.30000181 26.0869069,9.3025558 C26.0121503,9.34732756 25.9313742,9.38117658 25.8470325,9.40307458 L25.0497359,9.50359336 L24.4717529,9.50359336 L24.4055019,9.32311646 C24.1442099,9.15145795 23.9579953,8.88683729 23.8846319,8.58293275 C23.8352277,8.35795122 23.8129852,8.12785631 23.8183808,7.89757746 C23.8183808,7.85874066 23.8663557,7.74223026 23.9303222,7.54119271 C24.0993765,7.04316786 24.2463472,6.56113464 24.3712341,6.09509305 C24.3692032,6.07305607 24.3692032,6.05087901 24.3712341,6.02884204 C24.4393382,5.91415027 24.482901,5.78657369 24.4991671,5.65418114 C24.4511922,5.42572938 24.4260625,5.31607253 24.4214935,5.31607253 L24.4214935,5.31607253 L24.4214935,4.9231355 C24.4983692,4.81332085 24.5612952,4.69437537 24.6088239,4.56903527 C24.6659369,4.4433868 24.7367569,4.38170482 24.8167151,4.38170482 L24.8464138,4.38170482 L25.1045643,3.60268431 L25.1045643,3.47703584 L25.0588739,3.42220742 L24.9035267,3.42220742 C24.6087134,3.12751966 24.4001461,2.75778673 24.3004141,2.35305316 L24.4786064,1.66769787 C24.5815174,1.59677706 24.6806485,1.52052232 24.7755937,1.43924611 C24.7976149,1.44255377 24.8191156,1.44869681 24.8395602,1.45752225 L24.8966732,1.47579839 C25.1814807,1.45708403 25.4618295,1.39546892 25.7282376,1.29303698 C25.8180953,1.20622531 25.9597354,1.08514588 26.1531579,0.929798677 C26.2631172,1.00166679 26.3868117,1.04989986 26.5163962,1.07143877 C26.5438104,1.07143877 26.6009233,1.05316263 26.687735,1.03945552 C26.7333749,1.03641963 26.7791661,1.03641963 26.8248061,1.03945552 C26.8603411,1.03340486 26.8966433,1.03340486 26.9321784,1.03945552 L28.9653991,0.605397173 C29.0270811,0.605397173 29.0636333,0.605397173 29.0773404,0.635095902 C29.090896,0.615677532 29.098081,0.59252598 29.0979011,0.568844891 L29.4657084,0.509447432 C29.5410975,0.523154538 29.662177,0.543715197 29.8312313,0.568844891 C29.9070361,0.529573999 29.9782856,0.482074325 30.0436914,0.427204797 C30.0965137,0.431977026 30.1486271,0.442706252 30.1990386,0.459188044 L30.8272809,0.331255057 C30.9070394,0.361724741 30.9897155,0.383924815 31.0740089,0.397506068 C31.116577,0.346726025 31.1706059,0.306791649 31.2316406,0.280995669 C31.2681929,0.280995669 31.286469,0.308409881 31.286469,0.363238304 C31.2337225,0.394235322 31.1778153,0.419508431 31.1196992,0.438627386 C31.1334063,0.452334491 31.1768121,0.459188044 31.2522012,0.459188044 C31.3503982,0.425120338 31.4502884,0.396144556 31.551473,0.372376374 C31.551473,0.372376374 31.551473,0.372376374 31.551473,0.388367998 C31.5453524,0.401436939 31.5348432,0.411946131 31.5217743,0.418066727 C31.5651801,0.475179668 31.5925944,0.504878397 31.6017324,0.504878397 C31.6108705,0.504878397 31.6017324,0.504878397 31.6017324,0.504878397 L31.6017324,0.621388796 L31.7136738,0.662510114 C31.7573959,0.625375734 31.8141578,0.607277743 31.8713055,0.612250726 C32.020465,0.652256269 32.1738298,0.674494156 32.328209,0.678501737 C32.3397592,0.692925526 32.3468987,0.710377676 32.3487697,0.728761125 C32.3588633,0.731915386 32.3644888,0.742654926 32.3613345,0.75274856 C32.3581803,0.762842194 32.3474407,0.768467668 32.3373471,0.765313407 L32.3373471,0.765313407 Z M28.5105985,2.90749271 C28.5105985,2.84577164 28.4631208,2.81253722 28.4393819,2.81253722 C28.4916074,2.84102387 28.5200941,2.86476274 28.5200941,2.88850161 L28.5105985,2.90749271 Z" id="形状"></path>
            <path d="M48.45005,3.77402313 C48.45005,4.50354576 48.0197992,5.37546999 47.1592975,6.38979582 C47.0953993,6.45698917 47.0241292,6.51676415 46.9468374,6.5679882 C46.9468374,6.62738566 46.9194232,6.70505925 46.896578,6.79643996 L45.5258674,7.92042264 C45.219742,8.11917567 44.7902527,8.37732616 44.2419685,8.69944315 C44.2417927,8.67971068 44.2325193,8.66116388 44.2168388,8.64918376 L43.1431155,9.24087383 C43.0144728,9.4543335 42.7742491,9.57444538 42.5262957,9.54928371 L42.4006473,9.54928371 C42.2791551,9.61528621 42.1436551,9.65131512 42.0054257,9.65437152 L41.904907,9.75260578 L41.710723,9.75260578 L41.6855933,9.75260578 C41.6208566,9.75513296 41.5602372,9.78502746 41.5188235,9.83484841 C41.533506,9.84558052 41.5509362,9.85191879 41.5690829,9.85312455 L41.454857,9.91937557 L41.4936938,9.83484841 L41.4342963,9.79829613 C41.3904219,9.81851214 41.3444544,9.83383462 41.2972253,9.84398648 C41.2262383,9.84525832 41.1580841,9.8161681 41.1098948,9.76402837 L41.0436438,9.77773547 C40.9980238,9.78131986 40.9521928,9.78131986 40.9065727,9.77773547 L40.9522631,9.72747608 C40.9134263,9.67950121 40.8814431,9.65437152 40.8608824,9.65437152 C40.83712,9.66550394 40.8116173,9.67245922 40.7854933,9.67493218 C40.7956438,9.66141137 40.8026663,9.64580588 40.806054,9.62924183 L40.6849745,9.54928371 C40.6179063,9.53219189 40.552229,9.51004488 40.488506,9.4830327 C40.4934422,9.4457675 40.4836028,9.40804995 40.4610918,9.37794489 L40.5067822,9.32083195 C40.508955,9.30797752 40.508955,9.29484957 40.5067822,9.28199515 C40.5044869,9.22092918 40.479189,9.16298884 40.4359621,9.11979439 L40.4359621,8.76112512 C40.461242,8.6324191 40.5003038,8.50680847 40.5524725,8.38646423 C40.5330767,8.29734037 40.4849127,8.21706711 40.4154015,8.15801247 C40.360573,8.06891628 40.285184,7.92956071 40.1869497,7.76279092 C40.1321213,7.37442292 40.1069916,7.15054019 40.1069916,7.08885822 L40.1069916,4.01846652 L40.157251,2.52439199 L40.1161296,2.48555519 C39.8482176,2.61881423 39.6011741,2.79043637 39.3827995,2.99500262 C39.3521834,2.94434107 39.3186194,2.89552069 39.2822807,2.84879349 L39.1749084,2.84879349 C39.1543477,2.84879349 39.1452097,2.86706963 39.1452097,2.89905288 C39.0899919,2.82349522 39.0084962,2.771338 38.9167579,2.75284375 C38.9082157,2.631297 38.8336352,2.52425206 38.7225739,2.4741326 C38.7225739,2.46042549 38.7385655,2.396459 38.7682642,2.27766408 L38.6723145,2.18171434 C38.6713799,2.17183682 38.6713799,2.16189313 38.6723145,2.15201561 C38.6727342,2.11824751 38.6797174,2.08488335 38.6928752,2.05378135 L38.6426158,2.01037552 L38.6426158,1.90757222 C38.6887374,1.82582917 38.7211502,1.73707977 38.7385655,1.6448527 C38.742222,1.61985601 38.742222,1.5944603 38.7385655,1.56946361 C38.76218,1.50530589 38.8053273,1.45017323 38.8619295,1.4118319 C40.356004,0.612250726 41.5173005,0.178953881 42.3458189,0.111941364 L42.6610823,0.0502593879 L43.0814335,0.0502593879 C43.1904229,0.0463802766 43.2985599,0.0295078377 43.4035505,0 C43.5274796,0.0507887763 43.6602744,0.076415839 43.794203,0.0753890819 L43.9335586,0.0639664937 L44.0660606,0.0502593879 C44.3502477,0.0512746292 44.6330106,0.0904618715 44.9067631,0.166769787 C45.1842402,0.189744184 45.4544309,0.26738521 45.7017753,0.395221551 C46.5057704,0.605474805 47.2160411,1.07925673 47.7190043,1.74080244 C48.1844931,2.31699537 48.4420546,3.03333819 48.45005,3.77402313 Z M47.0016658,3.85169673 C46.9765361,3.69863405 46.9468374,3.51587264 46.9171386,3.3034125 C46.8254593,3.08353402 46.6955145,2.88165549 46.5333397,2.7071534 C46.4024967,2.53078805 46.248858,2.37254027 46.0764362,2.23654276 C46.0532806,2.24996713 46.0276262,2.25851859 46.0010471,2.26167246 C45.9462186,2.26167246 45.9005283,2.22512018 45.859407,2.15201561 C45.859407,2.15201561 45.859407,2.15201561 45.859407,2.14059302 C45.8499406,2.12398942 45.8384281,2.10863938 45.8251392,2.09490267 C45.8041811,2.10881673 45.77947,2.11599091 45.7543192,2.11546333 L44.6120603,1.69511208 L43.4126886,1.64028366 L42.6884965,1.66998239 C42.629099,1.66998239 42.3389653,1.74080244 41.8180953,1.8527438 C41.6820537,1.99804541 41.5539352,2.15056741 41.4342963,2.30964733 L41.5348151,7.65084955 L41.4137357,7.75365285 L41.4137357,7.84731807 C41.4342963,7.84731807 41.4617105,7.86559421 41.4959783,7.89986198 L42.5171577,7.60972824 C42.7769016,7.45289789 43.0453886,7.31102689 43.3213079,7.18480796 C43.7523202,6.97920137 44.0104707,6.85126838 44.0957594,6.801009 C44.3699015,6.74618057 44.896102,6.37532721 45.674361,5.68844891 C46.5592309,4.91932797 47.0016658,4.30707725 47.0016658,3.85169673 L47.0016658,3.85169673 Z" id="形状"></path>
            <path d="M51.6255295,2.202275 L51.438199,5.20641569 L51.4678978,5.93974585 C51.4340863,5.98896692 51.4150617,6.04683347 51.4130693,6.10651563 L51.4130693,6.53143591 L51.3331112,7.2167912 L51.3331112,7.6302889 L51.3125506,9.11294084 C51.3125506,9.13121698 51.3376803,9.17005378 51.3879397,9.22945124 C51.3666175,9.22945124 51.3277807,9.25686545 51.2714293,9.31169387 L51.2006092,9.31169387 L51.1137975,9.27971063 C50.9927181,9.36880682 50.9333206,9.44648042 50.9333206,9.50816239 C50.9306984,9.51633374 50.9306984,9.52512074 50.9333206,9.53329209 C50.8134344,9.58502179 50.6846358,9.61295402 50.5540907,9.61553472 C50.4878839,9.6192008 50.4222407,9.60158922 50.3667603,9.56527533 L49.8550283,9.19061444 L49.7179573,8.32935129 L50.0834801,2.26395697 C50.1108943,2.10860978 50.136024,1.93727095 50.1588692,1.74765599 C50.1702918,1.6836895 50.1817143,1.60373138 50.1999905,1.50549712 C50.2159821,1.47351387 50.2936557,1.29760602 50.4284422,0.973204512 C50.528961,0.73333016 50.656894,0.59854362 50.8031031,0.564275856 C50.8655395,0.581607253 50.9260192,0.605339803 50.98358,0.635095902 C51.1937557,0.863547666 51.3034125,0.977773547 51.3125506,0.993765171 C51.4266169,1.11826763 51.5116616,1.26651069 51.561563,1.42782352 L51.6255295,2.202275 Z" id="路径"></path>
            <path d="M64.3982676,6.26871639 C64.3361319,6.32970569 64.2973315,6.41053969 64.2886107,6.49716815 C64.2505192,6.50108893 64.2138103,6.51358559 64.1812384,6.53372043 C64.1652458,6.55937052 64.1551055,6.58823133 64.1515397,6.61824758 C64.1424495,6.6288972 64.1289782,6.6347909 64.1149874,6.63423921 C64.1017211,6.63442603 64.0890979,6.6285352 64.0807196,6.61824758 L64.0350293,6.67536053 C64.0350293,6.68678311 64.0670125,6.69363667 64.1104184,6.69363667 C63.9457519,6.99923425 63.6892285,7.24536893 63.3770882,7.3972681 C63.3770882,7.3972681 63.3770882,7.3972681 63.3770882,7.3972681 C63.3711562,7.35848959 63.3596126,7.3207807 63.3428204,7.28532673 L63.2468707,7.3972681 C63.2668341,7.42584919 63.2836831,7.45648368 63.2971301,7.4886488 L62.9338918,7.83132645 C62.9494178,7.84400866 62.9686835,7.8512333 62.9887202,7.85188711 L61.9218505,8.46413783 L61.8236162,8.42987007 C61.744854,8.446965 61.6731488,8.48759793 61.6180096,8.54638047 L61.6431393,8.54638047 C61.6823315,8.54407341 61.7212853,8.5387268 61.7596497,8.53038884 L61.8761601,8.50525915 C61.8338659,8.56769143 61.7864918,8.62652704 61.73452,8.68116701 C61.7162439,8.66060635 61.6751226,8.65146828 61.606587,8.65146828 L59.8018181,9.42591976 C59.4650259,9.56237652 59.1152133,9.66418195 58.7577935,9.7297606 C58.5100806,9.82773016 58.2450492,9.87436325 57.978773,9.86683166 C57.9692132,9.88513782 57.9644946,9.90558499 57.9650659,9.92622912 C57.8345267,9.95466907 57.7084775,10.0007846 57.590405,10.0633002 C57.4853172,10.045024 57.3482462,10.0198943 57.1746228,9.98105754 C57.12983,10.0281393 57.0741186,10.0634493 57.0124221,10.0838608 L56.9781543,10.0176098 C56.9541978,10.0377377 56.9320311,10.0599043 56.9119033,10.0838608 L56.6491838,10.0838608 C56.5262889,10.0113958 56.392995,9.95823237 56.2539622,9.92622912 L54.8329922,9.24087383 C54.7895864,9.24087383 54.7667412,9.24087383 54.7667412,9.26600352 L54.7256199,9.20660606 L54.5085907,9.07410404 L53.9717291,8.38874875 C53.8202547,8.20868239 53.7088867,7.99840721 53.6450431,7.77192899 C53.4479483,7.36947005 53.3537553,6.92440831 53.370901,6.47660749 C53.3745955,5.05163616 53.9373212,3.68501654 54.9380801,2.67060111 C55.9339456,1.61493258 57.2070798,0.861186464 58.6115844,0.495740326 C58.9707006,0.35905436 59.3376337,0.243863309 59.7104374,0.150778164 L60.1307886,0.121079435 L60.1604874,0.121079435 C60.4023567,0.148666068 60.6357952,0.226478877 60.8458427,0.349531198 C61.1862358,0.525439056 61.3575746,0.701346914 61.3575746,0.874970254 C61.3609349,0.909155638 61.3609349,0.943588162 61.3575746,0.977773547 C61.4470348,1.0959632 61.5044772,1.23524129 61.5243444,1.38213317 L61.4489553,1.56946361 C61.4566648,1.58741787 61.4666459,1.60430888 61.478654,1.619723 C61.4556135,1.70736877 61.4234547,1.79235974 61.3827043,1.87330446 C61.343739,1.95768389 61.3131327,2.04567719 61.2913236,2.13602399 C61.243049,2.21720489 61.1572195,2.26870263 61.0628718,2.27309505 C61.0267081,2.27842834 60.9903711,2.26458569 60.9669221,2.23654276 L60.8435581,2.35305316 L60.5214411,2.29822474 L60.0850983,2.29822474 L60.0074247,2.28451763 L59.9297511,2.28451763 C59.8310044,2.30534156 59.7345783,2.33595301 59.6419019,2.37589834 C59.5437876,2.40510298 59.4500444,2.44736424 59.3631907,2.50154681 C59.3293557,2.46886061 59.2934938,2.43833986 59.2558184,2.4101661 C59.2138646,2.4314423 59.188031,2.4750922 59.1895674,2.52210747 C59.0111513,2.54452806 58.8401156,2.60700685 58.689258,2.70486888 L57.2363048,3.32625767 C57.1944657,3.37469362 57.1605413,3.4294353 57.135786,3.48845843 C56.8845844,3.59678151 56.6663316,3.76933524 56.5029746,3.98876779 L56.4481462,3.92937033 C56.4218267,3.9728207 56.3981763,4.01783277 56.3773262,4.06415687 C56.2646687,4.14838019 56.1679616,4.25205016 56.0917615,4.37028223 C56.0040654,4.47870225 55.9360259,4.60163714 55.8907239,4.73352054 L55.8564561,4.73352054 C55.824374,4.73412539 55.7929556,4.74276544 55.7650754,4.75865023 L55.3081719,5.90090905 C55.2200792,6.13368832 55.1759267,6.38078788 55.1779544,6.62967017 C55.167774,6.82075891 55.2021873,7.01159602 55.2784732,7.18709248 C55.4463333,7.45754916 55.7044954,7.65987058 56.0072343,7.75822188 C56.310771,7.89091972 56.6377718,7.9616016 56.9690162,7.96611299 L57.3071248,7.96611299 C57.6149325,7.95547744 57.9209759,7.9149267 58.2209319,7.84503355 C58.505794,7.77470323 58.7950546,7.72356746 59.0867641,7.69197087 L60.4437676,7.14140212 C60.9238354,6.94931563 61.3882321,6.72017254 61.8327543,6.45604683 C61.8984928,6.39827544 61.9581964,6.33397929 62.0109466,6.26414735 C61.949812,6.23233689 61.8960935,6.18796073 61.8533149,6.13392985 C61.8554728,6.1288177 61.8554728,6.12305037 61.8533149,6.11793822 C61.8514268,6.10520459 61.8458698,6.09329685 61.8373233,6.08367046 L61.5791728,6.11793822 C61.4570122,6.09663344 61.3369845,6.06452412 61.2205035,6.02198848 L60.8001523,6.08367046 L60.6493741,5.98772072 C60.6254344,6.02453456 60.5857733,6.04816242 60.5420018,6.05168721 L60.1582028,6.05168721 C60.1582028,6.05168721 60.1422112,6.07224787 60.1422112,6.09280853 C60.1422112,6.11336919 60.1650564,6.13392985 60.1787635,6.13392985 L60.1170815,6.09280853 C60.0965463,6.07438758 60.0724395,6.0603901 60.0462615,6.05168721 L59.8680691,6.05168721 C59.8539044,6.0844329 59.8354682,6.11515992 59.8132407,6.14306792 C59.7355671,6.14306792 59.5550902,6.12250726 59.27181,6.08367046 L59.1050402,6.1019466 L58.9222788,6.12250726 C58.8758499,6.18698529 58.8046567,6.2292045 58.7258103,6.23901766 C58.6567591,6.24224408 58.5877316,6.23216142 58.5224882,6.20931893 L58.1181286,6.30069963 C57.9671515,6.31520577 57.8170472,6.26544745 57.7046309,6.16362858 L57.7046309,6.01970396 C57.6564658,5.98088172 57.6148187,5.93460714 57.581267,5.88263291 C57.521953,5.86149421 57.4658352,5.83228219 57.4144972,5.79582124 C57.4136566,5.76194879 57.4175004,5.72812264 57.4259198,5.69530246 C57.4064111,5.64800762 57.3911215,5.59908082 57.3802294,5.54909333 C57.3785674,5.54546718 57.3785674,5.5412969 57.3802294,5.53767074 C57.3855914,5.50795884 57.3990276,5.4802959 57.4190662,5.45771263 L57.2934177,5.33206416 C57.3371734,5.17765895 57.3556882,5.01719713 57.3482462,4.85688449 C57.3860448,4.79801861 57.4203711,4.73699411 57.4510495,4.67412308 L57.4510495,4.65813145 C57.4397365,4.60324259 57.4108688,4.55352596 57.3688068,4.51649136 C57.4464232,4.47465667 57.5046267,4.40415666 57.5310076,4.32002285 L57.8554091,4.19894341 L57.8759697,4.23321118 L61.5311979,4.1326924 L61.597449,4.1326924 C62.2873733,4.1326924 63.02908,4.43272572 63.8225691,5.03279235 L64.3982676,5.85293418 C64.4033615,5.90153745 64.4033615,5.95054003 64.3982676,5.99914331 C64.4096902,6.07681691 64.4052251,6.16362858 64.3982676,6.26871639 Z M59.2762952,2.63051031 L59.0151676,2.53555483 C58.9667541,2.58935405 58.9296223,2.65231671 58.9059688,2.72071803 L58.9059688,2.72071803 C59.0251645,2.67531803 59.1495733,2.64501332 59.2762952,2.63051031 L59.2762952,2.63051031 Z" id="形状"></path>
            <path d="M67.9506925,2.202275 L67.763362,5.20641569 L67.7930608,5.93974585 C67.7592493,5.98896692 67.7402247,6.04683347 67.7382324,6.10651563 L67.7382324,6.53143591 L67.6559897,7.2167912 L67.6559897,7.6302889 L67.6354291,9.11294084 C67.6354291,9.13121698 67.6605588,9.17005378 67.7131027,9.22945124 C67.6917805,9.22945124 67.6529437,9.25686545 67.5965923,9.31169387 L67.5257722,9.31169387 L67.4389605,9.27971063 C67.3178811,9.36880682 67.2561991,9.44648042 67.2561991,9.50816239 C67.2535769,9.51633374 67.2535769,9.52512074 67.2561991,9.53329209 C67.135463,9.58486981 67.0059476,9.61278929 66.8746847,9.61553472 C66.8085442,9.61857561 66.7430902,9.60101477 66.6873542,9.56527533 C66.5914045,9.49217077 66.4200657,9.36880682 66.1779068,9.19061444 L66.0408358,8.32935129 L66.4040741,2.26395697 C66.4314883,2.10860978 66.456618,1.93727095 66.4817477,1.74765599 C66.4817477,1.6836895 66.5045928,1.60373138 66.5205845,1.50549712 C66.5388606,1.47351387 66.6165342,1.29760602 66.7490362,0.973204512 C66.8518395,0.73333016 66.977488,0.59854362 67.1236971,0.564275856 C67.1868956,0.581520504 67.2481417,0.605253373 67.3064585,0.635095902 C67.5143496,0.863547666 67.6240065,0.977773547 67.6354291,0.993765171 C67.7486735,1.11848703 67.8329286,1.26671361 67.882157,1.42782352 L67.9506925,2.202275 Z" id="路径"></path>
            <path d="M82.1444006,1.00747228 C82.1056307,1.10943927 82.0885144,1.21836114 82.0941412,1.32730475 C82.0957092,1.42887769 82.0841919,1.53022978 82.0598734,1.62886107 C82.0952071,1.67731502 82.1143899,1.73566292 82.1147018,1.79563086 L82.0530198,1.81162248 L82.0027605,1.82761411 C81.955904,1.97697108 81.8780575,2.11475935 81.7743087,2.23197373 C81.7903003,2.28680215 81.7994384,2.31193185 81.8040074,2.31193185 C81.7611521,2.35510912 81.7118225,2.39133556 81.6577983,2.41930417 L80.9381752,2.36447575 L79.9466946,2.42615773 L79.9466946,2.42615773 C79.9261339,2.42615773 79.9010042,2.4101661 79.8713055,2.37589834 L79.8553139,2.37589834 C79.8049086,2.38530013 79.7586345,2.41003284 79.7228119,2.44671839 L79.546904,2.46042549 L79.3892723,2.47641711 C79.2903938,2.47089606 79.1913311,2.4832789 79.096854,2.5129694 C79.096854,2.4878397 79.0785779,2.46042549 79.0397411,2.42615773 C79.026034,2.44671839 78.9871972,2.45585646 78.9186617,2.45585646 L78.3680929,2.61348817 C78.3315406,2.61348817 78.2675741,2.61348817 78.1761934,2.61348817 L78.0436914,2.61348817 C78.0081682,2.60680446 77.9759572,2.58828312 77.9523107,2.56094427 L77.9134739,2.61348817 C77.8460777,2.61844156 77.7789781,2.62682901 77.7124363,2.63861787 L77.5319594,2.66374756 L77.3286374,2.63861787 C77.2007044,2.62034173 77.1321689,2.61348817 77.1230308,2.61348817 L76.4810813,2.69344629 C76.4331065,2.74370568 76.4102613,2.78025796 76.4102613,2.80081862 C76.3689028,2.78609359 76.3357058,2.75455643 76.3188806,2.71400695 C76.2761995,2.72889171 76.2315458,2.73736051 76.1863786,2.73913664 C76.152647,2.74013706 76.1193395,2.73141367 76.0904288,2.71400695 C76.046762,2.73108832 76.017228,2.77225701 76.0150397,2.81909476 L75.7066299,2.81909476 C75.6939604,2.83373746 75.6867022,2.85228606 75.6860692,2.87163867 L74.9573081,3.02698586 C74.752314,3.69561544 74.5920436,4.37714602 74.4775594,5.06706011 C74.4867553,5.11832968 74.4913427,5.17031961 74.4912665,5.22240731 C74.4935434,5.25663725 74.4935434,5.29098066 74.4912665,5.3252106 C74.2701936,6.51720136 74.1252144,7.7220548 74.0572081,8.93246395 C74.023018,8.96820917 73.9736616,8.98522863 73.9247061,8.9781543 C73.8969689,9.05126044 73.88153,9.12845533 73.8790158,9.20660606 C73.7819144,9.26494718 73.6921751,9.33474449 73.6117272,9.41449717 L73.6368569,9.41449717 C73.4713224,9.36837953 73.3025535,9.33477848 73.1319785,9.31397839 C73.1055496,9.24594715 73.0750338,9.17957517 73.0405978,9.11522536 C73.0104484,9.10907114 72.9793665,9.10907114 72.9492171,9.11522536 C72.8875351,9.0169911 72.8098615,8.88677359 72.7207653,8.69030508 L72.750464,7.33787064 L73.2302127,4.42967969 C73.3124554,4.11213174 73.394698,3.77630765 73.4792252,3.41763838 L73.4792252,3.22116986 C73.4632335,3.19604017 73.4358193,3.16405692 73.3992671,3.11836657 C73.3137355,3.13743549 73.2303187,3.164986 73.1502546,3.2006092 L73.1502546,3.2006092 C73.1281865,3.19611053 73.107697,3.1858658 73.0908572,3.17091048 C73.0778176,3.15905396 73.0621628,3.15044381 73.0451668,3.14578078 C72.9675256,3.16136767 72.8911613,3.18274968 72.8167151,3.20974728 L72.5882633,3.28056732 L72.4877445,3.26686022 L72.3963638,3.25086859 L71.7247156,3.38337062 L71.6036362,3.35824092 L70.6898291,3.56384751 L69.7897292,3.65065918 L69.2894198,3.65065918 C69.1745319,3.56589215 69.0484441,3.49746644 68.9147589,3.44733711 C68.8954994,3.41174104 68.888286,3.37086487 68.8941983,3.33082671 C68.8609813,3.30129329 68.8231716,3.27737285 68.7822569,3.26000666 L68.7822569,3.23487697 C68.7730814,3.15019056 68.7379755,3.07040438 68.6817381,3.00642521 L68.6817381,2.86478511 L68.8987673,2.10175622 C68.9764409,2.06520394 69.0929513,1.99895293 69.2437295,1.90985674 C69.7234782,1.81999905 70.6494693,1.67607444 72.0217029,1.47808291 L80.0654895,0.466041597 L81.7560326,0.466041597 C81.7902146,0.556406745 81.841397,0.639384265 81.9068107,0.710484984 C81.9637359,0.781073291 82.0127641,0.857679999 82.0530198,0.938936747 C82.0576075,0.950689004 82.0576075,0.963736773 82.0530198,0.97548903 L82.1444006,1.00747228 Z" id="路径"></path>
            <path d="M85.050307,9.03755176 L84.9132359,9.13807053 C84.9236618,9.19305351 84.9290149,9.24887799 84.9292275,9.30484032 C84.9272872,9.39353582 84.9150204,9.48170329 84.8926753,9.56755985 L84.8926753,9.47617914 C84.8560946,9.44914992 84.8237548,9.41681011 84.7967255,9.3802294 C84.7896313,9.39659615 84.7804141,9.41195815 84.7693113,9.42591976 C84.7579076,9.4438096 84.744909,9.46063126 84.7304745,9.47617914 C84.7304745,9.48988625 84.7487507,9.51273143 84.7853029,9.54699919 L84.7853029,9.65894055 C84.7547053,9.68438686 84.7152883,9.69670465 84.6756461,9.69320832 C84.640856,9.78293252 84.5980379,9.86933325 84.5477131,9.95135881 L84.0062824,9.95135881 L83.5219647,9.32083195 C83.4698918,8.96771494 83.3230409,8.63532667 83.0970444,8.35905002 C83.121451,8.31366993 83.1369594,8.26404325 83.1427348,8.21284089 C83.1437694,8.19461395 83.1398206,8.17644936 83.1313122,8.16029699 C83.0695684,8.08312935 83.0202391,7.99680308 82.985103,7.90443101 C82.8570962,7.72235407 82.7031688,7.55996058 82.5281995,7.42239779 C82.4033813,7.29384549 82.2601825,7.18452163 82.1032792,7.09799629 L81.6326686,6.85583742 C81.4650573,6.84625603 81.300752,6.80517971 81.1483509,6.73475798 C81.1155006,6.71030786 81.0769863,6.69458777 81.0364095,6.68906763 C81.0247843,6.65109325 81.0078648,6.61494694 80.9861501,6.5816953 L80.9198991,6.5816953 C80.8899883,6.61494053 80.8632213,6.65088484 80.839941,6.68906763 C80.6412846,6.66168747 80.4470089,6.60870319 80.261958,6.53143591 L79.9992385,6.70962829 C79.971735,6.66259145 79.937914,6.61954649 79.8987197,6.5816953 C79.859919,6.58634006 79.8241618,6.60503129 79.7982009,6.63423921 C79.7626095,6.61944489 79.7282359,6.60187616 79.6953976,6.5816953 L79.6040169,6.6982057 C79.6516924,6.71686634 79.6951804,6.74482288 79.7319499,6.78044834 C79.5415446,6.77983486 79.3594661,6.85845967 79.2293561,6.99747751 L79.0168959,6.99747751 L78.9620675,6.94721812 C78.9149435,6.94311061 78.8675514,6.94311061 78.8204274,6.94721812 L78.765599,6.96320975 L78.3612394,7.75822188 C78.3470458,7.77283498 78.3395936,7.79270772 78.3406787,7.81305031 C78.3428315,7.83777507 78.3498171,7.86183673 78.3612394,7.88387035 C78.3132645,7.97753558 78.2515825,8.09404598 78.1739089,8.23340155 C78.0322688,8.23340155 77.9454571,8.22197896 77.9454571,8.20370282 L77.8883442,8.28366094 L77.799248,8.28366094 C77.7638617,8.21254021 77.7071578,8.15423897 77.6370473,8.11689115 C77.5844463,8.09645355 77.5345709,8.06959755 77.4885536,8.03693304 C77.4903725,8.01784359 77.4974943,7.99964339 77.5091143,7.98438913 C77.4591287,7.91818437 77.4297318,7.83873324 77.4245871,7.75593737 C77.3737637,7.6963073 77.3264696,7.63375712 77.282947,7.56860692 L77.282947,7.2030841 L77.3080767,7.0865737 C77.4645555,6.94936233 77.5973182,6.78726834 77.7010138,6.606825 C77.8533915,6.46926459 77.9615206,6.28957941 78.0117082,6.09052401 C78.0711056,5.97629813 78.1624863,5.80952834 78.2835658,5.59021465 C78.358682,5.3802831 78.4641263,5.18247886 78.5965447,5.00309362 C78.6650802,4.83403931 78.7633145,4.58045786 78.8958165,4.24006473 C78.9232307,4.20122793 78.968921,4.13497692 79.0328875,4.03674266 C79.0522698,3.9686899 79.0660232,3.89915858 79.0740089,3.82885155 C79.2110799,3.55166341 79.4349626,3.06963019 79.745657,2.38275189 C79.8400136,2.19017692 79.946852,2.00397286 80.0654895,1.82532959 C80.1490412,1.67684277 80.2252829,1.52435954 80.2939413,1.36842606 C80.4096902,1.02117938 80.577983,0.596259102 80.7988197,0.093665223 C80.8645889,0.0715637505 80.9287149,0.0448445638 80.9907191,0.0137071058 C81.0790538,0.0411213174 81.2161249,0.0731045643 81.4019323,0.109656846 C81.5615611,0.211231118 81.7107777,0.328308727 81.8474133,0.459188044 C81.8886629,0.537697101 81.9252779,0.618555234 81.9570701,0.701346914 C82.2312122,1.04250155 82.6058731,1.83522917 83.0810528,3.07952977 C83.0947533,3.10910837 83.1238691,3.12851892 83.1564419,3.12978916 C83.1695479,3.19834668 83.1886592,3.26561847 83.2135548,3.33082671 C83.2375295,3.39693406 83.255871,3.46495042 83.2683832,3.53414878 C83.270653,3.57282773 83.2555807,3.61050854 83.2272619,3.63695207 C83.2718723,3.66622634 83.3146007,3.69827263 83.3551949,3.73290181 C83.5196802,4.18980534 83.7671696,5.10361239 84.0976631,6.47432297 L84.1593451,6.57484175 C84.2704052,7.21259441 84.4800435,7.82917752 84.7807339,8.40245586 C84.844206,8.62440871 84.9347437,8.83770955 85.050307,9.03755176 Z M79.541,7.14871088 C79.4504244,7.24201767 79.3483141,7.32338681 79.2371424,7.39084738 C79.2546044,7.27255986 79.2932011,7.15837783 79.351089,7.05375539 L79.541,7.14871088 Z M82.5373376,5.75698444 C82.5373376,5.69758698 82.4870782,5.52853267 82.4162582,5.22240731 C82.327162,4.85688449 82.2791871,4.63985531 82.2677645,4.56903527 L81.8748275,3.31940412 C81.7313219,2.85864564 81.52532,2.41973857 81.2625767,2.01494455 C81.0860325,2.19705318 80.952544,2.41641146 80.8719242,2.65689401 C80.9021725,2.67626592 80.9222582,2.70806821 80.9267527,2.74370568 C80.9299349,2.75178001 80.9299349,2.76076104 80.9267527,2.76883537 L80.8719242,2.68659274 L80.7691209,2.84879349 C80.7554138,2.81224121 80.7417067,2.76883537 80.7234306,2.71629147 L79.9855314,4.33601447 C79.9970815,4.35043826 80.0042211,4.36789041 80.006092,4.38627386 C79.7868962,4.64284729 79.6367208,4.95106086 79.5697492,5.28180477 L79.6565608,5.28180477 C79.7242737,5.27773099 79.7921701,5.27773099 79.8598829,5.28180477 L80.0517824,5.31607253 L80.0517824,5.31607253 C80.1321883,5.30941823 80.2101634,5.28524595 80.2802342,5.24525249 L80.6092047,5.24525249 L80.8764933,5.3115035 L81.1506354,5.38232354 C81.182594,5.37660864 81.2129675,5.36414773 81.2397316,5.34577126 L82.5099234,5.84836514 C82.5316854,5.82321394 82.5416612,5.78996131 82.5373376,5.75698444 Z" id="形状"></path>
            <path d="M96,7.46351911 C95.9519928,7.51003321 95.9098022,7.56219621 95.8743515,7.61886631 L95.9451716,7.69653991 L95.9451716,7.86787873 C95.8982277,7.86717602 95.8556347,7.89526927 95.8377992,7.93869878 L95.3808957,8.2014183 C95.2209795,8.22883252 95.0267955,8.27223835 94.7983437,8.33392033 C94.569892,8.3956023 94.4282519,8.43215459 94.4031222,8.4344391 L94.0741516,8.4344391 L91.9404122,8.82509162 C91.9169726,8.80353124 91.8851713,8.79348874 91.8536005,8.79767741 L89.7586978,9.25458093 C89.7604794,9.27162048 89.7676869,9.28763722 89.7792585,9.30027129 L89.8158108,9.30027129 C89.8701182,9.29512959 89.9242706,9.31153942 89.9665889,9.34596164 L89.4868402,9.34596164 L89.3200704,9.42135072 C89.3199981,9.40815807 89.3118326,9.39636353 89.2995098,9.39165199 L89.2995098,9.39165199 C89.2858027,9.39165199 89.2720956,9.4053591 89.2583885,9.42820427 L87.5472848,9.74118319 L87.2000381,9.67493218 C87.0926198,9.65486291 86.9974206,9.59331171 86.935034,9.50359336 L86.7545571,9.50359336 L86.7545571,9.47389463 C86.6114104,9.38388651 86.5296782,9.22217976 86.542097,9.05354338 C86.5043261,8.94110259 86.4888073,8.82238374 86.4964066,8.70401218 L86.8299462,6.04254914 L86.8299462,5.73413926 L87.058398,3.81285993 L87.058398,3.48845843 C87.0858122,3.28513636 87.0995193,3.1480653 87.1040883,3.07267622 C87.105622,3.05977604 87.105622,3.04673959 87.1040883,3.03383942 C87.1269335,2.70334587 87.1756699,2.23730427 87.2502975,1.63571463 C87.2708581,1.50549712 87.314264,1.2176479 87.3827995,0.776735995 C87.4787492,0.657941078 87.6272429,0.493455809 87.8214269,0.280995669 C87.9001773,0.261425429 87.9767245,0.233868418 88.0498786,0.198753034 C88.1343813,0.20151754 88.2152322,0.233857906 88.2783304,0.290133739 C88.3480105,0.354085011 88.4246395,0.41002418 88.5067822,0.456903527 C88.5261054,0.517443431 88.5562971,0.573956155 88.5958783,0.623673314 C88.6412805,0.73069995 88.6705369,0.843875777 88.68269,0.959497406 C88.7357593,1.02040445 88.7991788,1.07144941 88.8700205,1.11027557 L88.7123887,3.01327876 L88.7123887,3.48845843 L88.3194517,7.71710057 L88.5661796,7.74223026 C88.7167163,7.71213702 88.8696045,7.69531932 89.0230831,7.69197087 L94.0672981,6.95407168 L95.1889962,6.95407168 C95.4196106,6.99181104 95.6445197,7.05859294 95.8583599,7.15282471 C95.8583599,7.15282471 95.8583599,7.14140212 95.8583599,7.14140212 C95.8375887,7.16534938 95.8220286,7.19335743 95.8126696,7.22364476 C95.8328704,7.25400401 95.8676423,7.27138996 95.9040503,7.26933511 L95.933749,7.26933511 C95.9489791,7.28456523 95.9710628,7.34929323 96,7.46351911 Z" id="路径"></path>
        </g>
    </g>
</svg>