<?xml version="1.0" encoding="UTF-8"?>
<svg width="51px" height="43px" viewBox="0 0 51 43" version="1.1" xmlns="http://www.w3.org/2000/svg" xmlns:xlink="http://www.w3.org/1999/xlink">
    <title>编组 43</title>
    <g id="页面-1" stroke="none" stroke-width="1" fill="none" fill-rule="evenodd">
        <g id="编组-43" transform="translate(0.270500, -0.000000)" fill-rule="nonzero">
            <path d="M9.55471128,40.8498474 C6.7532556,39.7940681 4.4887911,38.0247277 2.8869191,35.5163418 C0.62427491,31.9685594 -0.123872124,28.0093871 0.0162916756,23.8499809 C0.18558042,22.6522175 0.283877111,21.4471729 0.744415309,20.2985578 C1.6257321,18.0076567 3.1208512,16.0036681 5.06582908,14.5063343 C6.72413065,13.1847899 8.69552539,12.5221974 10.6650998,11.8650659 C11.302208,11.6520897 11.9010897,11.2916685 12.603729,11.3006009 C12.9441268,11.3954261 13.3081886,11.4027074 13.6103599,11.630246 C14.0508747,11.9615422 14.2929758,12.3365259 13.9744217,12.8807983 C13.6267427,13.3813833 13.0642672,13.6198438 12.6110102,13.9893666 C11.9260529,14.5180495 11.3707266,15.1960208 10.9872945,15.9716832 C10.8416698,16.282956 10.677842,16.6470178 11.0237007,16.9000408 C11.3695594,17.1530637 11.7208791,17.0110796 12.0357926,16.7871816 C12.2396672,16.6433772 12.3998544,16.4504244 12.5928071,16.2865966 C12.867523,16.0147986 13.1911552,15.7973968 13.5466491,15.6458478 C13.9307343,15.5093246 14.3184601,15.4984028 14.6242721,15.8151366 C14.930084,16.1318704 14.8754747,16.4886509 14.7262094,16.83633 C14.3421242,17.7246408 13.6467661,18.3999755 13.0879312,19.162685 C12.7238694,19.6559887 12.3488857,20.1456519 12.1541126,20.7336117 C11.9065506,21.4817588 12.2287453,21.8531018 12.9932751,21.6619694 C14.0035467,21.4107667 14.9846933,21.0430643 16.0277304,20.9174629 C17.0070567,20.8009632 17.9736408,20.7736585 18.9202015,21.1140563 C19.9413949,21.4781181 20.4310581,22.1825777 20.4911283,23.262021 C20.5766828,24.7510339 19.9450355,25.9924847 19.2041697,27.2084511 C18.4309257,28.4388627 17.5230643,29.579337 16.4973701,30.6087885 C15.2013101,31.9448954 13.8451798,33.220932 12.5618619,34.5679608 C11.3440751,35.8421771 10.3629285,37.278401 9.9606402,39.0422805 C9.89023612,39.3750374 9.85485074,39.714249 9.85506228,40.0543723 C9.83321857,40.3492624 9.84232011,40.653254 9.55471128,40.8498474 Z" id="路径" fill="#DC271D"></path>
            <path d="M9.55471128,40.8498474 C9.31625079,38.0210871 10.8289276,35.9805206 12.6128305,34.0619148 C14.2001401,32.3471837 15.978582,30.8163037 17.4948995,29.0305805 C18.6635379,27.6562472 19.6938329,26.1927187 20.1234258,24.3997142 C20.5894249,22.4519835 19.7721062,21.3197512 17.7679459,21.1395406 C16.4336593,21.0212206 15.1485211,21.2797044 13.8852266,21.6947349 C13.4820603,21.8450428 13.0658673,21.9577745 12.6419555,22.0314921 C11.9993864,22.1170466 11.6589886,21.7493442 11.7172385,21.1013142 C11.7736681,20.4860497 12.1195268,19.9945662 12.4617449,19.5194656 C13.0078376,18.7640373 13.6212818,18.0632183 14.1455308,17.2950479 C14.4167568,16.9000408 14.9519277,16.4049167 14.4112959,15.929816 C13.8706641,15.4547154 13.4155868,15.958941 13.004197,16.3193622 C12.6929784,16.6165096 12.3654203,16.8960582 12.0230504,17.1567044 C11.5970981,17.4497741 11.1128959,17.4952819 10.701506,17.1330403 C10.3374442,16.8035644 10.4848892,16.3685105 10.6468967,15.9953472 C11.1656848,14.810326 12.0649175,13.9602416 13.1261577,13.2648835 C13.3500557,13.1174385 13.5703131,12.9608919 13.7923908,12.807986 C15.0156385,11.8104566 16.4573233,11.6793943 17.9481565,11.783152 C19.4954832,11.888436 20.9715764,12.473147 22.1712735,13.456016 C23.2291074,14.3179425 24.0675317,15.4183745 24.6177689,16.6670412 C25.7008529,19.033443 26.0030242,21.5199852 25.7317981,24.0902617 C25.2730802,27.8564812 23.4200056,31.0493033 21.5651106,34.2439457 C20.8733932,35.4362482 20.1853163,36.630371 19.759364,37.9591966 C19.1331777,39.9142085 20.3382223,40.8716911 21.8709225,41.1319953 C22.4484639,41.2473522 23.0368842,41.2992357 23.6257005,41.2867216 C23.8969266,41.2721591 24.1717932,41.2867216 24.364746,41.5342836 C19.4735755,42.8303437 14.629733,42.8085 9.84960135,41.0118549 C9.74767448,40.9647407 9.64914097,40.9106081 9.55471128,40.8498474 L9.55471128,40.8498474 Z" id="路径" fill="#FFFFFF"></path>
            <path d="M24.364746,41.530643 C23.5710912,41.5106196 22.7774365,41.5670492 21.985602,41.45419 C19.6483251,41.1192532 18.7836783,39.6793887 19.5973565,37.4768147 C20.0731195,36.2720689 20.6599691,35.114214 21.3503141,34.0182274 C23.2088497,30.9127801 24.9071981,27.743622 25.5006189,24.1102851 C25.8337354,23.8863871 26.0721959,24.1102851 26.2760705,24.3123394 C27.9944423,25.994305 29.6933974,27.6932601 31.372936,29.4092048 C31.6896697,29.7332198 31.7242556,30.1373284 31.7024119,30.546898 C31.6825321,30.7202644 31.6199904,30.8860001 31.520381,31.0292799 C30.9742883,31.8356768 30.318977,32.5583395 29.8074701,33.3774786 C28.8372454,34.9320226 29.5690097,36.1789343 31.4038812,36.2353639 C32.3559687,36.2361601 33.2990114,36.0506435 34.1798526,35.6892712 C34.6786173,35.5072402 35.2501943,35.4744747 35.6543029,35.0576239 C35.9783179,34.899257 36.2804893,34.6935621 36.620887,34.5643201 C36.8575272,34.475125 37.0905268,34.3822892 37.3126045,34.5898045 C35.0845462,37.0199171 32.39777,38.7528513 29.3287289,39.9415132 C27.7086538,40.5859026 26.0776568,41.182964 24.364746,41.530643 Z" id="路径" fill="#DC271D"></path>
            <path d="M42.6588523,10.900302 C41.6540417,11.9670032 40.6146452,13.002759 39.8100686,14.2423895 C39.0546403,15.4073873 38.4211727,16.6178929 38.275548,18.0286324 C38.0935171,19.8780664 38.9636248,21.0467049 40.802137,21.3852824 C40.6929185,21.889508 40.2797083,21.8057738 39.9447714,21.7948519 C38.6341489,21.7566254 37.3708544,20.7627367 36.9776676,19.4921609 C36.5844809,18.2215852 36.5753793,17.2094933 36.921238,15.7332227 C36.8829837,15.8656509 36.7844737,15.9722576 36.6554729,16.0208315 C36.3369188,16.0881829 36.1530676,15.8733865 35.9637555,15.6840743 C35.4395065,15.1598253 34.9061559,14.6410372 34.3928287,14.1076867 C33.7630018,13.4523754 33.746619,13.3103913 34.1525479,12.4694085 C34.2217197,12.3274244 34.2490243,12.1708778 34.3181961,12.0270734 C34.9534839,11.2989497 35.6197171,10.6017714 36.7228244,10.228608 C36.1239427,10.4725294 35.6634045,10.5799276 35.1737413,10.4579669 C35.00347,10.4054355 34.8258105,10.380846 34.647672,10.3851546 C34.0797356,10.3742327 33.5554866,10.2795766 33.1659404,9.77171041 C32.9071215,9.45873848 32.5742528,9.21534387 32.197536,9.06361018 C31.9372318,8.94346978 31.6514432,8.84335278 31.5840918,8.50113467 C31.6660057,8.12433069 31.9900207,8.03331524 32.2867311,7.95504195 C33.0274277,7.74583391 33.7505041,7.4786365 34.4492583,7.15592626 C34.5737306,7.09964431 34.7054616,7.06104408 34.8406248,7.04124679 C35.1154914,6.99755937 35.4031003,6.97389535 35.5996937,7.20689491 C35.796287,7.43989448 35.6597639,7.72386269 35.5232407,7.95868257 C35.3412098,8.27177573 35.1591789,8.5866892 34.9607652,8.9671338 C35.7143731,8.28451789 36.573559,7.88951082 37.3999793,7.43807417 C37.6202708,7.2723486 37.8888449,7.18346334 38.1645092,7.1850512 C38.8252814,7.26150419 39.3167648,7.61828477 39.7700218,8.09520575 C40.7074809,9.04176647 41.655862,10.00471 42.6588523,10.900302 Z" id="路径" fill="#F18E28"></path>
            <path d="M16.6393542,5.0207037 C18.1465702,4.1378538 19.6519658,3.25136327 21.2811424,2.60151293 C21.540289,3.05196652 21.8689608,3.4586594 22.2550078,3.80655754 C24.4393787,5.99092845 26.6474136,8.17529935 28.8208626,10.3833343 C29.1849244,10.7601382 29.7765249,10.929427 29.9312512,11.5210274 C29.7801655,11.9815656 29.3523929,12.0671202 28.9737686,12.1909012 C28.3725817,12.3892417 27.7872092,12.6326398 27.2226312,12.9190248 C26.348047,13.294973 25.431252,13.5638995 24.4921676,13.7199608 C22.786538,14.0275931 21.6506651,12.8953608 21.8982272,11.200653 C22.1294064,9.62608569 21.9164303,8.08428389 21.5013998,6.56068519 C21.3739782,6.08740483 21.1992285,6.09104545 20.8897759,6.44054479 C20.4383393,6.95023133 19.9650589,7.44353509 19.3006461,7.69109713 C18.5961865,7.85128433 18.0773984,7.54911302 17.6241414,7.04124679 C17.3074077,6.68810682 16.9397052,6.38047459 16.6302527,6.01823308 C16.3462845,5.68875714 16.2334253,5.34653903 16.6393542,5.0207037 Z" id="路径" fill="#EE752F"></path>
            <path d="M36.5662778,15.9534801 C36.8557069,15.65859 36.8793709,15.2253564 37.174261,14.8230681 C37.3144248,15.3436765 37.1232924,15.7732695 37.05048,16.1846593 C36.8583753,17.2780454 36.9307777,18.4015316 37.2616358,19.4612157 C37.651182,20.7554554 39.3113039,21.9404766 40.802137,21.3834621 C41.8422997,21.3124084 42.8517651,21.000845 43.7510377,20.4733075 C44.1844902,20.2301655 44.6404851,20.0296009 45.1126289,19.8744258 C45.9827367,19.5886373 46.4268921,19.9982068 46.2648846,20.9010802 C46.0446272,22.1243279 45.4621283,23.2001305 44.8523247,24.2559098 C43.4270227,26.7242489 41.9252677,29.1434397 40.1067789,31.3551152 C39.7663811,30.9910534 40.0594509,30.6834212 40.225099,30.3830702 C40.9532227,29.0597055 41.726854,27.7527235 42.0454081,26.2400467 C42.1371281,25.7954019 42.0920708,25.3334057 41.9161662,24.9148617 C41.7013697,24.368769 41.3864562,24.2377067 40.8385432,24.4470422 C39.9666151,24.7783385 39.5169988,25.5137434 39.1474761,26.3001169 C38.7291087,27.2038389 38.2237104,28.064662 37.6384398,28.8703933 C37.3526513,29.2562989 36.9358005,29.5075015 36.6481917,29.8897664 C36.3824266,30.0281099 36.102099,30.2210627 35.901865,29.8114931 C35.9393532,29.342752 36.0627613,28.8849079 36.2659268,28.4608238 C36.699376,27.4225087 36.886297,26.2978676 36.8120195,25.1751659 C36.921238,24.4470422 36.4789029,23.8718246 36.2932314,23.2310758 C35.6998107,21.1941499 35.4904751,19.1517631 36.0038023,17.0711498 C36.1057396,16.6506584 36.1221224,16.1937609 36.5662778,15.9534801 Z" id="路径" fill="#F4A254"></path>
            <path d="M29.8730013,11.4609572 C29.4160876,11.2593548 29.0048807,10.9670512 28.664316,10.6017714 C26.3136902,8.23658309 23.95639,5.87806928 21.5924153,3.52622995 C21.3393923,3.27320698 21.0062757,3.04384804 21.2811424,2.6160754 C21.7226284,2.28475428 22.2266853,2.04634896 22.762874,1.91525641 C23.484451,1.66341254 24.2221212,1.46029478 24.9709089,1.30727317 C26.0084851,1.11614072 26.7347884,1.55119459 27.262678,2.37761491 C27.7343693,3.10293817 27.9807571,3.95167772 27.9707783,4.81682909 C27.9438999,5.47248287 28.0338906,6.12768931 28.2365434,6.75181764 C28.6206286,7.84400309 29.270479,8.28815851 30.4209143,8.326385 C30.8268432,8.33912716 31.2819205,8.08246358 31.6405214,8.48293158 C32.4032309,8.88157927 33.2187294,9.18557089 33.722955,9.98104596 C33.8667594,10.2104049 34.299993,10.1885612 34.6076252,10.1630769 C34.8049861,10.1288517 35.008112,10.1575059 35.1883038,10.2449908 C35.1883038,10.5908495 34.9043356,10.6090526 34.6676954,10.6600212 C33.322487,10.976755 31.9517942,11.1788093 30.6284295,11.5901992 C30.3754066,11.6520897 30.0914384,11.706699 29.8730013,11.4609572 Z" id="路径" fill="#F0842B"></path>
            <path d="M12.5636822,11.4609572 C10.9363259,12.1472138 9.21977441,12.5931895 7.60151963,13.3103913 C6.74779467,13.6890156 5.99054609,14.2205458 5.20235226,14.7083886 C4.38503348,13.8510231 3.6077615,12.9536107 2.69214603,12.1945418 C2.57724166,12.1116784 2.53749758,11.9588165 2.59748996,11.83048 C3.14011023,10.3942643 3.85853377,9.03078809 4.73635313,7.77119073 C5.07857124,7.47630066 5.30610987,7.07401235 5.64650767,6.78094259 C6.31820172,6.20936554 7.07909092,6.41688077 7.34485605,7.2451214 C7.41163312,7.43701034 7.46157681,7.63434883 7.49412139,7.83490155 C7.52660081,8.42049846 7.96615315,8.90263719 8.54626004,8.98897751 C9.13421988,9.05996956 9.6803126,8.86155587 10.2391475,8.74323578 C11.1165365,9.56419518 12.0412535,10.3378265 12.7529943,11.3226138 C12.7293303,11.4263714 12.6911038,11.5101056 12.5636822,11.4609572 Z" id="路径" fill="#E94D38"></path>
            <path d="M36.0110835,29.846079 C36.2295206,29.9516569 36.3605829,29.7568838 36.5335122,29.698634 C37.2197687,29.2890644 37.3835966,29.298166 37.9478924,29.8296962 C38.3808254,30.2234835 38.7922058,30.6403328 39.1802416,31.0784282 C39.4478271,31.3915214 39.6899282,31.7319192 39.4059599,32.1706137 C38.8598672,33.1117135 38.0698531,33.8452981 37.3162451,34.6098279 C36.7301056,34.7026636 36.3114345,35.1741237 35.7398575,35.3015453 C35.2338115,35.547287 34.8151404,35.3798186 34.4656411,35.0048349 C33.5172601,34.0091259 32.5397541,33.0425417 31.5531466,32.0923404 C31.1890847,31.7519426 31.1126318,31.3642168 31.3711157,30.9346238 L31.5149201,30.5359761 C31.8935444,29.3545955 32.5197307,28.2715116 32.892894,27.0773889 C32.9403458,26.8995576 33.0615757,26.7505044 33.2260106,26.6678193 C33.4662914,26.6059288 33.6137364,26.7570145 33.7393378,26.9153814 C34.2672274,27.567052 34.8915934,28.1258869 35.4777329,28.7193077 C35.7943592,29.0119259 35.9854853,29.4157044 36.0110835,29.846079 Z" id="路径" fill="#EB5E34"></path>
            <path d="M42.6588523,10.900302 C42.3075326,10.9494504 42.0636112,10.7728804 41.8287913,10.5362402 C41.0679021,9.75896825 40.2815286,9.00536029 39.5279207,8.22080707 C39.1438354,7.82033908 38.7451878,7.47448035 38.1863529,7.36344149 C38.1481264,7.04124679 38.3829462,6.92838762 38.6141255,6.83737217 C41.4738311,5.71060085 44.4190912,4.96609443 47.5136166,4.90784454 C47.9688928,4.88469084 48.4222237,4.98201257 48.8278798,5.18999245 C49.2301681,5.40660923 49.4722692,5.70878054 49.1300511,6.17295935 C48.6094427,6.74817702 47.9504908,7.13772317 47.2933592,7.52908962 C45.6515099,8.51302047 44.1005481,9.64121421 42.6588523,10.900302 L42.6588523,10.900302 Z" id="路径" fill="#F5A524"></path>
            <path d="M49.1227698,6.16567812 C49.2137853,5.64506972 48.9061531,5.43755448 48.4674586,5.33015625 C47.3643513,5.03526618 46.255783,5.18999245 45.1726991,5.36656243 C42.875705,5.71871431 40.6248085,6.32432575 38.4612195,7.17230904 C38.3632318,7.22277821 38.271061,7.28381847 38.1863529,7.35433995 L37.5000963,7.61828477 C36.2895908,7.925917 35.625178,7.05762957 34.8806716,6.38411521 C34.6986407,6.2221077 34.5821409,5.97818628 34.7805546,5.72516332 C36.7783569,5.06611946 38.828804,4.57893275 40.9095353,4.26891605 C42.9118752,3.94308073 44.9396996,3.64819065 46.9893676,3.69187807 C47.6457703,3.69476201 48.2991061,3.78162875 48.9334577,3.95036196 C50.1585257,4.30168162 50.3296348,4.96609443 49.4395036,5.90355361 C49.3412926,5.99946642 49.2353574,6.08713695 49.1227698,6.16567812 Z" id="路径" fill="#F6BF60"></path>
            <path d="M12.6947444,11.3135122 C11.7409025,10.5853886 10.7688574,9.87546803 10.2409678,8.74323578 C12.4125965,7.56731611 14.4404209,6.14747503 16.6393542,5.0207037 C16.4813102,5.28291352 16.5464788,5.62210451 16.7904399,5.80707723 C17.2655406,6.25851388 17.7370006,6.71723177 18.1793357,7.19961368 C18.4851476,7.53455055 18.8619516,7.49814437 19.2423962,7.50360529 C19.3625366,7.90043267 19.0603653,8.08428389 18.8200845,8.26449449 C17.2539509,9.37271905 15.5942259,10.3423639 13.8597423,11.1624266 C13.4956804,11.3371762 13.1097749,11.5028244 12.6947444,11.3135122 Z" id="路径" fill="#EC6432"></path>
            <path d="M34.7805546,5.73244456 C35.2768969,6.65760653 36.16341,7.31012299 37.1942844,7.50906622 C37.2995694,7.53846718 37.4019356,7.57746382 37.5000963,7.625566 C36.4861842,8.2062446 35.4540689,8.75779825 34.5075082,9.71164021 C34.5785003,8.92162607 34.9352808,8.45198633 35.2101475,7.94412009 C35.3211864,7.74206578 35.6470217,7.54729271 35.4613502,7.31065253 C35.3048036,7.11041853 34.9789683,7.2032543 34.7587109,7.31065253 C33.7630018,7.81487815 32.668996,8.03877617 31.6423417,8.46290818 C31.3747563,8.50113467 31.1089911,8.55756425 30.8414057,8.57758765 C28.9064172,8.73049362 27.7559818,7.63284724 27.6995522,5.56497612 C27.6795288,4.8186494 27.6704273,4.07960391 27.4228652,3.35876151 C26.8767725,1.78055353 25.9120087,1.21989834 24.2828321,1.56757737 L22.762874,1.89523301 C23.9219491,1.28599777 25.1890163,0.909402392 26.4926873,0.786664774 C27.6595054,0.69564932 28.3439416,1.22899988 28.5314335,2.39035708 C28.6606754,3.19129307 28.6624957,4.01407278 28.7862768,4.81500878 C28.9683077,6.01095185 29.6236189,6.54066179 30.8213823,6.55886488 C31.9263099,6.57342735 32.9566049,6.21846708 34.0014623,5.93085825 C34.2599462,5.86532712 34.5202504,5.79979599 34.7805546,5.73244456 Z" id="路径" fill="#F6B25A"></path>
            <path d="M39.4059599,32.1633325 C39.1329136,30.9783112 38.0698531,30.4413201 37.3180654,29.6531262 C37.1105502,29.4328688 36.7992773,29.6895324 36.5335122,29.693173 C37.6256977,28.5755033 38.3938681,27.2685213 39.0473591,25.8596021 C39.4114209,25.064127 39.9702558,24.3560268 40.9095353,24.0939023 C41.4847529,23.9337151 41.8943225,24.0939023 42.1218611,24.639995 C42.3592858,25.1547549 42.4268596,25.7316824 42.3148139,26.2873747 C41.979877,27.8419187 41.2226284,29.1998693 40.4398955,30.5487183 C40.2960911,30.799921 40.0758337,31.018358 40.1067789,31.3441934 C39.9612373,31.6817366 39.7169143,31.967309 39.4059599,32.1633325 L39.4059599,32.1633325 Z" id="路径" fill="#ED6E31"></path>
            <path d="M35.6998107,0.00393186762 C37.2907608,-0.0251930777 38.8544063,0.267876685 40.4326143,0.404399866 C40.6917796,0.396237974 40.9243681,0.562479116 41.0005507,0.810328792 C41.0733631,1.05789083 40.931379,1.24720297 40.7657308,1.41103079 C40.451536,1.71902116 40.0094363,1.8589518 39.5752487,1.78783477 C38.7033206,1.68225684 37.9369705,1.91707672 37.1724407,2.3339275 C36.0656852,2.96124768 34.842176,3.35524862 33.5773303,3.49164407 C32.468762,3.60450324 32.0118644,3.10209793 32.2175594,1.99717031 C32.3973207,0.878781586 33.3444258,0.0446269856 34.4765629,0.00757248579 C34.8843122,-0.00698998688 35.2920614,0.00393186762 35.6998107,0.00393186762 Z" id="路径" fill="#F49E25"></path>
            <path d="M2.59202903,11.8250191 C3.40934781,12.3565493 4.03371382,13.0992354 4.72543128,13.7672889 C4.9911964,14.0257727 5.20417257,14.3133816 5.19689133,14.7011074 C2.39361534,16.9528298 0.797204273,19.9053711 0.16555702,23.4112864 C0.136432075,23.5660127 0.145533621,23.7298405 0.0162916756,23.8481606 C-0.0947471786,20.9192832 0.473189256,18.0868823 1.27776587,15.2927079 C1.61998398,14.1113273 1.97494425,12.9172045 2.59202903,11.8250191 Z" id="路径" fill="#E83D3D"></path>
            <path d="M42.6479304,15.0451458 C42.6060633,13.9347573 43.0866249,13.1338213 44.0714121,12.6259551 C45.2964801,11.9924875 46.5179075,11.3517387 47.7429756,10.7164508 C48.1853107,10.4852716 48.687716,10.2850376 49.0171919,10.7929038 C49.3230038,11.2643639 49.0517778,11.7176208 48.6385676,12.0252531 C47.5645853,12.8207281 46.7727508,13.8619449 46.0191429,14.9377476 C45.636601,15.5018283 45.145964,15.9844221 44.5756377,16.3575887 C43.4834523,17.0584077 42.7553287,16.6870646 42.6624929,15.3800827 C42.6552117,15.2708642 42.651571,15.158005 42.6479304,15.0451458 Z" id="路径" fill="#F39927"></path>
            <path d="M14.7972014,1.37462461 C15.2176928,1.41649172 15.5890359,1.37462461 15.6927935,1.82970188 C15.7892699,2.24109173 15.6363639,2.51959902 15.277763,2.73985642 C14.5287591,3.21665475 13.8540713,3.80117971 13.275423,4.47461098 C12.8585723,4.93696949 12.3652685,5.26462512 11.7154182,5.0207037 C11.1862383,4.82630823 10.8267678,4.33167681 10.8052636,3.76833105 C10.7408963,3.15561352 11.0739838,2.56996512 11.6335043,2.31208379 C12.6216081,1.8081056 13.6940438,1.49032402 14.7972014,1.37462461 Z" id="路径" fill="#EC6932"></path>
            <path d="M8.54808035,8.98897751 C7.72348034,8.96531349 7.43769181,8.73959516 7.22471565,7.94412009 C6.81696641,6.42962293 6.41831872,6.32404501 5.22237566,7.41987108 C5.09465983,7.57750112 4.92764797,7.6986789 4.73817344,7.77119073 C5.44665222,6.56138342 6.29331297,5.43800022 7.26112183,4.42364232 C7.40856687,4.26527543 7.5960587,4.03409618 7.83087857,4.14513503 C8.06569845,4.25617389 7.98560485,4.53468118 7.96558145,4.75311827 C7.89276908,5.58499952 7.78355054,6.41506046 7.74896467,7.24876202 C7.71255848,7.94958102 7.85454259,8.6067126 8.54808035,8.98897751 Z" id="路径" fill="#EF8753"></path>
            <path d="M12.6947444,11.3135122 C14.9137012,10.505295 16.8814553,9.24928171 18.8310064,7.94412009 C18.9844852,7.81344917 19.1225124,7.66565013 19.2423962,7.50360529 C19.9177898,7.04737982 20.5126441,6.48205295 21.0026351,5.83074125 C21.2756815,5.4411951 21.4595327,5.49216376 21.6051574,5.95816288 C22.162172,7.74206578 22.4698042,9.54599209 22.138508,11.4190901 C21.8982272,12.7843219 23.0213579,13.7763904 24.4776051,13.4414535 C25.3768378,13.2357586 26.2560471,12.9408685 27.144358,12.6860253 C27.6000972,12.6345241 28.0522028,12.8092477 28.3548635,13.1538447 C28.9719483,13.7818513 29.6290799,14.3789127 30.2498053,14.9941772 C30.795898,15.5402699 31.0034132,16.0863626 30.7795152,16.8144863 C30.7202628,17.0963949 30.6131341,17.3660635 30.4627814,17.6117816 C29.8638997,18.6165923 29.594494,19.739723 29.3487523,20.8628537 C29.1285503,21.7924975 29.1248136,22.7602975 29.3378304,23.691614 C29.6527439,25.0004162 30.6120468,25.7613054 32.0227863,25.2079314 C32.2758093,25.1096348 32.5270119,25.0040568 32.7818552,24.9112211 C33.3279479,24.7091668 33.6428614,24.8966586 33.6592442,25.4573138 C33.6719863,25.9032895 33.6592442,26.3674683 33.2806199,26.7096864 C32.8273629,28.043973 32.4560199,29.4183064 31.5112794,30.5323355 C31.5537691,30.1696441 31.4229216,29.8081273 31.1581395,29.5566498 C29.4506896,27.8710436 27.7596224,26.1690546 26.0612741,24.4743469 C25.925239,24.2884709 25.7257593,24.1589386 25.5006189,24.1102851 C25.6826498,21.7730082 25.442369,19.4958015 24.5777221,17.2986885 C23.2416153,13.909273 20.3546051,11.9051127 17.0052364,12.030714 C15.8766447,12.0744014 14.8499904,12.4876116 13.7923908,12.8007047 C14.105484,12.2673542 13.7487034,12.0125109 13.3536963,11.7977144 C13.1006734,11.6593709 12.8239864,11.5647149 12.5582213,11.4518557 L12.6947444,11.3135122 Z" id="路径" fill="#E13F1E"></path>
            <path d="M10.7688574,19.6323247 C10.3156005,20.4769481 9.58929715,21.2087124 10.0898821,22.2499292 C10.3156005,22.7177486 10.8507713,22.8233265 11.7918711,22.6795221 C10.5868265,24.439761 10.6177718,26.4694056 10.3720301,28.4316988 C10.2882958,29.0833695 10.2191241,29.7368604 10.1135462,30.3848905 C10.0571166,30.7307492 10.0607572,31.2258733 9.6602892,31.295045 C9.20885255,31.3696777 9.06686844,30.8636318 8.89575939,30.5414371 C8.36240883,29.5366264 8.04567505,28.4426207 7.73804281,27.3540759 C7.45407459,26.3529059 7.29024678,25.3207906 7.07909092,24.3014175 C6.76053683,22.7632563 7.15190329,21.3780011 7.81995672,20.034613 C8.0966437,19.4775985 8.34602604,18.8969199 8.82294702,18.3217022 C8.74103312,18.9278651 8.65547859,19.4138876 8.61179117,19.9090117 C8.58812715,20.1929799 8.52259603,20.5515808 8.83022826,20.7099477 C9.10327462,20.8519318 9.34173511,20.6171119 9.55835189,20.4623857 L10.7688574,19.6323247 Z" id="路径" fill="#040000"></path>
            <path d="M31.367475,30.9255223 C31.2892017,31.471615 31.6022949,31.7792472 31.9699973,32.119645 C32.8018786,32.8914561 33.6082755,33.6869312 34.3819069,34.5260936 C34.7678124,34.9484054 35.1555382,35.2669594 35.7398575,35.2942641 C34.2253603,36.2044186 32.5816212,36.7286676 30.8250229,36.4574416 C29.3323695,36.2280826 28.3348401,35.0430614 29.594494,33.14994 C30.1242039,32.3635665 30.766773,31.6663881 31.367475,30.9255223 Z" id="路径" fill="#E94E37"></path>
            <path d="M30.2752896,17.4406726 L30.5537969,16.7635176 C31.1290145,14.904982 32.6271289,13.7345233 33.8485563,12.3601899 C34.0069232,12.178159 34.2126181,11.9961281 34.5020473,12.1290107 C34.499071,12.1740404 34.491135,12.2186043 34.4783833,12.2618932 C34.0360481,13.3650005 34.0396888,13.3540787 34.924359,14.2642332 C35.4704517,14.8230681 36.0165444,15.3964655 36.5626372,15.9625816 C36.3241767,17.0220015 36.0602319,18.0741401 35.9983413,19.1663256 C35.9055056,20.8046038 36.3624032,22.3482259 36.8138398,23.8991292 C36.9394411,24.3305425 37.1105502,24.7564948 37.0832456,25.2224939 C36.8411444,25.3189703 36.6936994,25.1587831 36.5644575,25.0076974 C34.7441484,22.9034201 32.6617148,21.059447 30.7394684,19.0571071 C30.6757576,18.9915759 30.6175077,18.9242245 30.5574375,18.8605137 C30.1460476,18.4400223 30.0077041,17.9813044 30.2752896,17.4406726 Z" id="路径" fill="#EE772F"></path>
            <path d="M34.5020473,12.1290107 C33.2278309,13.3285944 32.0191457,14.5718655 31.0707647,16.0499564 C30.9123978,16.2975185 30.7267262,16.5268774 30.5537969,16.7635176 C30.7594918,16.1409719 30.5829218,15.7077383 30.0896181,15.2271767 C29.4142834,14.5682249 28.6970816,13.9438588 28.0617937,13.2448601 C27.8051302,12.9608919 27.4374277,12.8807983 27.1516392,12.6823846 C27.9817001,12.0944248 29.0484013,12.0343546 29.8821028,11.4518557 C31.6295995,10.9330676 33.4244243,10.6272557 35.1992257,10.2267877 L36.6809572,10.2267877 L34.5020473,12.1290107 Z" id="路径" fill="#E6591D"></path>
            <path d="M30.2752896,17.4406726 C30.2225006,17.9867653 30.4573205,18.3817724 30.8304839,18.7549357 C32.2321218,20.1310894 33.6100958,21.5309071 35.0044526,22.9125217 C35.7581325,23.6214575 36.454456,24.3889959 37.0868862,25.2079314 C37.2689171,26.8771549 36.6827776,28.3698083 36.0110835,29.8406181 C35.572389,29.1234163 34.9462027,28.5664017 34.3546022,27.9948247 C33.9452945,27.612077 33.5845948,27.1804601 33.2806199,26.7096864 C33.2405731,26.31832 33.3497916,25.9451566 33.39894,25.564712 C33.422604,25.3826811 33.4735726,25.169705 33.3115651,25.0550255 C33.1495576,24.940346 32.9839095,25.1187363 32.8237223,25.1860877 C32.2266609,25.4427513 31.6459823,25.8049928 30.9597258,25.6793915 C29.7346578,25.4518529 29.1394167,24.8147447 28.9573858,23.2966069 C28.7371284,21.2159936 29.2231509,19.2537004 30.2752896,17.4406726 Z" id="路径" fill="#EC6831"></path>
        </g>
    </g>
</svg>